<?xml version="1.0" encoding="UTF-8"?>
<svg id="Layer_1" data-name="Layer 1" xmlns="http://www.w3.org/2000/svg" viewBox="0 0 627.9 96.75">
  <defs>
    <style>
      .cls-1 {
        fill: #231f20;
      }
    </style>
  </defs>
  <g>
    <path class="cls-1" d="M1.33,0h13.7v19.96h19.15V0h13.7v51.57h-13.7v-21.44H15.03v21.44H1.33V0Z"/>
    <path class="cls-1" d="M57.76,0h13.63v51.57h-13.63V0Z"/>
    <path class="cls-1" d="M81.26,0h21.29c15.99,0,26.59,9.36,26.59,25.86s-10.76,25.71-26.89,25.71h-21V0ZM94.96,10.31v31.09h6.92c8.4,0,13.26-4.94,13.26-15.47s-4.86-15.62-13.26-15.62h-6.92Z"/>
    <path class="cls-1" d="M138.06,0h21.29c15.99,0,26.59,9.36,26.59,25.86s-10.76,25.71-26.89,25.71h-21V0ZM151.77,10.31v31.09h6.92c8.4,0,13.26-4.94,13.26-15.47s-4.86-15.62-13.26-15.62h-6.92Z"/>
    <path class="cls-1" d="M194.86,0h41.33v10.09h-27.63v10.17h20.85v9.8h-20.85v11.57h27.63v9.95h-41.33V0Z"/>
    <path class="cls-1" d="M245.25,0h15.03l9.72,16.58,9.58,16.65-.15-16.65-.07-16.58h11.71v51.57h-15.1l-9.65-16.43-9.5-16.5.15,16.5v16.43h-11.71V0Z"/>
    <path class="cls-1" d="M352.74,51.57h-16.06L317.53,0h14.73l6.41,19.15,6.48,19.23,6.41-19.23,6.41-19.15h13.92l-19.15,51.57Z"/>
    <path class="cls-1" d="M383.17,0h16.06l19.08,51.57h-14.59l-3.54-10.46h-18.93l-3.46,10.46h-13.78L383.17,0ZM384.27,31.9h12.89l-6.41-19.67-6.48,19.67Z"/>
    <path class="cls-1" d="M425.6,0h13.7v41.48h27.33v10.09h-41.03V0Z"/>
    <path class="cls-1" d="M475.4,0h13.7v41.48h27.33v10.09h-41.03V0Z"/>
    <path class="cls-1" d="M525.21,0h41.33v10.09h-27.62v10.17h20.85v9.8h-20.85v11.57h27.62v9.95h-41.33V0Z"/>
    <path class="cls-1" d="M593.64,33.59L573.09,0h15.47l12.3,20.92,12.3-20.92h14.73l-20.55,33.59v17.98h-13.7v-17.98Z"/>
  </g>
  <g>
    <path class="cls-1" d="M0,80.4c0-10.09,8.15-16.35,18.77-16.35,7.63,0,12.75,3.32,15.4,7.44l-6.21,3.27c-1.85-2.7-4.88-4.46-9.2-4.46-6.68,0-11.23,4.12-11.23,10.09s4.64,10.09,11.42,10.09c3.55,0,6.54-1.18,8.2-2.23v-3.7h-10.29v-5.88h17.58v12.42c-3.55,3.32-8.86,5.64-15.69,5.64-10.62,0-18.77-6.26-18.77-16.35Z"/>
    <path class="cls-1" d="M64.31,80.4c0-9.91,7.73-16.35,18.34-16.35s18.34,6.45,18.34,16.35-7.72,16.35-18.34,16.35-18.34-6.45-18.34-16.35ZM82.65,90.49c6.49,0,10.76-4.17,10.76-10.09s-4.26-10.09-10.76-10.09-10.76,4.17-10.76,10.09,4.22,10.09,10.76,10.09Z"/>
    <path class="cls-1" d="M132.17,64.57h7.39v25.21h16.35v6.4h-23.74v-31.61Z"/>
    <path class="cls-1" d="M186.76,64.57h26.49v6.11h-19.1v6.45h18.53v5.97h-18.53v13.08h-7.39v-31.61Z"/>
    <path class="cls-1" d="M282.06,80.4c0-10,8.01-16.35,18.63-16.35,8.01,0,13.03,3.6,15.59,7.82l-6.3,3.37c-1.75-2.99-4.88-4.93-9.29-4.93-6.49,0-11.04,4.12-11.04,10.09s4.55,10.09,11.04,10.09c4.36,0,7.54-1.9,9.15-4.74l6.45,3.27c-2.61,4.08-7.63,7.72-15.59,7.72-10.62,0-18.63-6.35-18.63-16.35Z"/>
    <path class="cls-1" d="M344.95,80.4c0-9.91,7.73-16.35,18.34-16.35s18.34,6.45,18.34,16.35-7.72,16.35-18.34,16.35-18.34-6.45-18.34-16.35ZM363.29,90.49c6.49,0,10.76-4.17,10.76-10.09s-4.26-10.09-10.76-10.09-10.76,4.17-10.76,10.09,4.22,10.09,10.76,10.09Z"/>
    <path class="cls-1" d="M412.81,82.58v-18.01h7.39v17.87c0,4.79,3.08,7.87,8.53,7.87s8.48-3.08,8.48-7.87v-17.87h7.44v18.01c0,8.58-5.64,14.17-15.92,14.17s-15.92-5.59-15.92-14.17Z"/>
    <path class="cls-1" d="M477.4,64.57h18.82c7.01,0,11.18,4.12,11.18,10.28,0,5.31-3.03,8.39-7.58,9.57l7.92,11.75h-8.77l-7.06-11.14h-7.11v11.14h-7.39v-31.61ZM495.27,78.93c2.8,0,4.65-1.56,4.65-4.12s-1.85-4.08-4.65-4.08h-10.47v8.2h10.47Z"/>
    <path class="cls-1" d="M536.54,91.34l3.79-5.26c2.65,2.51,7.06,4.6,12.04,4.6,4.46,0,6.59-1.56,6.59-3.46,0-2.42-2.99-3.03-7.68-3.74-6.4-1-13.7-2.37-13.7-9.72,0-5.64,5.36-9.67,14.03-9.67,5.64,0,10.66,1.66,14.22,4.74l-3.84,5.12c-2.8-2.37-6.83-3.84-10.95-3.84-3.74,0-5.78,1.18-5.78,3.03,0,2.18,2.8,2.8,7.68,3.6,6.4,1.04,13.7,2.51,13.7,9.67,0,5.92-5.07,10.33-14.5,10.33-6.83,0-12.46-2.42-15.59-5.4Z"/>
    <path class="cls-1" d="M597.48,64.57h26.64v6.11h-19.24v6.45h18.67v5.97h-18.67v6.97h19.24v6.11h-26.64v-31.61Z"/>
  </g>
</svg>