<?xml version="1.0" encoding="UTF-8"?>
<svg id="Layer_1" data-name="Layer 1" xmlns="http://www.w3.org/2000/svg" viewBox="0 0 626.57 100.17">
  <defs>
    <style>
      .cls-1 {
        fill: #231f20;
      }
    </style>
  </defs>
  <g>
    <path class="cls-1" d="M0,0h13.7v19.96h19.15V0h13.7v51.57h-13.7v-21.44H13.7v21.44H0V0Z"/>
    <path class="cls-1" d="M56.43,0h13.63v51.57h-13.63V0Z"/>
    <path class="cls-1" d="M79.93,0h21.29c15.99,0,26.59,9.36,26.59,25.86s-10.76,25.71-26.89,25.71h-21V0ZM93.64,10.31v31.09h6.92c8.4,0,13.26-4.94,13.26-15.47s-4.86-15.62-13.26-15.62h-6.92Z"/>
    <path class="cls-1" d="M136.73,0h21.29c15.99,0,26.59,9.36,26.59,25.86s-10.76,25.71-26.89,25.71h-21V0ZM150.44,10.31v31.09h6.92c8.4,0,13.26-4.94,13.26-15.47s-4.86-15.62-13.26-15.62h-6.92Z"/>
    <path class="cls-1" d="M193.53,0h41.33v10.09h-27.63v10.17h20.85v9.8h-20.85v11.57h27.63v9.95h-41.33V0Z"/>
    <path class="cls-1" d="M243.92,0h15.03l9.72,16.58,9.58,16.65-.15-16.65-.07-16.58h11.71v51.57h-15.1l-9.65-16.43-9.5-16.5.15,16.5v16.43h-11.71V0Z"/>
    <path class="cls-1" d="M351.41,51.57h-16.06L316.2,0h14.73l6.41,19.15,6.48,19.23,6.41-19.23,6.41-19.15h13.92l-19.15,51.57Z"/>
    <path class="cls-1" d="M381.84,0h16.06l19.08,51.57h-14.59l-3.54-10.46h-18.93l-3.46,10.46h-13.78L381.84,0ZM382.94,31.9h12.89l-6.41-19.67-6.48,19.67Z"/>
    <path class="cls-1" d="M424.27,0h13.7v41.48h27.33v10.09h-41.03V0Z"/>
    <path class="cls-1" d="M474.08,0h13.7v41.48h27.33v10.09h-41.03V0Z"/>
    <path class="cls-1" d="M523.88,0h41.33v10.09h-27.63v10.17h20.85v9.8h-20.85v11.57h27.63v9.95h-41.33V0Z"/>
    <path class="cls-1" d="M592.32,33.59L571.76,0h15.47l12.3,20.92,12.3-20.92h14.73l-20.55,33.59v17.98h-13.7v-17.98Z"/>
  </g>
  <g>
    <path class="cls-1" d="M59.09,78.55c-2.53-2.31-6.48-3.64-9.5-3.64-5.55,0-9.41,4.48-9.41,9.9,0,5.06,3.37,9.85,9.85,9.85,2.62,0,5.55-.71,7.37-1.95v-4.88h-8.75v-5.24h14.69v13c-3.77,2.8-9.05,4.53-13.58,4.53-9.28,0-16.2-6.84-16.2-15.36s7.01-15.36,15.98-15.36c4.57,0,9.59,1.82,13.76,5.19l-4.22,3.95Z"/>
    <path class="cls-1" d="M107.08,69.41c9.19,0,16.56,6.88,16.56,15.31s-7.37,15.45-16.56,15.45-16.38-6.84-16.38-15.45,7.19-15.31,16.38-15.31ZM107.08,94.71c5.55,0,9.9-4.53,9.9-9.99s-4.35-9.81-9.9-9.81-9.72,4.44-9.72,9.81,4.26,9.99,9.72,9.99Z"/>
    <path class="cls-1" d="M158.18,70.29v23.53h17.04v5.46h-23.39v-28.99h6.35Z"/>
    <path class="cls-1" d="M202.22,99.28v-28.99h23.92v5.5h-17.58v5.86h10.7v5.46h-10.7v12.16h-6.35Z"/>
    <path class="cls-1" d="M313.07,94.22c-3.33,3.11-8.39,5.95-14.74,5.95-9.63,0-15.98-6.88-15.98-15.4s6.39-15.36,15.76-15.36c5.33,0,10.56,2.09,14.03,5.06l-4,4.17c-2.66-2.31-6.39-3.73-9.5-3.73-5.86,0-9.63,4.48-9.63,9.9s3.86,9.9,9.85,9.9c3.95,0,7.63-2.09,10.17-4.62l4.04,4.13Z"/>
    <path class="cls-1" d="M353.74,69.41c9.19,0,16.56,6.88,16.56,15.31s-7.37,15.45-16.56,15.45-16.38-6.84-16.38-15.45,7.19-15.31,16.38-15.31ZM353.74,94.71c5.55,0,9.9-4.53,9.9-9.99s-4.35-9.81-9.9-9.81-9.72,4.44-9.72,9.81,4.26,9.99,9.72,9.99Z"/>
    <path class="cls-1" d="M424.41,70.29v18.55c0,7.23-5.59,11.32-13.27,11.32s-13.18-4.08-13.18-11.32v-18.55h6.39v18.55c0,3.82,3.06,5.86,6.79,5.86,3.95,0,6.88-2.04,6.88-5.86v-18.55h6.39Z"/>
    <path class="cls-1" d="M454.6,99.28v-28.99h16.07c4.13,0,6.83,1.2,8.7,3.15,1.51,1.6,2.4,3.68,2.4,5.99,0,3.73-2.31,6.61-5.86,8.17l6.79,11.67h-7.28l-5.86-10.65h-8.61v10.65h-6.35ZM460.95,75.66v7.59h10.39c2.22,0,4.04-1.6,4.04-3.82,0-.98-.36-1.86-1.02-2.53-1.02-1.11-2.31-1.24-3.46-1.24h-9.94Z"/>
    <path class="cls-1" d="M531.32,77.75c-1.73-1.29-5.37-3.11-10.17-3.11-2.88,0-5.46,1.06-5.46,3.55s3.82,2.75,7.59,3.06c5.28.36,13.54.98,13.54,8.97,0,7.15-5.95,9.94-13.05,9.94-7.5,0-12.56-2.97-15.94-5.73l3.6-4.35c2.44,1.95,6.57,4.88,12.43,4.88,3.68,0,6.61-1.42,6.61-4.13s-2.97-3.42-7.32-3.77c-6.35-.4-13.8-1.11-13.8-8.48s6.52-9.19,11.98-9.19c6.04,0,11.14,2.22,13.63,3.91l-3.64,4.44Z"/>
    <path class="cls-1" d="M581.84,86.89h-10.7v6.92h18.82v5.46h-25.17v-28.99h24.15v5.5h-17.8v5.64h10.7v5.46Z"/>
  </g>
</svg>