<?xml version="1.0" encoding="UTF-8"?>
<svg id="Layer_1" data-name="Layer 1" xmlns="http://www.w3.org/2000/svg" viewBox="0 0 760.83 90.6">
  <defs>
    <style>
      .cls-1 {
        fill: #231f20;
      }
    </style>
  </defs>
  <g>
    <path class="cls-1" d="M0,26.99h6.99V.86h12.07v26.13h33.81V.86h12.07v48.12h-12.07v-11.73H19.06v11.73H6.99v-11.73H0v-10.26Z"/>
    <path class="cls-1" d="M79.95,48.99V.86h12.07v48.12h-12.07Z"/>
    <path class="cls-1" d="M107.03,48.99V.86h29.06c18.89,0,33.38,5.26,33.38,24.06s-14.49,24.06-33.38,24.06h-29.06ZM136.09,38.64c8.97,0,20.44-1.03,20.44-13.71s-11.47-13.71-20.44-13.71h-16.99v27.42h16.99Z"/>
    <path class="cls-1" d="M181.45,48.99V.86h29.06c18.89,0,33.38,5.26,33.38,24.06s-14.49,24.06-33.38,24.06h-29.06ZM210.52,38.64c8.97,0,20.44-1.03,20.44-13.71s-11.47-13.71-20.44-13.71h-16.99v27.42h16.99Z"/>
    <path class="cls-1" d="M255.88,48.99V.86h48.99v10.26h-36.83v8.11h30.19v10.35h-30.19v9.05h36.83v10.35h-48.99Z"/>
    <path class="cls-1" d="M329.19,20.7v28.29h-12.16V0l46.05,29.93V.86h12.16v48.99l-46.05-29.15Z"/>
    <path class="cls-1" d="M403.1.86h14.14l17.94,30.27L453.21.86h14.06l-32.08,48.99L403.1.86Z"/>
    <path class="cls-1" d="M499.69,41.48h-27.86l-4.66,7.5h-13.45L485.81,0l32.08,48.99h-13.54l-4.66-7.5ZM478.3,31.13h14.92l-7.42-11.9-7.5,11.9Z"/>
    <path class="cls-1" d="M525.22,48.99V.86h12.07v37.86h34.24v10.26h-46.31Z"/>
    <path class="cls-1" d="M581.02,48.99V.86h12.07v37.86h34.24v10.26h-46.31Z"/>
    <path class="cls-1" d="M636.82,48.99V.86h48.99v10.26h-36.83v8.11h30.19v10.35h-30.19v9.05h36.83v10.35h-48.99Z"/>
    <path class="cls-1" d="M722.2,48.99v-17.59l-26.3-30.53h15.52l16.82,21.04,17.08-21.04h15.52l-26.56,30.53v17.59h-12.07Z"/>
  </g>
  <g>
    <path class="cls-1" d="M42.64,79.54c0-6.83,5.51-11.06,12.7-11.06,5.16,0,8.62,2.24,10.42,5.03l-4.2,2.21c-1.25-1.83-3.3-3.01-6.22-3.01-4.52,0-7.6,2.79-7.6,6.83s3.14,6.83,7.73,6.83c2.4,0,4.42-.8,5.55-1.51v-2.5h-6.96v-3.98h11.89v8.4c-2.4,2.24-6,3.82-10.61,3.82-7.18,0-12.7-4.23-12.7-11.06Z"/>
    <path class="cls-1" d="M110.69,79.54c0-6.7,5.23-11.06,12.41-11.06s12.41,4.36,12.41,11.06-5.23,11.06-12.41,11.06-12.41-4.36-12.41-11.06ZM123.1,86.37c4.39,0,7.28-2.82,7.28-6.83s-2.88-6.83-7.28-6.83-7.28,2.82-7.28,6.83,2.85,6.83,7.28,6.83Z"/>
    <path class="cls-1" d="M181.15,68.83h5v17.05h11.06v4.33h-16.06v-21.38Z"/>
    <path class="cls-1" d="M242.63,68.83h17.92v4.13h-12.92v4.36h12.54v4.04h-12.54v8.85h-5v-21.38Z"/>
    <path class="cls-1" d="M356.2,79.54c0-6.76,5.42-11.06,12.6-11.06,5.42,0,8.82,2.44,10.55,5.29l-4.26,2.28c-1.19-2.02-3.3-3.33-6.28-3.33-4.39,0-7.47,2.79-7.47,6.83s3.08,6.83,7.47,6.83c2.95,0,5.1-1.28,6.19-3.21l4.36,2.21c-1.76,2.76-5.16,5.23-10.55,5.23-7.18,0-12.6-4.3-12.6-11.06Z"/>
    <path class="cls-1" d="M423.29,79.54c0-6.7,5.23-11.06,12.41-11.06s12.41,4.36,12.41,11.06-5.23,11.06-12.41,11.06-12.41-4.36-12.41-11.06ZM435.7,86.37c4.39,0,7.28-2.82,7.28-6.83s-2.88-6.83-7.28-6.83-7.28,2.82-7.28,6.83,2.85,6.83,7.28,6.83Z"/>
    <path class="cls-1" d="M493.75,81.01v-12.18h5v12.09c0,3.24,2.08,5.32,5.77,5.32s5.74-2.08,5.74-5.32v-12.09h5.03v12.18c0,5.8-3.81,9.59-10.77,9.59s-10.77-3.78-10.77-9.59Z"/>
    <path class="cls-1" d="M561.99,68.83h12.73c4.74,0,7.57,2.79,7.57,6.96,0,3.59-2.05,5.67-5.13,6.48l5.35,7.95h-5.93l-4.78-7.53h-4.81v7.53h-5v-21.38ZM574.08,78.54c1.89,0,3.14-1.06,3.14-2.79s-1.25-2.76-3.14-2.76h-7.08v5.55h7.08Z"/>
    <path class="cls-1" d="M626.55,86.94l2.56-3.56c1.8,1.7,4.78,3.11,8.14,3.11,3.01,0,4.46-1.06,4.46-2.34,0-1.63-2.02-2.05-5.19-2.53-4.33-.67-9.27-1.6-9.27-6.57,0-3.81,3.62-6.54,9.49-6.54,3.82,0,7.21,1.12,9.62,3.21l-2.6,3.46c-1.89-1.6-4.62-2.6-7.41-2.6-2.53,0-3.91.8-3.91,2.05,0,1.47,1.89,1.89,5.19,2.44,4.33.71,9.26,1.7,9.26,6.54,0,4.01-3.43,6.99-9.81,6.99-4.62,0-8.43-1.63-10.55-3.65Z"/>
    <path class="cls-1" d="M692.32,68.83h18.02v4.13h-13.02v4.36h12.63v4.04h-12.63v4.71h13.02v4.14h-18.02v-21.38Z"/>
  </g>
</svg>