<?xml version="1.0" encoding="UTF-8"?>
<svg id="Layer_1" data-name="Layer 1" xmlns="http://www.w3.org/2000/svg" viewBox="0 0 849.35 97.94">
  <defs>
    <style>
      .cls-1 {
        fill: #231f20;
      }
    </style>
  </defs>
  <g>
    <path class="cls-1" d="M11.64,39.41c0,4.35.07,8.62.59,12.97-3.09-.22-4.2-.29-6.19-.29s-3.02.07-6.04.29c.52-4.35.59-8.62.59-12.97V13.19C.59,8.84.52,4.57,0,.22c3.09.22,4.2.29,6.19.29s3.02-.07,6.04-.29c-.52,4.35-.59,8.62-.59,12.97v7.22h38.31v-7.22c0-4.35-.07-8.62-.59-12.97,3.09.22,4.2.29,6.19.29s3.02-.07,6.04-.29c-.52,4.35-.59,8.62-.59,12.97v26.23c0,4.35.07,8.62.59,12.97-3.09-.22-4.2-.29-6.19-.29s-3.02.07-6.04.29c.52-4.35.59-8.62.59-12.97v-8.69H11.64v8.69Z"/>
    <path class="cls-1" d="M86.42,39.41c0,4.35.07,8.62.59,12.97-3.09-.22-4.2-.29-6.19-.29s-3.02.07-6.04.29c.52-4.35.59-8.62.59-12.97V13.19c0-4.35-.07-8.62-.59-12.97,3.09.22,4.2.29,6.19.29s3.02-.07,6.04-.29c-.52,4.35-.59,8.62-.59,12.97v26.23Z"/>
    <path class="cls-1" d="M115.51,52.08c-3.83,0-11.42,0-15.25.29.44-3.61.52-10.68.52-14.29V14.51c0-3.61-.07-10.68-.52-14.29,3.83.29,11.42.29,15.25.29h10.54c26.81,0,38.01,10.46,38.01,25.78s-11.2,25.78-38.01,25.78h-10.54ZM111.83,34.77l.22,6.78,11.12.22h2.87c19.45,0,26.74-5.75,26.74-15.47s-7.29-15.47-26.74-15.47h-2.87l-11.12.22-.22,6.78v16.94Z"/>
    <path class="cls-1" d="M191.69,52.08c-3.83,0-11.42,0-15.25.29.44-3.61.52-10.68.52-14.29V14.51c0-3.61-.07-10.68-.52-14.29,3.83.29,11.42.29,15.25.29h10.53c26.82,0,38.01,10.46,38.01,25.78s-11.2,25.78-38.01,25.78h-10.53ZM188.01,34.77l.22,6.78,11.12.22h2.87c19.45,0,26.74-5.75,26.74-15.47s-7.29-15.47-26.74-15.47h-2.87l-11.12.22-.22,6.78v16.94Z"/>
    <path class="cls-1" d="M253.13,14.51c0-3.61-.07-10.68-.52-14.29,3.83.29,11.42.29,15.25.29h27.48c4.27,0,10.02-.22,14.29-.52-.44,4.2-.74,7.59-.96,11.35-4.13-.22-9.06-.52-13.33-.52h-19.82l-11.12.22-.22,6.78v2.58h26.82c4.27,0,9.65,0,13.92-.29-.29,4.2-.37,7.15-.59,10.9-4.13-.22-9.06-.29-13.33-.29h-26.82v4.05l.22,6.78,11.12.22h21.36c4.27,0,10.02-.22,14.29-.52-.44,4.2-.74,7.59-.96,11.35-4.13-.22-9.06-.52-13.33-.52h-29.03c-3.83,0-11.42,0-15.25.29.44-3.61.52-10.68.52-14.29V14.51Z"/>
    <path class="cls-1" d="M323.42,13.19c0-4.35-.07-8.62-.59-12.97,3.09.22,4.2.29,6.19.29h5.45l39.63,37.72-.22-8.25V13.19c0-4.35-.07-8.62-.59-12.97,3.09.22,4.2.29,6.19.29s3.02-.07,6.04-.29c-.52,4.35-.59,8.62-.59,12.97v26.23c0,4.35.07,8.62.59,12.97-3.09-.22-4.2-.29-6.19-.29h-5.45l-39.63-37.65.22,8.18v16.8c0,4.35.07,8.62.59,12.97-3.09-.22-4.2-.29-6.19-.29s-3.02.07-6.04.29c.52-4.35.59-8.62.59-12.97V13.19Z"/>
    <path class="cls-1" d="M494.41,13.41l-22.03,38.68c-4.13,0-8.18.07-12.3.29l-22.17-38.97c-2.5-4.49-4.94-8.69-7.88-13.19,2.28.22,4.57.29,6.92.29s4.86-.07,7.22-.29c1.84,4.42,3.98,8.84,6.34,13.19l15.62,29.03,15.69-29.03c2.36-4.35,4.49-8.77,6.33-13.19,2.28.22,4.79.29,7.15.29s4.64-.07,7-.29c-2.87,4.42-5.3,8.62-7.88,13.19Z"/>
    <path class="cls-1" d="M550.03,41.77h-34.48l-.44.74c-1.92,3.17-3.46,6.56-4.57,9.87-2.43-.15-4.86-.29-7.22-.29s-4.79.15-7.15.29c2.95-4.35,5.53-8.62,8.03-13.04L526.45.52c4.2,0,8.4,0,12.6-.29l22.4,39.12c2.5,4.42,4.94,8.69,8.03,13.04-2.43-.15-4.86-.29-7.22-.29s-4.79.15-7.15.29c-1.18-3.32-2.8-6.78-4.64-9.87l-.44-.74ZM524.46,25.56l-3.24,5.89h23.21l-3.24-5.89-8.4-15.69-8.33,15.69Z"/>
    <path class="cls-1" d="M589,34.77l.22,6.78,11.12.22h17.83c4.27,0,10.02-.22,14.29-.52-.44,4.2-.74,7.59-.96,11.35-4.12-.22-9.06-.52-13.33-.52h-25.49c-3.83,0-11.42,0-15.25.29.44-3.61.52-10.68.52-14.29V13.19c0-4.35-.07-8.62-.59-12.97,3.09.22,4.2.29,6.19.29s3.02-.07,6.04-.29c-.52,4.35-.59,8.62-.59,12.97v21.58Z"/>
    <path class="cls-1" d="M655.6,34.77l.22,6.78,11.12.22h17.83c4.27,0,10.02-.22,14.29-.52-.44,4.2-.74,7.59-.96,11.35-4.12-.22-9.06-.52-13.33-.52h-25.49c-3.83,0-11.42,0-15.25.29.44-3.61.52-10.68.52-14.29V13.19c0-4.35-.07-8.62-.59-12.97,3.09.22,4.2.29,6.19.29s3.02-.07,6.04-.29c-.52,4.35-.59,8.62-.59,12.97v21.58Z"/>
    <path class="cls-1" d="M711.15,14.51c0-3.61-.07-10.68-.52-14.29,3.83.29,11.42.29,15.25.29h27.48c4.27,0,10.02-.22,14.29-.52-.44,4.2-.74,7.59-.96,11.35-4.12-.22-9.06-.52-13.33-.52h-19.82l-11.12.22-.22,6.78v2.58h26.82c4.27,0,9.65,0,13.92-.29-.29,4.2-.37,7.15-.59,10.9-4.12-.22-9.06-.29-13.33-.29h-26.82v4.05l.22,6.78,11.12.22h21.36c4.27,0,10.02-.22,14.29-.52-.44,4.2-.74,7.59-.96,11.35-4.12-.22-9.06-.52-13.33-.52h-29.03c-3.83,0-11.42,0-15.25.29.44-3.61.52-10.68.52-14.29V14.51Z"/>
    <path class="cls-1" d="M817.97,39.41c0,4.35.07,8.62.59,12.97-3.09-.22-4.2-.29-6.19-.29s-3.02.07-6.04.29c.52-4.35.59-8.62.59-12.97v-2.73l-19.74-23.28c-3.83-4.49-7.59-8.84-11.64-13.19,2.58.22,5.23.29,7.81.29s5.16-.07,7.81-.29c2.95,4.35,6.48,8.84,9.95,13.19l11.34,14.37,11.42-14.37c3.46-4.35,7-8.77,9.87-13.19,2.58.22,5.16.29,7.74.29s5.23-.07,7.88-.29c-4.05,4.42-7.74,8.62-11.64,13.19l-19.74,23.28v2.73Z"/>
  </g>
  <g>
    <path class="cls-1" d="M72.41,86.1c0-7.31,5.9-11.84,13.59-11.84,5.52,0,9.23,2.4,11.15,5.39l-4.5,2.37c-1.34-1.96-3.53-3.23-6.66-3.23-4.84,0-8.13,2.99-8.13,7.31s3.36,7.31,8.27,7.31c2.57,0,4.74-.86,5.94-1.61v-2.68h-7.45v-4.26h12.73v8.99c-2.57,2.4-6.42,4.08-11.36,4.08-7.69,0-13.59-4.53-13.59-11.84Z"/>
    <path class="cls-1" d="M143.82,86.1c0-7.17,5.59-11.84,13.28-11.84s13.28,4.67,13.28,11.84-5.59,11.84-13.28,11.84-13.28-4.67-13.28-11.84ZM157.1,93.41c4.7,0,7.79-3.02,7.79-7.31s-3.09-7.31-7.79-7.31-7.79,3.02-7.79,7.31,3.05,7.31,7.79,7.31Z"/>
    <path class="cls-1" d="M217.79,74.64h5.35v18.26h11.84v4.63h-17.19v-22.89Z"/>
    <path class="cls-1" d="M282.17,74.64h19.18v4.43h-13.83v4.67h13.42v4.32h-13.42v9.47h-5.35v-22.89Z"/>
    <path class="cls-1" d="M400.85,86.1c0-7.24,5.8-11.84,13.49-11.84,5.8,0,9.44,2.61,11.29,5.66l-4.56,2.44c-1.27-2.16-3.54-3.57-6.73-3.57-4.7,0-8,2.99-8,7.31s3.29,7.31,8,7.31c3.16,0,5.46-1.37,6.62-3.43l4.67,2.37c-1.89,2.95-5.53,5.59-11.29,5.59-7.69,0-13.49-4.6-13.49-11.84Z"/>
    <path class="cls-1" d="M471.23,86.1c0-7.17,5.59-11.84,13.28-11.84s13.28,4.67,13.28,11.84-5.59,11.84-13.28,11.84-13.28-4.67-13.28-11.84ZM484.51,93.41c4.7,0,7.79-3.02,7.79-7.31s-3.09-7.31-7.79-7.31-7.79,3.02-7.79,7.31,3.05,7.31,7.79,7.31Z"/>
    <path class="cls-1" d="M545.21,87.68v-13.04h5.35v12.94c0,3.47,2.23,5.7,6.18,5.7s6.14-2.23,6.14-5.7v-12.94h5.39v13.04c0,6.21-4.08,10.26-11.53,10.26s-11.53-4.05-11.53-10.26Z"/>
    <path class="cls-1" d="M616.82,74.64h13.62c5.08,0,8.1,2.99,8.1,7.45,0,3.84-2.2,6.07-5.49,6.93l5.73,8.51h-6.35l-5.11-8.06h-5.15v8.06h-5.35v-22.89ZM629.75,85.04c2.02,0,3.36-1.13,3.36-2.99s-1.34-2.95-3.36-2.95h-7.58v5.94h7.58Z"/>
    <path class="cls-1" d="M684.48,94.03l2.75-3.81c1.92,1.82,5.11,3.33,8.72,3.33,3.23,0,4.77-1.13,4.77-2.51,0-1.75-2.16-2.2-5.56-2.71-4.63-.72-9.92-1.72-9.92-7.04,0-4.08,3.88-7,10.16-7,4.08,0,7.72,1.2,10.29,3.43l-2.78,3.71c-2.03-1.72-4.94-2.78-7.93-2.78-2.71,0-4.19.86-4.19,2.2,0,1.58,2.02,2.02,5.56,2.61,4.63.75,9.92,1.82,9.92,7,0,4.29-3.67,7.48-10.5,7.48-4.94,0-9.02-1.75-11.29-3.91Z"/>
    <path class="cls-1" d="M753.45,74.64h19.29v4.43h-13.93v4.67h13.52v4.32h-13.52v5.04h13.93v4.43h-19.29v-22.89Z"/>
  </g>
</svg>