<?xml version="1.0" encoding="UTF-8"?>
<svg id="Layer_1" xmlns="http://www.w3.org/2000/svg" version="1.1" viewBox="0 0 1958.8 401.7">
  <!-- Generator: Adobe Illustrator 30.3.0, SVG Export Plug-In . SVG Version: 2.1.3 Build 182)  -->
  <defs>
    <style>
      .st0 {
        fill: #fff;
      }
    </style>
  </defs>
  <path class="st0" d="M894.6,288.2v-54.9c0-59.2-26-106.7-116.5-106.7s-116.5,48.1-116.5,106.7v54.9c0,67.1,35.1,113.5,123.4,113.5s61.7-2.2,102.7-10.6v-66.9c-42.6,7.3-62.8,9-95.9,9s-48-8.2-48-39.5v-5.5h150.8ZM743.8,222.6c0-19,6.4-34.3,34.3-34.3s34.3,15.3,34.3,34.3v10.7h-68.6v-10.7Z"/>
  <path class="st0" d="M404.3,398.5v-162.8c0-75.5-20.7-105.3-115-105.3h-76.8l-6.9,68.6h70.3c43,0,46.2,8.2,46.2,36.2v11.8h-56.8c-55.8,0-87,19.5-87,74.3s26.7,80,77,80,46.3-2.8,77.6-20.1l3,17.3h68.5,0ZM322,331.9c-12.2,5.6-22.2,11.1-39,11.1s-22.7-7.8-22.7-22.8h0c0-15.1,7.6-18.3,25-18.3h36.7v30.1Z"/>
  <path class="st0" d="M123.3,398H41.1v-199H0v-68.6h41.1v-41.2C41.1,33.3,64.3,0,130.2,0h54.9v68.6h-34.3c-25.7,0-27.3,9.6-27.3,27.5v34.3c-.1,0,62,0,62,0l-7.3,68.6h-54.9v199h0Z"/>
  <path class="st0" d="M637.3,204c-42.6-7.3-54.9-8.9-75.4-8.9-36.9,0-48,8.1-48,39.4v59.2c0,31.3,11.1,39.5,48,39.5s32.8-1.6,75.4-9v66.9c-37.3,8.4-61.7,10.6-82.2,10.6-88.3,0-123.4-46.4-123.4-113.5v-48c0-67.1,35.1-113.6,123.4-113.6s44.9,2.2,82.2,10.6v66.9h0Z"/>
  <polygon class="st0" points="1958.8 398 1869.7 398 1794.4 272.2 1794.4 398 1712.2 398 1712.2 20.6 1794.4 6.9 1794.4 249.8 1869.7 130.4 1958.8 130.4 1876.6 260.7 1958.8 398"/>
  <path class="st0" d="M1568.9,126.7c-96.6,0-120.1,54.2-120.1,110.2v54c0,55.9,23.5,110.1,120.1,110.1s119.7-54.2,119.7-110.1h0v-54c0-55.9-23.1-110.2-119.7-110.2ZM1606.4,298.8c0,19.1-9.9,34.4-37.8,34.4s-37.6-15.3-37.6-34.4v-69.4c0-19,9.7-34.3,37.6-34.3h0c27.9,0,37.8,15.3,37.8,34.3v69.4Z"/>
  <path class="st0" d="M1305.7,126.7c-96.6,0-120.1,54.2-120.1,110.2v54c0,55.9,23.5,110.1,120.1,110.1s119.7-54.2,119.7-110.1h0v-54c0-55.9-23.1-110.2-119.7-110.2ZM1343.1,298.8c0,19.1-9.8,34.4-37.7,34.4s-37.7-15.3-37.7-34.4v-69.4c0-19,9.7-34.3,37.7-34.3s37.7,15.3,37.7,34.3v69.4Z"/>
  <path class="st0" d="M1161.9,289.4v-66.8c0-59.2-13.7-96.1-95.9-96.1s-43.9,3.4-61.7,10V6.9l-82.2,13.7v370.5c44.7,6.9,68.5,10.4,109,10.4,112.2,0,130.7-47.3,130.7-112.1h0ZM1079.7,290c0,25.7-5.5,44.2-45.8,44.2s-17.9,0-29.6-1.1v-126.7c12.3-5.6,24.3-11.1,41.1-11.1h0c28,0,34.3,15.3,34.3,34.3v60.5Z"/>
</svg>