<?xml version="1.0" encoding="UTF-8"?>
<svg id="Layer_1" xmlns="http://www.w3.org/2000/svg" version="1.1" viewBox="0 0 849.3 97.9">
  <!-- Generator: Adobe Illustrator 30.4.0, SVG Export Plug-In . SVG Version: 2.1.4 Build 226)  -->
  <defs>
    <style>
      .st0 {
        fill: #01251e;
      }
    </style>
  </defs>
  <g>
    <path class="st0" d="M11.6,39.4c0,4.3,0,8.6.6,13-3.1-.2-4.2-.3-6.2-.3s-3,0-6,.3c.5-4.3.6-8.6.6-13V13.2C.6,8.9.6,4.6,0,.2c3.1.2,4.2.3,6.2.3s3,0,6-.3c-.5,4.3-.6,8.6-.6,13v7.2h38.3v-7.2c0-4.4,0-8.6-.6-13,3.1.2,4.2.3,6.2.3s3,0,6-.3c-.5,4.3-.6,8.6-.6,13v26.2c0,4.3,0,8.6.6,13-3.1-.2-4.2-.3-6.2-.3s-3,0-6,.3c.5-4.3.6-8.6.6-13v-8.7H11.6v8.7h0Z"/>
    <path class="st0" d="M86.4,39.4c0,4.3,0,8.6.6,13-3.1-.2-4.2-.3-6.2-.3s-3,0-6,.3c.5-4.3.6-8.6.6-13V13.2c0-4.3,0-8.6-.6-13,3.1.2,4.2.3,6.2.3s3,0,6-.3c-.5,4.3-.6,8.6-.6,13v26.2h0Z"/>
    <path class="st0" d="M115.5,52.1c-3.8,0-11.4,0-15.2.3.4-3.6.5-10.7.5-14.3V14.5c0-3.6,0-10.7-.5-14.3,3.8.3,11.4.3,15.2.3h10.5c26.8,0,38,10.5,38,25.8s-11.2,25.8-38,25.8h-10.5ZM111.8,34.8l.2,6.8,11.1.2h2.9c19.4,0,26.7-5.8,26.7-15.5s-7.3-15.5-26.7-15.5h-2.9l-11.1.2-.2,6.8v16.9h0Z"/>
    <path class="st0" d="M191.7,52.1c-3.8,0-11.4,0-15.2.3.4-3.6.5-10.7.5-14.3V14.5c0-3.6,0-10.7-.5-14.3,3.8.3,11.4.3,15.2.3h10.5c26.8,0,38,10.5,38,25.8s-11.2,25.8-38,25.8h-10.5ZM188,34.8l.2,6.8,11.1.2h2.9c19.4,0,26.7-5.8,26.7-15.5s-7.3-15.5-26.7-15.5h-2.9l-11.1.2-.2,6.8v16.9h0Z"/>
    <path class="st0" d="M253.1,14.5c0-3.6,0-10.7-.5-14.3,3.8.3,11.4.3,15.2.3h27.5C299.6.5,305.3.3,309.6,0c-.4,4.2-.7,7.6-1,11.3-4.1-.2-9.1-.5-13.3-.5h-19.8l-11.1.2-.2,6.8v2.6h26.8c4.3,0,9.6,0,13.9-.3-.3,4.2-.4,7.1-.6,10.9-4.1-.2-9.1-.3-13.3-.3h-26.8v4l.2,6.8,11.1.2h21.4c4.3,0,10-.2,14.3-.5-.4,4.2-.7,7.6-1,11.4-4.1-.2-9.1-.5-13.3-.5h-29c-3.8,0-11.4,0-15.2.3.4-3.6.5-10.7.5-14.3V14.5h-.1Z"/>
    <path class="st0" d="M323.4,13.2c0-4.3,0-8.6-.6-13,3.1.2,4.2.3,6.2.3h5.5l39.6,37.7-.2-8.2V13.2c0-4.3,0-8.6-.6-13,3.1.2,4.2.3,6.2.3s3,0,6-.3c-.5,4.3-.6,8.6-.6,13v26.2c0,4.3,0,8.6.6,13-3.1-.2-4.2-.3-6.2-.3h-5.5l-39.6-37.7.2,8.2v16.8c0,4.3,0,8.6.6,13-3.1-.2-4.2-.3-6.2-.3s-3,0-6,.3c.5-4.3.6-8.6.6-13V13.2Z"/>
    <path class="st0" d="M494.4,13.4l-22,38.7c-4.1,0-8.2,0-12.3.3l-22.2-39c-2.5-4.5-4.9-8.7-7.9-13.2,2.3.2,4.6.3,6.9.3s4.9,0,7.2-.3c1.8,4.4,4,8.8,6.3,13.2l15.6,29,15.7-29c2.4-4.4,4.5-8.8,6.3-13.2,2.3.2,4.8.3,7.1.3s4.6,0,7-.3c-2.9,4.4-5.3,8.6-7.9,13.2h.2Z"/>
    <path class="st0" d="M550,41.8h-34.5l-.4.7c-1.9,3.2-3.5,6.6-4.6,9.9-2.4-.2-4.9-.3-7.2-.3s-4.8.2-7.1.3c3-4.3,5.5-8.6,8-13L526.5.5c4.2,0,8.4,0,12.6-.3l22.4,39.1c2.5,4.4,4.9,8.7,8,13-2.4-.2-4.9-.3-7.2-.3s-4.8.2-7.2.3c-1.2-3.3-2.8-6.8-4.6-9.9l-.4-.7h0ZM524.5,25.6l-3.2,5.9h23.2l-3.2-5.9-8.4-15.7-8.3,15.7h0Z"/>
    <path class="st0" d="M589,34.8l.2,6.8,11.1.2h17.8c4.3,0,10-.2,14.3-.5-.4,4.2-.7,7.6-1,11.3-4.1-.2-9.1-.5-13.3-.5h-25.5c-3.8,0-11.4,0-15.2.3.4-3.6.5-10.7.5-14.3V13.2c0-4.3,0-8.6-.6-13,3.1.2,4.2.3,6.2.3s3,0,6-.3c-.5,4.3-.6,8.6-.6,13v21.6h0Z"/>
    <path class="st0" d="M655.6,34.8l.2,6.8,11.1.2h17.8c4.3,0,10-.2,14.3-.5-.4,4.2-.7,7.6-1,11.3-4.1-.2-9.1-.5-13.3-.5h-25.5c-3.8,0-11.4,0-15.2.3.4-3.6.5-10.7.5-14.3V13.2c0-4.3,0-8.6-.6-13,3.1.2,4.2.3,6.2.3s3,0,6-.3c-.5,4.3-.6,8.6-.6,13v21.6h0Z"/>
    <path class="st0" d="M711.2,14.5c0-3.6,0-10.7-.5-14.3,3.8.3,11.4.3,15.2.3h27.5C757.7.5,763.4.3,767.7,0c-.4,4.2-.7,7.6-1,11.3-4.1-.2-9.1-.5-13.3-.5h-19.8l-11.1.2-.2,6.8v2.6h26.8c4.3,0,9.7,0,13.9-.3-.3,4.2-.4,7.1-.6,10.9-4.1-.2-9.1-.3-13.3-.3h-26.8v4l.2,6.8,11.1.2h21.4c4.3,0,10-.2,14.3-.5-.4,4.2-.7,7.6-1,11.4-4.1-.2-9.1-.5-13.3-.5h-29c-3.8,0-11.4,0-15.2.3.4-3.6.5-10.7.5-14.3V14.5h-.1Z"/>
    <path class="st0" d="M818,39.4c0,4.3,0,8.6.6,13-3.1-.2-4.2-.3-6.2-.3s-3,0-6,.3c.5-4.3.6-8.6.6-13v-2.7l-19.7-23.3c-3.8-4.5-7.6-8.8-11.6-13.2,2.6.2,5.2.3,7.8.3s5.2,0,7.8-.3c3,4.3,6.5,8.8,10,13.2l11.3,14.4,11.4-14.4c3.5-4.3,7-8.8,9.9-13.2,2.6.2,5.2.3,7.7.3s5.2,0,7.9-.3c-4,4.4-7.7,8.6-11.6,13.2l-19.7,23.3v2.7h-.2Z"/>
  </g>
  <g>
    <path class="st0" d="M72.4,86.1c0-7.3,5.9-11.8,13.6-11.8s9.2,2.4,11.2,5.4l-4.5,2.4c-1.3-2-3.5-3.2-6.7-3.2-4.8,0-8.1,3-8.1,7.3s3.4,7.3,8.3,7.3,4.7-.9,5.9-1.6v-2.7h-7.4v-4.3h12.7v9c-2.6,2.4-6.4,4.1-11.4,4.1-7.7,0-13.6-4.5-13.6-11.8h0Z"/>
    <path class="st0" d="M143.8,86.1c0-7.2,5.6-11.8,13.3-11.8s13.3,4.7,13.3,11.8-5.6,11.8-13.3,11.8-13.3-4.7-13.3-11.8ZM157.1,93.4c4.7,0,7.8-3,7.8-7.3s-3.1-7.3-7.8-7.3-7.8,3-7.8,7.3,3.1,7.3,7.8,7.3Z"/>
    <path class="st0" d="M217.8,74.6h5.4v18.3h11.8v4.6h-17.2s0-22.9,0-22.9Z"/>
    <path class="st0" d="M282.2,74.6h19.2v4.4h-13.8v4.7h13.4v4.3h-13.4v9.5h-5.4v-22.9h0Z"/>
    <path class="st0" d="M400.9,86.1c0-7.2,5.8-11.8,13.5-11.8s9.4,2.6,11.3,5.7l-4.6,2.4c-1.3-2.2-3.5-3.6-6.7-3.6-4.7,0-8,3-8,7.3s3.3,7.3,8,7.3,5.5-1.4,6.6-3.4l4.7,2.4c-1.9,2.9-5.5,5.6-11.3,5.6s-13.5-4.6-13.5-11.8h0Z"/>
    <path class="st0" d="M471.2,86.1c0-7.2,5.6-11.8,13.3-11.8s13.3,4.7,13.3,11.8-5.6,11.8-13.3,11.8-13.3-4.7-13.3-11.8ZM484.5,93.4c4.7,0,7.8-3,7.8-7.3s-3.1-7.3-7.8-7.3-7.8,3-7.8,7.3,3,7.3,7.8,7.3Z"/>
    <path class="st0" d="M545.2,87.7v-13h5.3v12.9c0,3.5,2.2,5.7,6.2,5.7s6.1-2.2,6.1-5.7v-12.9h5.4v13c0,6.2-4.1,10.3-11.5,10.3s-11.5-4.1-11.5-10.3h0Z"/>
    <path class="st0" d="M616.8,74.6h13.6c5.1,0,8.1,3,8.1,7.4s-2.2,6.1-5.5,6.9l5.7,8.5h-6.3l-5.1-8.1h-5.2v8.1h-5.3v-22.9h0ZM629.8,85c2,0,3.4-1.1,3.4-3s-1.3-2.9-3.4-2.9h-7.6v5.9h7.6Z"/>
    <path class="st0" d="M684.5,94l2.8-3.8c1.9,1.8,5.1,3.3,8.7,3.3s4.8-1.1,4.8-2.5-2.2-2.2-5.6-2.7c-4.6-.7-9.9-1.7-9.9-7s3.9-7,10.2-7,7.7,1.2,10.3,3.4l-2.8,3.7c-2-1.7-4.9-2.8-7.9-2.8s-4.2.9-4.2,2.2,2,2,5.6,2.6c4.6.8,9.9,1.8,9.9,7s-3.7,7.5-10.5,7.5-9-1.8-11.3-3.9h0Z"/>
    <path class="st0" d="M753.5,74.6h19.3v4.4h-13.9v4.7h13.5v4.3h-13.5v5h13.9v4.4h-19.3v-22.9h0Z"/>
  </g>
</svg>