<?xml version="1.0" encoding="UTF-8"?>
<svg id="Layer_1" xmlns="http://www.w3.org/2000/svg" version="1.1" viewBox="0 0 590 404">
  <!-- Generator: Adobe Illustrator 30.1.0, SVG Export Plug-In . SVG Version: 2.1.1 Build 136)  -->
  <defs>
    <style>
      .st0 {
        fill: #b7b7b7;
      }
    </style>
  </defs>
  <path class="st0" d="M0,0h1v1H0V0Z"/>
  <path class="st0" d="M0,31h1v1H0v-1Z"/>
  <path class="st0" d="M0,62h1v1H0v-1Z"/>
  <path class="st0" d="M0,93h1v1H0v-1Z"/>
  <path class="st0" d="M0,124h1v1H0v-1Z"/>
  <path class="st0" d="M0,155h1v1H0v-1Z"/>
  <path class="st0" d="M0,186h1v1H0v-1Z"/>
  <path class="st0" d="M0,217h1v1H0v-1Z"/>
  <path class="st0" d="M0,248h1v1H0v-1Z"/>
  <path class="st0" d="M0,279h1v1H0v-1Z"/>
  <path class="st0" d="M0,310h1v1H0v-1Z"/>
  <path class="st0" d="M0,341h1v1H0v-1Z"/>
  <path class="st0" d="M0,372h1v1H0v-1Z"/>
  <path class="st0" d="M0,403h1v1H0v-1Z"/>
  <path class="st0" d="M31,0h1v1h-1V0Z"/>
  <path class="st0" d="M31,31h1v1h-1v-1Z"/>
  <path class="st0" d="M31,62h1v1h-1v-1Z"/>
  <path class="st0" d="M31,93h1v1h-1v-1Z"/>
  <path class="st0" d="M31,124h1v1h-1v-1Z"/>
  <path class="st0" d="M31,155h1v1h-1v-1Z"/>
  <path class="st0" d="M31,186h1v1h-1v-1Z"/>
  <path class="st0" d="M31,217h1v1h-1v-1Z"/>
  <path class="st0" d="M31,248h1v1h-1v-1Z"/>
  <path class="st0" d="M31,279h1v1h-1v-1Z"/>
  <path class="st0" d="M31,310h1v1h-1v-1Z"/>
  <path class="st0" d="M31,341h1v1h-1v-1Z"/>
  <path class="st0" d="M31,372h1v1h-1v-1Z"/>
  <path class="st0" d="M31,403h1v1h-1v-1Z"/>
  <path class="st0" d="M62,0h1v1h-1V0Z"/>
  <path class="st0" d="M62,31h1v1h-1v-1Z"/>
  <path class="st0" d="M62,62h1v1h-1v-1Z"/>
  <path class="st0" d="M62,93h1v1h-1v-1Z"/>
  <path class="st0" d="M62,124h1v1h-1v-1Z"/>
  <path class="st0" d="M62,155h1v1h-1v-1Z"/>
  <path class="st0" d="M62,186h1v1h-1v-1Z"/>
  <path class="st0" d="M62,217h1v1h-1v-1Z"/>
  <path class="st0" d="M62,248h1v1h-1v-1Z"/>
  <path class="st0" d="M62,279h1v1h-1v-1Z"/>
  <path class="st0" d="M62,310h1v1h-1v-1Z"/>
  <path class="st0" d="M62,341h1v1h-1v-1Z"/>
  <path class="st0" d="M62,372h1v1h-1v-1Z"/>
  <path class="st0" d="M62,403h1v1h-1v-1Z"/>
  <path class="st0" d="M93,0h1v1h-1V0Z"/>
  <path class="st0" d="M93,31h1v1h-1v-1Z"/>
  <path class="st0" d="M93,62h1v1h-1v-1Z"/>
  <path class="st0" d="M93,93h1v1h-1v-1Z"/>
  <path class="st0" d="M93,124h1v1h-1v-1Z"/>
  <path class="st0" d="M93,155h1v1h-1v-1Z"/>
  <path class="st0" d="M93,186h1v1h-1v-1Z"/>
  <path class="st0" d="M93,217h1v1h-1v-1Z"/>
  <path class="st0" d="M93,248h1v1h-1v-1Z"/>
  <path class="st0" d="M93,279h1v1h-1v-1Z"/>
  <path class="st0" d="M93,310h1v1h-1v-1Z"/>
  <path class="st0" d="M93,341h1v1h-1v-1Z"/>
  <path class="st0" d="M93,372h1v1h-1v-1Z"/>
  <path class="st0" d="M93,403h1v1h-1v-1Z"/>
  <path class="st0" d="M124,0h1v1h-1V0Z"/>
  <path class="st0" d="M124,31h1v1h-1v-1Z"/>
  <path class="st0" d="M124,62h1v1h-1v-1Z"/>
  <path class="st0" d="M124,93h1v1h-1v-1Z"/>
  <path class="st0" d="M124,124h1v1h-1v-1Z"/>
  <path class="st0" d="M124,155h1v1h-1v-1Z"/>
  <path class="st0" d="M124,186h1v1h-1v-1Z"/>
  <path class="st0" d="M124,217h1v1h-1v-1Z"/>
  <path class="st0" d="M124,248h1v1h-1v-1Z"/>
  <path class="st0" d="M124,279h1v1h-1v-1Z"/>
  <path class="st0" d="M124,310h1v1h-1v-1Z"/>
  <path class="st0" d="M124,341h1v1h-1v-1Z"/>
  <path class="st0" d="M124,372h1v1h-1v-1Z"/>
  <path class="st0" d="M124,403h1v1h-1v-1Z"/>
  <path class="st0" d="M155,0h1v1h-1V0Z"/>
  <path class="st0" d="M155,31h1v1h-1v-1Z"/>
  <path class="st0" d="M155,62h1v1h-1v-1Z"/>
  <path class="st0" d="M155,93h1v1h-1v-1Z"/>
  <path class="st0" d="M155,124h1v1h-1v-1Z"/>
  <path class="st0" d="M155,155h1v1h-1v-1Z"/>
  <path class="st0" d="M155,186h1v1h-1v-1Z"/>
  <path class="st0" d="M155,217h1v1h-1v-1Z"/>
  <path class="st0" d="M155,248h1v1h-1v-1Z"/>
  <path class="st0" d="M155,279h1v1h-1v-1Z"/>
  <path class="st0" d="M155,310h1v1h-1v-1Z"/>
  <path class="st0" d="M155,341h1v1h-1v-1Z"/>
  <path class="st0" d="M155,372h1v1h-1v-1Z"/>
  <path class="st0" d="M155,403h1v1h-1v-1Z"/>
  <path class="st0" d="M186,0h1v1h-1V0Z"/>
  <path class="st0" d="M186,31h1v1h-1v-1Z"/>
  <path class="st0" d="M186,62h1v1h-1v-1Z"/>
  <path class="st0" d="M186,93h1v1h-1v-1Z"/>
  <path class="st0" d="M186,124h1v1h-1v-1Z"/>
  <path class="st0" d="M186,155h1v1h-1v-1Z"/>
  <path class="st0" d="M186,186h1v1h-1v-1Z"/>
  <path class="st0" d="M186,217h1v1h-1v-1Z"/>
  <path class="st0" d="M186,248h1v1h-1v-1Z"/>
  <path class="st0" d="M186,279h1v1h-1v-1Z"/>
  <path class="st0" d="M186,310h1v1h-1v-1Z"/>
  <path class="st0" d="M186,341h1v1h-1v-1Z"/>
  <path class="st0" d="M186,372h1v1h-1v-1Z"/>
  <path class="st0" d="M186,403h1v1h-1v-1Z"/>
  <path class="st0" d="M217,0h1v1h-1V0Z"/>
  <path class="st0" d="M217,31h1v1h-1v-1Z"/>
  <path class="st0" d="M217,62h1v1h-1v-1Z"/>
  <path class="st0" d="M217,93h1v1h-1v-1Z"/>
  <path class="st0" d="M217,124h1v1h-1v-1Z"/>
  <path class="st0" d="M217,155h1v1h-1v-1Z"/>
  <path class="st0" d="M217,186h1v1h-1v-1Z"/>
  <path class="st0" d="M217,217h1v1h-1v-1Z"/>
  <path class="st0" d="M217,248h1v1h-1v-1Z"/>
  <path class="st0" d="M217,279h1v1h-1v-1Z"/>
  <path class="st0" d="M217,310h1v1h-1v-1Z"/>
  <path class="st0" d="M217,341h1v1h-1v-1Z"/>
  <path class="st0" d="M217,372h1v1h-1v-1Z"/>
  <path class="st0" d="M217,403h1v1h-1v-1Z"/>
  <path class="st0" d="M248,0h1v1h-1V0Z"/>
  <path class="st0" d="M248,31h1v1h-1v-1Z"/>
  <path class="st0" d="M248,62h1v1h-1v-1Z"/>
  <path class="st0" d="M248,93h1v1h-1v-1Z"/>
  <path class="st0" d="M248,124h1v1h-1v-1Z"/>
  <path class="st0" d="M248,155h1v1h-1v-1Z"/>
  <path class="st0" d="M248,186h1v1h-1v-1Z"/>
  <path class="st0" d="M248,217h1v1h-1v-1Z"/>
  <path class="st0" d="M248,248h1v1h-1v-1Z"/>
  <path class="st0" d="M248,279h1v1h-1v-1Z"/>
  <path class="st0" d="M248,310h1v1h-1v-1Z"/>
  <path class="st0" d="M248,341h1v1h-1v-1Z"/>
  <path class="st0" d="M248,372h1v1h-1v-1Z"/>
  <path class="st0" d="M248,403h1v1h-1v-1Z"/>
  <path class="st0" d="M279,0h1v1h-1V0Z"/>
  <path class="st0" d="M279,31h1v1h-1v-1Z"/>
  <path class="st0" d="M279,62h1v1h-1v-1Z"/>
  <path class="st0" d="M279,93h1v1h-1v-1Z"/>
  <path class="st0" d="M279,124h1v1h-1v-1Z"/>
  <path class="st0" d="M279,155h1v1h-1v-1Z"/>
  <path class="st0" d="M279,186h1v1h-1v-1Z"/>
  <path class="st0" d="M279,217h1v1h-1v-1Z"/>
  <path class="st0" d="M279,248h1v1h-1v-1Z"/>
  <path class="st0" d="M279,279h1v1h-1v-1Z"/>
  <path class="st0" d="M279,310h1v1h-1v-1Z"/>
  <path class="st0" d="M279,341h1v1h-1v-1Z"/>
  <path class="st0" d="M279,372h1v1h-1v-1Z"/>
  <path class="st0" d="M279,403h1v1h-1v-1Z"/>
  <path class="st0" d="M310,0h1v1h-1V0Z"/>
  <path class="st0" d="M310,31h1v1h-1v-1Z"/>
  <path class="st0" d="M310,62h1v1h-1v-1Z"/>
  <path class="st0" d="M310,93h1v1h-1v-1Z"/>
  <path class="st0" d="M310,124h1v1h-1v-1Z"/>
  <path class="st0" d="M310,155h1v1h-1v-1Z"/>
  <path class="st0" d="M310,186h1v1h-1v-1Z"/>
  <path class="st0" d="M310,217h1v1h-1v-1Z"/>
  <path class="st0" d="M310,248h1v1h-1v-1Z"/>
  <path class="st0" d="M310,279h1v1h-1v-1Z"/>
  <path class="st0" d="M310,310h1v1h-1v-1Z"/>
  <path class="st0" d="M310,341h1v1h-1v-1Z"/>
  <path class="st0" d="M310,372h1v1h-1v-1Z"/>
  <path class="st0" d="M310,403h1v1h-1v-1Z"/>
  <path class="st0" d="M341,0h1v1h-1V0Z"/>
  <path class="st0" d="M341,31h1v1h-1v-1Z"/>
  <path class="st0" d="M341,62h1v1h-1v-1Z"/>
  <path class="st0" d="M341,93h1v1h-1v-1Z"/>
  <path class="st0" d="M341,124h1v1h-1v-1Z"/>
  <path class="st0" d="M341,155h1v1h-1v-1Z"/>
  <path class="st0" d="M341,186h1v1h-1v-1Z"/>
  <path class="st0" d="M341,217h1v1h-1v-1Z"/>
  <path class="st0" d="M341,248h1v1h-1v-1Z"/>
  <path class="st0" d="M341,279h1v1h-1v-1Z"/>
  <path class="st0" d="M341,310h1v1h-1v-1Z"/>
  <path class="st0" d="M341,341h1v1h-1v-1Z"/>
  <path class="st0" d="M341,372h1v1h-1v-1Z"/>
  <path class="st0" d="M341,403h1v1h-1v-1Z"/>
  <path class="st0" d="M372,0h1v1h-1V0Z"/>
  <path class="st0" d="M372,31h1v1h-1v-1Z"/>
  <path class="st0" d="M372,62h1v1h-1v-1Z"/>
  <path class="st0" d="M372,93h1v1h-1v-1Z"/>
  <path class="st0" d="M372,124h1v1h-1v-1Z"/>
  <path class="st0" d="M372,155h1v1h-1v-1Z"/>
  <path class="st0" d="M372,186h1v1h-1v-1Z"/>
  <path class="st0" d="M372,217h1v1h-1v-1Z"/>
  <path class="st0" d="M372,248h1v1h-1v-1Z"/>
  <path class="st0" d="M372,279h1v1h-1v-1Z"/>
  <path class="st0" d="M372,310h1v1h-1v-1Z"/>
  <path class="st0" d="M372,341h1v1h-1v-1Z"/>
  <path class="st0" d="M372,372h1v1h-1v-1Z"/>
  <path class="st0" d="M372,403h1v1h-1v-1Z"/>
  <path class="st0" d="M403,0h1v1h-1V0Z"/>
  <path class="st0" d="M403,31h1v1h-1v-1Z"/>
  <path class="st0" d="M403,62h1v1h-1v-1Z"/>
  <path class="st0" d="M403,93h1v1h-1v-1Z"/>
  <path class="st0" d="M403,124h1v1h-1v-1Z"/>
  <path class="st0" d="M403,155h1v1h-1v-1Z"/>
  <path class="st0" d="M403,186h1v1h-1v-1Z"/>
  <path class="st0" d="M403,217h1v1h-1v-1Z"/>
  <path class="st0" d="M403,248h1v1h-1v-1Z"/>
  <path class="st0" d="M403,279h1v1h-1v-1Z"/>
  <path class="st0" d="M403,310h1v1h-1v-1Z"/>
  <path class="st0" d="M403,341h1v1h-1v-1Z"/>
  <path class="st0" d="M403,372h1v1h-1v-1Z"/>
  <path class="st0" d="M403,403h1v1h-1v-1Z"/>
  <path class="st0" d="M434,0h1v1h-1V0Z"/>
  <path class="st0" d="M434,31h1v1h-1v-1Z"/>
  <path class="st0" d="M434,62h1v1h-1v-1Z"/>
  <path class="st0" d="M434,93h1v1h-1v-1Z"/>
  <path class="st0" d="M434,124h1v1h-1v-1Z"/>
  <path class="st0" d="M434,155h1v1h-1v-1Z"/>
  <path class="st0" d="M434,186h1v1h-1v-1Z"/>
  <path class="st0" d="M434,217h1v1h-1v-1Z"/>
  <path class="st0" d="M434,248h1v1h-1v-1Z"/>
  <path class="st0" d="M434,279h1v1h-1v-1Z"/>
  <path class="st0" d="M434,310h1v1h-1v-1Z"/>
  <path class="st0" d="M434,341h1v1h-1v-1Z"/>
  <path class="st0" d="M434,372h1v1h-1v-1Z"/>
  <path class="st0" d="M434,403h1v1h-1v-1Z"/>
  <path class="st0" d="M465,0h1v1h-1V0Z"/>
  <path class="st0" d="M465,31h1v1h-1v-1Z"/>
  <path class="st0" d="M465,62h1v1h-1v-1Z"/>
  <path class="st0" d="M465,93h1v1h-1v-1Z"/>
  <path class="st0" d="M465,124h1v1h-1v-1Z"/>
  <path class="st0" d="M465,155h1v1h-1v-1Z"/>
  <path class="st0" d="M465,186h1v1h-1v-1Z"/>
  <path class="st0" d="M465,217h1v1h-1v-1Z"/>
  <path class="st0" d="M465,248h1v1h-1v-1Z"/>
  <path class="st0" d="M465,279h1v1h-1v-1Z"/>
  <path class="st0" d="M465,310h1v1h-1v-1Z"/>
  <path class="st0" d="M465,341h1v1h-1v-1Z"/>
  <path class="st0" d="M465,372h1v1h-1v-1Z"/>
  <path class="st0" d="M465,403h1v1h-1v-1Z"/>
  <path class="st0" d="M496,0h1v1h-1V0Z"/>
  <path class="st0" d="M496,31h1v1h-1v-1Z"/>
  <path class="st0" d="M496,62h1v1h-1v-1Z"/>
  <path class="st0" d="M496,93h1v1h-1v-1Z"/>
  <path class="st0" d="M496,124h1v1h-1v-1Z"/>
  <path class="st0" d="M496,155h1v1h-1v-1Z"/>
  <path class="st0" d="M496,186h1v1h-1v-1Z"/>
  <path class="st0" d="M496,217h1v1h-1v-1Z"/>
  <path class="st0" d="M496,248h1v1h-1v-1Z"/>
  <path class="st0" d="M496,279h1v1h-1v-1Z"/>
  <path class="st0" d="M496,310h1v1h-1v-1Z"/>
  <path class="st0" d="M496,341h1v1h-1v-1Z"/>
  <path class="st0" d="M496,372h1v1h-1v-1Z"/>
  <path class="st0" d="M496,403h1v1h-1v-1Z"/>
  <path class="st0" d="M527,0h1v1h-1V0Z"/>
  <path class="st0" d="M527,31h1v1h-1v-1Z"/>
  <path class="st0" d="M527,62h1v1h-1v-1Z"/>
  <path class="st0" d="M527,93h1v1h-1v-1Z"/>
  <path class="st0" d="M527,124h1v1h-1v-1Z"/>
  <path class="st0" d="M527,155h1v1h-1v-1Z"/>
  <path class="st0" d="M527,186h1v1h-1v-1Z"/>
  <path class="st0" d="M527,217h1v1h-1v-1Z"/>
  <path class="st0" d="M527,248h1v1h-1v-1Z"/>
  <path class="st0" d="M527,279h1v1h-1v-1Z"/>
  <path class="st0" d="M527,310h1v1h-1v-1Z"/>
  <path class="st0" d="M527,341h1v1h-1v-1Z"/>
  <path class="st0" d="M527,372h1v1h-1v-1Z"/>
  <path class="st0" d="M527,403h1v1h-1v-1Z"/>
  <path class="st0" d="M558,0h1v1h-1V0Z"/>
  <path class="st0" d="M558,31h1v1h-1v-1Z"/>
  <path class="st0" d="M558,62h1v1h-1v-1Z"/>
  <path class="st0" d="M558,93h1v1h-1v-1Z"/>
  <path class="st0" d="M558,124h1v1h-1v-1Z"/>
  <path class="st0" d="M558,155h1v1h-1v-1Z"/>
  <path class="st0" d="M558,186h1v1h-1v-1Z"/>
  <path class="st0" d="M558,217h1v1h-1v-1Z"/>
  <path class="st0" d="M558,248h1v1h-1v-1Z"/>
  <path class="st0" d="M558,279h1v1h-1v-1Z"/>
  <path class="st0" d="M558,310h1v1h-1v-1Z"/>
  <path class="st0" d="M558,341h1v1h-1v-1Z"/>
  <path class="st0" d="M558,372h1v1h-1v-1Z"/>
  <path class="st0" d="M558,403h1v1h-1v-1Z"/>
  <path class="st0" d="M589,0h1v1h-1V0Z"/>
  <path class="st0" d="M589,31h1v1h-1v-1Z"/>
  <path class="st0" d="M589,62h1v1h-1v-1Z"/>
  <path class="st0" d="M589,93h1v1h-1v-1Z"/>
  <path class="st0" d="M589,124h1v1h-1v-1Z"/>
  <path class="st0" d="M589,155h1v1h-1v-1Z"/>
  <path class="st0" d="M589,186h1v1h-1v-1Z"/>
  <path class="st0" d="M589,217h1v1h-1v-1Z"/>
  <path class="st0" d="M589,248h1v1h-1v-1Z"/>
  <path class="st0" d="M589,279h1v1h-1v-1Z"/>
  <path class="st0" d="M589,310h1v1h-1v-1Z"/>
  <path class="st0" d="M589,341h1v1h-1v-1Z"/>
  <path class="st0" d="M589,372h1v1h-1v-1Z"/>
  <path class="st0" d="M589,403h1v1h-1v-1Z"/>
</svg>