<?xml version="1.0" encoding="UTF-8"?>
<svg id="Layer_1" data-name="Layer 1" xmlns="http://www.w3.org/2000/svg" viewBox="0 0 474.57 474.59">
  <defs>
    <style>
      .cls-1 {
        fill: #f2f2f2;
      }
    </style>
  </defs>
  <path d="M195.58,0c3.46,1.73,6.56,3.42,9,6.92l56.36,80.5c24.93-40.42,60.93-59.4,108.36-47.94l22.77-22.62c6.55-6.51,14.97-4.63,21.05,1.04,10.61,9.91,16,23.37,16.93,37.49,14.54.86,27.9,6.63,37.72,17.17,6.23,6.69,6.69,15.07-.04,21.77l-28.35,28.23c5.24,42.68-14.5,78.97-38.49,112.79,48.45,22.19,77.4,71.56,73.31,123.71-5.42,69.04-65.85,120.56-134.66,115.14-36.44-2.87-69.64-22.08-90.29-49.93-23.99-32.36-30.69-71.88-19.93-110.14-37.27-4.09-68.39-14.7-101.99-30.51l-67.31,36.63c-9.99,5.44-21.03,5.7-30.43-.74-8.43-5.77-13.66-16.42-11.71-27.31l3.2-17.93c-12.75-9.77-15.01-8.57-21.07-24v-10.2c3-10.92,10.27-20.08,22.13-22.36l42.63-13.11c19.48-5.99,38.59-10.58,59.04-14.39-41.57-33.35-52.31-90.97-26.31-136.52,3.97-6.95,12.27-9.36,19.33-5.39l25.56,14.65c6.75-25.86,24.33-50.42,46.69-62.95h6.49ZM244.43,121.91c1.24-1.45,3.02-5.27,1.99-6.73l-56.66-80.85c-12.18,12.34-19.65,27.41-21.78,43.5l76.44,44.09ZM44.76,256.95c4.04,2.93,6.13,8.05,5.32,12.8l-4.5,26.61,73.6-40.01c4.78-2.6,9.42-3.05,14.35-.62,33.52,16.55,69.4,29.27,107.49,31.3,26.66-45.81,78.8-70.42,131.42-60.58,22.38-28.81,45.68-66.3,38.69-103.63-1.08-5.76-.56-10.75,3.64-14.97l22.67-22.73c-6.78-3.03-14.11-1.58-20.03,2.42s-13.63,3.53-18.59-1.8-4.84-12.26-.61-18.44c3.84-5.6,4.87-12.76,2.08-19.35l-16.76,16.68c-9.32,9.27-17.04.64-36.81-.6-46.36-2.91-69.53,44.36-80.21,82.04-1.18,4.17-4.27,7.86-7.22,9.19-4.54,2.04-9.02,2.13-13.2-.29L115.96,79.89c-13.34,36.93,2.79,76.67,36.34,95.95l24.05,13.82c5.35,3.58,7.58,9.62,5.66,15.87-1.47,4.82-6.14,9.69-12.39,9.57-37.73-.7-68.93,7.42-104.58,18.47l-36.76,11.4,16.48,11.97ZM340.18,252.59c-54.29,5.22-93.06,53.79-87.55,106.83s53.02,91.99,106.07,86.89c53.33-5.13,92.75-52.74,87.62-106.16-5.07-52.75-52.1-92.76-106.13-87.56Z"/>
  <path class="cls-1" d="M44.76,256.95l-16.48-11.97,36.76-11.4c35.65-11.05,66.85-19.17,104.58-18.47,6.25.12,10.91-4.75,12.39-9.57,1.91-6.26-.31-12.29-5.66-15.87l-24.05-13.82c-33.55-19.28-49.68-59.02-36.34-95.95l130.12,75.09c4.19,2.42,8.66,2.33,13.2.29,2.95-1.33,6.04-5.02,7.22-9.19,10.69-37.68,33.85-84.95,80.21-82.04,19.77,1.24,27.49,9.87,36.81.6l16.76-16.68c2.79,6.58,1.76,13.74-2.08,19.35-4.23,6.17-4.19,13.27.61,18.44s12.39,5.99,18.59,1.8,13.25-5.45,20.03-2.42l-22.67,22.73c-4.21,4.22-4.72,9.21-3.64,14.97,6.99,37.33-16.31,74.82-38.69,103.63-52.62-9.84-104.76,14.77-131.42,60.58-38.09-2.03-73.96-14.74-107.49-31.3-4.93-2.44-9.57-1.98-14.35.62l-73.6,40.01,4.5-26.61c.8-4.75-1.29-9.87-5.32-12.8ZM339.26,88.64c-8.12,2.31-11.86,10.61-9.44,17.69,2.38,6.99,9.79,11,16.87,8.98s11.73-9.72,9.62-17.09c-1.99-6.93-9.22-11.8-17.04-9.57Z"/>
  <path class="cls-1" d="M244.43,121.91l-76.44-44.09c2.13-16.09,9.6-31.16,21.78-43.5l56.66,80.85c1.03,1.46-.76,5.28-1.99,6.73Z"/>
  <path d="M339.26,88.64c7.82-2.22,15.05,2.64,17.04,9.57,2.11,7.37-2.29,15-9.62,17.09s-14.49-1.99-16.87-8.98c-2.41-7.08,1.32-15.38,9.44-17.69Z"/>
  <path d="M387.09,363.25l-37.72.08c-7.54.02-13.82-6.24-13.82-13.84v-55.68c0-7.83,6.39-13.6,13.44-13.83,7.5-.24,14.31,5.72,14.31,13.81l.05,41.73,23.22.07c7.73.02,13.55,6.24,13.79,13.43.23,6.81-5.1,14.22-13.28,14.24Z"/>
</svg>