<?xml version="1.0" encoding="UTF-8"?>
<svg id="Layer_1" data-name="Layer 1" xmlns="http://www.w3.org/2000/svg" viewBox="0 0 389 365.02">
  <defs>
    <style>
      .cls-1 {
        fill: #e0f9a2;
      }
    </style>
  </defs>
  <path class="cls-1" d="M289.8,44.12c-23.9-12.7-50.7-20.1-82.2-22.7-32.1-2.7-59.9,6.4-85.1,27.8-2,1.8-5,3-8.8,3.8-2.7.6-5.4.9-8,1.2-3,.3-5.8.7-8.6,1.3-31.2,6.9-49.6,28.1-51.6,59.8-.7,9.9,0,20.2.8,29.9.9,10.8,2.2,21.8,3.4,32.5.1,1.2.3,2.5.4,3.7v-.2c1.9-6.5,3.8-13.1,5.6-19.7,1.7-6,5.7-8.3,9.5-9.7l3.1-1.2c8.3-3.2,16.9-6.4,24.6-10.8,18.3-10.4,27.4-24,27.8-41.6.2-4.7,3.8-8.5,9-9.3.6-.1-2.5-.1,1.6-.1s7.8,2.5,9.4,6.7c2.2,5.8,5.9,10.8,10.8,15,4.3,3.7,9.6,8,15.2,11.4,22.5,13.6,47.9,19.4,67.5,23,25.2,4.6,53,6.9,85,6.9h.2c9,0,11.7,2.1,14.2,10.9,1.8,6.4,3.7,12.8,5.5,19.2l.9-9.9c1.4-14.8,2.8-30.2,3.9-45.3,1.1-15.4-2.5-30.1-10.7-43.7-9.5-15.7-23.7-28.5-43.4-38.9Z"/>
  <polygon points="34.2 230.22 34.2 230.12 34.19 230.11 34.2 230.22"/>
  <path d="M387.6,201.02c-3.3-13.9-11.5-23.9-24.4-29.5-1.9-.8-2-1.1-1.7-3.3v-1.4c1.4-11.8,2.6-24,3.4-36,2.3-36-11.7-66.2-41.6-89.7-22.1-17.4-49.1-29.2-82.6-36.3C224.9,1.52,209.2-.18,194,.02c-29.4.3-56,10.1-81.2,29.9-1.6,1.2-3.9,2.2-6.1,2.5-17.1,2.4-31.3,7.1-43.3,14.3-22.6,13.6-35.6,34.7-38.6,62.6-1.9,17.2,0,34.5,1.9,51.1.3,2.4.5,4.9.8,7.3.3,2.6,0,2.9-2,3.8-13.4,5.9-21.7,16.3-24.7,31,0,.3-.2.6-.3,1,0,.2-.2.5-.3.7v.4C0,204.72,0,215.92,0,215.92v.3c.3.7.5,1.4.7,2.1.4,1.6.8,3.2,1.3,4.7,5.3,16.6,19.8,28.1,36.9,29.4.7,0,1.2.6,1.5,1.7,0,.2.2.4.2.7,13,37,36.3,66.1,69.2,86.4,25.5,15.7,54.5,23.8,84,23.8s23.6-1.3,35.3-3.9c41.3-9.1,76.8-33.2,100-68,8.9-13.3,15.2-26.1,19.3-39,.4-1.2.5-1.4,2.3-1.6,19.3-1.7,35.4-17.7,37.5-37.1,0-.8.2-1.6.4-2.5,0-.4.2-.9.2-1.3v-3.2h.2c-.1-.8-.3-1.5-.4-2.3-.3-1.7-.6-3.4-1-5.1ZM34.2,230.22v-.1c-6.11-2.2-11.6-8.8-12.8-15.9-1.4-8.6,2.2-16.9,9.3-21.4l3.49,37.3s0,0,0,0v.1ZM331.6,237.22c-17,58.5-55.3,93.6-113.7,104.4-34.9,6.5-70.8-1-101.1-20.9-30.1-19.9-51.3-49.9-59.5-84.6-.2-1.1-.2-2.5.2-3.8l-.1.1c2.3-8.3,4.7-16.7,7.1-25,3.2-11.3,6.6-22.9,9.8-34.4.5-1.8,1.1-2.4,2.9-3,20-6.5,34.5-15.1,45.8-27,3.9-4.2,7.3-9,10.5-13.6.9-1.4,1.9-2.7,2.9-4.1,27.1,24.8,61.3,34,94.2,40.2,23.7,4.5,49.6,6.7,81.7,7.2,2.1,0,2.4.3,3,2.2,2.8,10.1,5.7,20.4,8.6,30.2,2.5,8.7,5.1,17.8,7.6,26.6.5,1.9.6,4,.1,5.5ZM343.9,126.72c-1.1,15.1-2.5,30.5-3.9,45.3l-.9,9.9c-1.8-6.4-3.7-12.8-5.5-19.2-2.5-8.8-5.2-10.9-14.2-10.9h-.2c-32,0-59.8-2.3-85-6.9-19.6-3.6-45-9.4-67.5-23-5.6-3.4-10.9-7.7-15.2-11.4-4.9-4.2-8.6-9.2-10.8-15-1.6-4.2-5.3-6.7-9.4-6.7s-1,0-1.6.1c-5.2.8-8.8,4.6-9,9.3-.4,17.6-9.5,31.2-27.8,41.6-7.7,4.4-16.3,7.6-24.6,10.8l-3.1,1.2c-3.8,1.4-7.8,3.7-9.5,9.7-1.8,6.6-3.7,13.2-5.6,19.7v.2c-.1-1.2-.3-2.5-.4-3.7-1.2-10.7-2.5-21.7-3.4-32.5-.8-9.7-1.5-20-.8-29.9,2-31.7,20.4-52.9,51.6-59.8,2.8-.6,5.6-1,8.6-1.3,2.6-.3,5.3-.6,8-1.2,3.8-.8,6.8-2,8.8-3.8,25.2-21.4,53-30.5,85.1-27.8,31.5,2.6,58.3,10,82.2,22.7,19.7,10.4,33.9,23.2,43.4,38.9,8.2,13.6,11.8,28.3,10.7,43.7ZM367.5,213.52c-1,7.3-6.2,13.9-12.6,16.4l3.5-37.1c6.7,4.5,10.2,12.3,9.1,20.7Z"/>
  <path d="M226,267.32c-19.6,17.3-43.9,17.3-63.5,0-1.8-1.6-3.9-2.7-5.9-3.2-4.5-1.1-9.1,1.1-11.2,5.3v.2c-2.2,4.3-1.3,9.2,2.5,12.8,12.6,12.1,28.2,18.5,46.3,18.9h.1c17.9-.4,33.3-6.6,45.8-18.4,2.6-2.5,4.1-5.5,4.2-8.6,0-2.7-.9-5.2-2.8-7.2-4.1-4.4-10.4-4.3-15.5.2Z"/>
  <path d="M148.6,226.32c3.9,0,7.5-2.2,9.4-5.8,2.2-4.4,1.3-9.4-2.3-13-7.8-7.5-17.3-11.4-28.3-11.6h-.3c-10.9.2-20.4,4.1-28,11.3-2.4,2.3-3.8,5.2-3.9,8.2,0,2.8,1,5.5,2.9,7.5,4.1,4.4,10.7,4.4,15.5.2h-.2c8.6-7.5,18.8-7.6,27.3,0,1.6,1.4,3.5,2.4,5.4,2.9.8.2,1.6.3,2.5.3Z"/>
  <path d="M261.7,195.92h-.4c-10.9.2-20.4,4.1-28,11.3-2.4,2.3-3.8,5.2-3.9,8.2,0,2.8,1,5.5,2.9,7.6,4.1,4.4,10.6,4.4,15.5.2l-.1-.1c8.5-7.5,18.8-7.6,27.3,0,1.6,1.4,3.5,2.4,5.4,2.9.8.2,1.6.3,2.5.3,3.9,0,7.5-2.2,9.4-5.8,2.2-4.4,1.3-9.4-2.3-13-7.8-7.5-17.3-11.4-28.3-11.6Z"/>
</svg>