<?xml version="1.0" encoding="UTF-8"?>
<svg id="Layer_1" data-name="Layer 1" xmlns="http://www.w3.org/2000/svg" xmlns:xlink="http://www.w3.org/1999/xlink" viewBox="0 0 567.69 122.61">
  <defs>
    <style>
      .cls-1 {
        fill: url(#radial-gradient);
      }
    </style>
    <radialGradient id="radial-gradient" cx="8.92" cy="17.13" fx="8.92" fy="17.13" r="205.34" gradientTransform="translate(57.44 -1.99) rotate(78.35) scale(1 3)" gradientUnits="userSpaceOnUse">
      <stop offset="0" stop-color="#012e25" stop-opacity=".1"/>
      <stop offset="1" stop-color="#012e25" stop-opacity=".6"/>
    </radialGradient>
  </defs>
  <path class="cls-1" d="M0,49.42V3.49C0,1.96.98.98,2.45.98h34.53c10.83,0,16.64,5.73,16.64,13.21,0,4.75-2.31,8.74-5.73,11.12,3.42,1.68,7.27,5.59,7.27,12.09,0,8.25-6.22,14.54-16.85,14.54H2.45c-1.47,0-2.45-.98-2.45-2.52ZM36.7,22.09c4.96,0,7.34-2.94,7.34-6.5,0-3.91-2.94-6.29-7.34-6.29H9.23v12.79h27.47ZM38.58,43.62c4.54,0,6.99-3.14,6.99-6.71,0-3.85-2.87-6.64-6.71-6.64H9.23v13.35h29.36,0ZM71.5,28.17V3.49c0-1.54.98-2.52,2.45-2.52h4.19c1.61,0,2.59.98,2.59,2.52v24.68c0,12.58,7.2,16.22,16.57,16.22s16.5-3.63,16.5-16.22V3.49c0-1.54.98-2.52,2.59-2.52h4.19c1.47,0,2.45.98,2.45,2.52v24.68c0,19.43-11.25,24.74-25.72,24.74s-25.79-5.31-25.79-24.74h-.02ZM139.86,44.6c-.98-.91-1.61-1.75-1.61-2.94,0-1.26.84-2.17,1.89-3.21l1.33-1.33c.49-.49,1.12-.7,1.68-.7.63,0,1.33.28,1.96.77,5.31,4.12,11.32,7.34,20.06,7.34,8.04,0,15.94-2.52,15.94-7.97,0-4.82-5.87-5.8-16.15-6.64-13.28-1.12-24.75-3.71-24.75-13.91,0-9.23,9.3-16.01,24.33-16.01,12.72,0,20.34,4.89,22.37,6.64,1.12.98,1.68,1.96,1.68,3.08,0,1.19-.77,2.24-1.82,3.21l-1.4,1.26c-.49.42-1.05.7-1.61.7-.63,0-1.4-.28-2.03-.77-3.84-2.94-9.72-5.73-17.34-5.73s-14.68,2.59-14.68,7.06,7.13,5.52,15.94,6.22c16.22,1.26,24.95,4.26,24.95,14.12,0,11.18-11.11,17.12-25.58,17.12-13.28,0-21.81-5.17-25.16-8.32h0ZM206.4,49.42V3.49c0-1.54.98-2.52,2.45-2.52h4.19c1.61,0,2.59.98,2.59,2.52v18.31h33.2V3.49c0-1.54.98-2.52,2.45-2.52h4.26c1.61,0,2.52.98,2.52,2.52v45.93c0,1.54-.91,2.52-2.52,2.52h-4.26c-1.47,0-2.45-.98-2.45-2.52v-19.15h-33.2v19.15c0,1.54-.98,2.52-2.59,2.52h-4.19c-1.47,0-2.45-.98-2.45-2.52h0ZM290.49,49.84l-18.45-45.51c-.21-.49-.28-.91-.28-1.26,0-1.12.7-2.1,2.17-2.1h4.61c1.54,0,2.45.7,2.94,1.96l13.91,36.56,12.58-36.42c.49-1.47,1.54-2.1,3.08-2.1h3.98c1.54,0,2.59.63,3.08,2.1l12.58,36.42,13.91-36.56c.49-1.26,1.4-1.96,2.94-1.96h4.61c1.47,0,2.17.98,2.17,2.1,0,.35,0,.77-.21,1.26l-18.45,45.51c-.56,1.47-1.54,2.1-3.08,2.1h-4.33c-1.54,0-2.52-.63-3.01-2.1l-12.16-35.09-12.23,35.09c-.49,1.47-1.47,2.1-3.01,2.1h-4.33c-1.54,0-2.45-.63-3.01-2.1h0ZM363.25,26.42C363.25,11.32,376.11,0,393.17,0s29.92,11.32,29.92,26.42-12.86,26.49-29.92,26.49-29.92-11.32-29.92-26.49ZM413.43,26.42c0-10.28-8.81-17.82-20.27-17.82s-20.27,7.55-20.27,17.82,8.81,17.89,20.27,17.89,20.27-7.55,20.27-17.89ZM435.66,26.42C435.66,11.32,448.52,0,465.58,0s29.92,11.32,29.92,26.42-12.86,26.49-29.92,26.49-29.92-11.32-29.92-26.49ZM485.85,26.42c0-10.28-8.81-17.82-20.27-17.82s-20.27,7.55-20.27,17.82,8.81,17.89,20.27,17.89,20.27-7.55,20.27-17.89ZM511.07,49.42V3.43c0-1.47.98-2.45,2.52-2.45h26.91c17.13,0,27.19,10.42,27.19,25.03,0,17.12-11.53,25.93-27.05,25.93h-27.05c-1.54,0-2.52-.98-2.52-2.52h0ZM540.36,43.62c12.3,0,17.75-8.04,17.75-17.47,0-8.74-5.8-16.85-17.75-16.85h-20.06v34.32h20.06ZM139.26,80.28s-.95,1.95-4.94,1.95l-8.36,10.05c7.8-3.68,20.67-7.71,27.34-9.32,0,0,0,1.78-2.12,2.3-4.77,1.17-18.42,5.72-27.43,9.79-9.14,11.05-15.82,18.85-20.28,23.57-2.73,2.86-4.29,3.99-5.29,3.99s-1.91-.69-1.21-2.9c3.51-11.31,15.3-21.32,22.97-25.26l7.45-9.1c-19.76,9.71-74.93,22.75-74.93,5.16,0-9.19,15.9-23.27,40.3-29.21,25.83-6.28,36.49,1.26,36.49,8.15,0,4.07-3.42,6.28-4.68,6.28,5.42-13.22-12.78-15.6-30.77-11.53-19.63,4.46-36.49,16.86-36.49,25.48,0,14.69,51.05,3.55,73.28-7.45l-46.76-.04s0-1.91,4.29-1.91h51.14,0ZM99.74,117.98c-.17.48-.04.61.3.22,0,0,1.56-1.78,4.29-5.07,3.29-4.03,12.74-15.17,12.74-15.17-7.45,4.55-14.65,13.09-17.33,20.02ZM186.09,85.26l-6.54,1.91c-4.07,1.21-5.63.69-6.5.04-5.46,1.95-10.7,2.6-13.91,2.6-2.56,0-5.2-.17-5.5-1.69-.35-1.69,3.34-4.16,5.11-5.03l-12.39,3.51c0-1.17,1.21-2.08,2.17-2.34,4.07-1.21,8.67-2.43,14.82-3.6,13.22-2.47,16.77-.78,16.77,1.26,0,1.39-1.6,2.56-3.16,3.6,0,0,.3.39,2.38-.13,2.95-.78,8.84-2.43,8.84-2.43,0,0,0,1.65-2.08,2.3h-.01ZM172.23,81.49c-5.59,0-12.96,3.42-12.44,5.37.17.61,1.17.78,2.77.78,2.9,0,6.8-.95,9.14-1.91,0,0-.69-.74-.69-1.26,0-.56.95-.82,3.86-1.39.17-.17.3-.43.3-.65,0-.65-1.43-.95-2.95-.95h0ZM193.58,82.36c-2.9,1.52-7.54,2.99-12.22,4.25,0,0-.09-1.73,2.12-2.34,5.5-1.56,8.28-2.73,12.35-4.64,9.14-11.01,14-16.73,18.46-21.45,2.73-2.86,4.29-3.99,5.29-3.99s1.08,1.21.48,3.42c-2.64,9.53-11.35,16.99-19.54,21.67l-5.72,6.93,11.96-3.25s0,1.69-2.08,2.3l-15.04,4.33c-1.21.35-1.99.04-1.26-.87l5.2-6.37h0ZM217.72,58.61s-1.56,1.78-4.29,5.07c-3.29,4.03-10.05,12.09-10.05,12.09,7.24-4.72,12.31-10.79,14.65-16.94.17-.48.04-.61-.3-.22h0ZM219.11,79.28l-5.81,7.02,12.05-3.34s0,1.69-2.12,2.3l-11.87,3.42-4.12,5.11c-3.03,8.93-9.53,19.89-18.37,24.31-2.08,1.04-3.29,1.13-3.47.17-.22-.95.61-2.73,2.9-5.94,3.64-5.07,8.97-11.44,17.29-21.84.04-.69.09-1.34.09-1.65,0-.56.82-.87,2.17-1.17l4.33-5.33c-2.9,1.52-7.54,2.99-12.22,4.25,0,0-.09-1.73,2.12-2.34,5.5-1.56,8.28-2.73,12.35-4.64,9.14-11.01,14-16.73,18.46-21.45,2.73-2.86,4.29-3.99,5.29-3.99s1.08,1.21.48,3.42c-2.64,9.53-11.35,16.99-19.54,21.67v.02ZM193.54,110.48c-2.69,3.25-4.16,5.16-4.16,5.16-.3.39-.17.52.26.26,5.63-3.47,11.44-10.66,14.69-18.63,0,0-7.45,9.19-10.79,13.22h0ZM236.31,58.61s-1.56,1.78-4.29,5.07c-3.29,4.03-10.05,12.09-10.05,12.09,7.24-4.72,12.31-10.79,14.65-16.94.17-.48.04-.61-.3-.22h0ZM320.5,75.73c5.63-13.22-13.35-15.9-32.02-11.53-20.8,4.77-37.92,16.86-37.92,25.48,0,14.26,69.12-2.64,76.96-4.68,2.99-.78,7.41-2.04,7.41-2.04,0,0,0,1.65-2.12,2.3l-5.07,1.52c-10.36,3.16-82.25,21.45-82.25,3.73,0-9.19,16.47-23.44,41.69-29.38,26.78-6.28,38.18,1.43,38.18,8.32,0,4.07-3.55,6.28-4.85,6.28h-.01ZM367.72,85.26l-6.54,1.91c-4.07,1.21-5.63.69-6.5.04-5.46,1.95-10.7,2.6-13.91,2.6-2.56,0-5.2-.17-5.5-1.69-.35-1.69,3.34-4.16,5.11-5.03l-12.39,3.51c0-1.17,1.21-2.08,2.17-2.34,4.07-1.21,8.67-2.43,14.82-3.6,13.22-2.47,16.77-.78,16.77,1.26,0,1.39-1.6,2.56-3.16,3.6,0,0,.3.39,2.38-.13,2.95-.78,8.84-2.43,8.84-2.43,0,0,0,1.65-2.08,2.3h0ZM353.86,81.49c-5.59,0-12.96,3.42-12.44,5.37.17.61,1.17.78,2.77.78,2.9,0,6.8-.95,9.14-1.91,0,0-.69-.74-.69-1.26,0-.56.95-.82,3.86-1.39.17-.17.3-.43.3-.65,0-.65-1.43-.95-2.95-.95h.01ZM363,86.61s0-1.73,2.12-2.34l14.39-4.07c1.34-.39,1.78.22,1.17.91l-3.42,4.2c-.69.87-.48,1.04.48.87,3.6-.69,10.79-2.6,21.41-5.98,1.6-.52,1.95-.04,1.17.91l-4.25,5.16,11.92-3.29s0,1.73-2.12,2.34l-14.99,4.33c-1.34.39-1.78-.22-1.17-.95l4.25-5.07c-7.32,2.56-15.99,4.85-21.15,5.85-2.86.56-3.38.04-2.04-1.6l3.55-4.29-11.31,3.03h-.01ZM438.78,85.22l-3.9,1.13c-7.67,2.21-8.75-1.13-7.11-3.42-3.9.43-10.14,2.3-18.37,6.59-1.26.65-1.99.17-1.21-.78l4.25-5.16-11.27,3.03s0-1.73,2.12-2.34l14.34-4.07c1.39-.39,1.78.22,1.17.95l-3.29,3.86c3.64-2.08,11.22-4.55,17.42-4.77,0,0,1.08,1.43.35,1.91-3.16,2.12-1.86,3.47,2.86,2.12l4.72-1.34s0,1.69-2.08,2.3h0ZM476.26,85.26c-7.89,2.3-21.28,5.63-27.99,5.63-3.25,0-3.16-1.78-1.47-2.86.13,1.08,1.26,1.08,2.04,1.08,2.86,0,8.8-1.6,9.06-2.34.04-.22-.22-.3-1.82-.3h-9.66c-5.5,0-2.3-2.43-.61-3.21-1.43.48-3.94,1.3-6.72,2.04l-4.98,1.3s0-1.73,2.12-2.34l2.69-.78c12.35-3.6,18.33-3.99,24.22-3.99,6.46,0,7.32,1.56,6.98,2.34-.52,1.17-2.47,1.73-3.6,1.73l.09-.26c.3-1-1.43-1.73-5.59-1.73-7.67,0-10.83,1.99-11.01,2.56-.09.35.04.52,1.56.52h7.02c6.24,0,6.46.95,2.34,2.82,6.33-1.26,13.61-3.47,17.42-4.51,0,1.17-.91,1.95-2.08,2.3h-.01ZM483.54,83.31c-.52.17-2.99.95-7.02,1.99l-4.98,1.3s0-1.73,2.12-2.34l2.69-.78c10.79-2.99,18.16-3.99,24.48-3.99,5.94,0,6.54,1.43,6.33,2.34-.22,1-2.25,1.73-3.38,1.73l.04-.26c.22-1-.78-1.73-4.94-1.73-9.06,0-13.35,2.69-9.58,3.08,2.86.3,6.24,0,6.24,0,0,0,.74.74-2.38,1.73-1.95.61-2.38,1.17-2.38,1.43,0,.3.26.52.95.52,3.6,0,14.43-2.82,22.66-5.37,0,1.17-.91,1.99-2.12,2.43-6.98,2.38-20.32,5.46-25.87,5.46-1.99,0-2.47-.43-2.3-1.13.22-.82,2.12-1.99,5.63-3.25,0,0-4.12.43-6.59,0-3.77-.61-1.39-2.38.39-3.16h0Z"/>
</svg>