<?xml version="1.0" encoding="UTF-8"?>
<svg id="Layer_1" data-name="Layer 1" xmlns="http://www.w3.org/2000/svg" viewBox="0 0 455.31 455.75">
  <path d="M296.63,249.95c8.88-.55,35.72,6.08,45.63,8.57,39.63,9.94,102.44,34.79,111.78,79.8,7.51,36.17-19.41,62.51-48.02,79.05-85.27,49.28-243.9,49-333.49,11.27-104.94-44.19-90.89-123.09,9.25-160.36,17.18-6.39,61.86-19.44,78.84-17.49,14.45,1.66,19.85,20.74,8.59,30.48-5.98,5.17-30.24,7.51-39.59,9.68-23.56,5.46-50.55,14.31-70.61,27.92-38.62,26.2-25.66,49.62,9.46,68.95,78.65,43.28,249.4,44.57,325.77-4.11,21.07-13.43,37.19-31.37,15.85-53.98-28.66-30.38-77.77-34.68-115.21-44.61-22.47-5.96-16.86-33.99,1.75-35.14Z"/>
  <path d="M245.69,202.83l-.48,116.12c-5.86,19.35-31.75,18.32-34.79-1.94V15.95c1.06-10.46,10.71-17.65,21.09-15.6l163.19,89.68c11.3,8.23,11.34,22.02,0,30.29l-149.02,82.51Z"/>
</svg>