<?xml version="1.0" encoding="UTF-8"?>
<svg id="Layer_1" data-name="Layer 1" xmlns="http://www.w3.org/2000/svg" viewBox="0 0 518.04 483">
  <defs>
    <style>
      .cls-1 {
        fill: #231f20;
      }
    </style>
  </defs>
  <path class="cls-1" d="M512.58,374.91l-.21-.37c-12.27-22.15-24.52-44.33-36.76-66.51-50.9-92.2-103.53-187.55-157.69-279.77l-.17-.29-.22-.25c-10.77-12.19-23.69-20.36-38.4-24.31L259.63.05l-2.59-.05h-.25c-27.11,1.95-48.21,13.31-62.71,33.75l-.11.16L5.71,374.54l-.2.44c-9.37,24.32-6.69,50.54,7.35,71.92,14.34,21.84,37.81,35,64.4,36.1h362.85s.4-.09.4-.09c2.76-.66,5.54-.96,8.49-1.27,2.71-.29,5.51-.59,8.39-1.19,26.87-5.64,49.46-27,57.55-54.41.58-1.95.91-3.87,1.24-5.74.41-2.33.79-4.53,1.59-6.44l.27-.65v-18.17l-5.46-20.12ZM475.98,423.17c-6.52,12.35-18.45,20.51-31.93,21.86H74.05c-13.74-1.44-25.37-9.38-31.91-21.81-6.6-12.54-6.52-27.39.22-39.7L226.05,52.99c6.36-7.76,16.24-13.54,25.25-14.76,15.21-2.07,29.32,3.32,38.76,14.77l185.87,331.31c6.57,11.96,6.6,26.49.06,38.86Z"/>
  <path class="cls-1" d="M454.92,400.3l-97.95-179.02-.27-.5-.41-.38c-5.27-4.91-13.24-5.28-18.46-4.1l-.6.14L69.6,388.14l-.36.27c-7.4,6.22-10.16,14.34-7.4,21.72,2.96,7.89,11.36,12.92,21.44,12.92.19,0,.37,0,.56,0h349.39s.27-.01.27-.01c14.72-1.16,21.94-8.53,21.44-21.9l-.03-.83Z"/>
</svg>