<?xml version="1.0" encoding="UTF-8"?>
<svg id="Layer_1" data-name="Layer 1" xmlns="http://www.w3.org/2000/svg" viewBox="0 0 24 24">
  <defs>
    <style>
      .cls-1 {
        fill: #4b89dc;
      }
    </style>
  </defs>
  <path d="M15.94,22.46l-4.06-11.21c-1.28-.22-2.29.24-3.35,1.13-.67.5-1.36,1.02-2.1,1.29-1.99.6-2.67.31-3.6.22L0,6.34v-1.34c1.03-.03,2.09.1,3.26-.24.43-.15.97-.61,1.5-1.07.65-.56,1.32-1.13,2.08-1.41,1.98-.58,3.03-.17,3.92-.04l7.07,19.52-1.88.68h0Z"/>
  <path class="cls-1" d="M24,5c-1.05-.03-2.03.11-3.26-.23-.43-.15-.98-.61-1.5-1.07-.65-.56-1.32-1.13-2.08-1.41-1.98-.58-3.03-.17-3.92-.04l-.18.51,3.84,10.6c1.54.91,3.53.67,4.28.54l2.82-7.55v-1.35h0Z"/>
  <path class="cls-1" d="M8.75,14.69l-2.57,7.09,1.88.68,2.88-7.94-.4-1.11c-.25.16-1.44,1.05-1.79,1.28Z"/>
</svg>