<?xml version="1.0" encoding="UTF-8"?>
<svg id="Layer_1" data-name="Layer 1" xmlns="http://www.w3.org/2000/svg" viewBox="0 0 1749.21 733.88">
  <defs>
    <style>
      .cls-1 {
        fill: none;
        stroke: #e5e5e5;
        stroke-miterlimit: 10;
      }
    </style>
  </defs>
  <path class="cls-1" d="M1310.48-39.81c5.1,6.99,13.2,13.86,22.42,13.36,5.1-.27,15.09-7.79,17.28.63.8,3.07-2.83,10.5-3.27,13.72-.62,4.56-.54,9.19-.19,13.76.77,10.02,3.39,19.87,6.64,29.34,3.05,8.87,6.05,18.59,11.08,26.55,5.58,8.84,14.47,12.31,22.08,18.97,7,6.12,12.76,13.57,19.64,19.84,8.81,8.03,18.9,14,29.02,20.2,19.1,11.71,40,17,59.96,26.67,9.54,4.63,17.23,11.68,25.9,17.64,9.18,6.32,18.54,12,27.42,18.75,16.17,12.27,35.86,15.72,53.58,24.82,8.78,4.51,16.03,11.22,23.3,17.8,7.77,7.03,13.33,9,23.11,11.8,9.25,2.65,17.59,9.4,26.09,13.83,10.22,5.33,19.13,12.41,29,18.25,21.11,12.49,46.64,13.87,70.53,12.08"/>
  <path class="cls-1" d="M1774.08,526.25c-14.13,1.82-9.35,22.54-10.86,32.71-2.46,16.57-15.98,24.87-26.06,37.05-4.04,4.88-8.46,11.62-8.59,18.22-.18,8.68,4.71,8.02,11,12.11,5.96,3.87,11.18,10.53,16.4,15.34,5.86,5.39,9.44,12.84,18.11,12.77"/>
  <path class="cls-1" d="M1237.08-39.81c3.76,11.95,2.95,22.78,3.99,34.92,1.19,13.89,11.47,11.59,22.1,13.12,12.64,1.82,19,6.45,31.75,1.82,9.68-3.52,16.74-5.67,23.38,3.63,6.62,9.26,10.2,20.58,16.67,30.03,7.04,10.28,16.04,19.02,25.33,27.25,19.37,17.16,39.4,34.31,60.61,49.17,9.36,6.56,18.72,12.71,27.25,20.37,8.65,7.77,16.54,14.75,27.39,19.27,20.88,8.7,33.55,22.5,43.08,42.8,9.12,19.41,25.89,35.15,45.07,44.47,10.37,5.03,21.15,7.04,32.47,8.61,12.51,1.73,23.65,5.49,35.45,9.84,12.98,4.78,25.86,9.61,37.15,17.81,10.31,7.49,18.5,16.4,30.62,21.14,12.2,4.78,25.06,6.35,37.76,9.11,6.59,1.43,12.43,5.37,18.82,6.7,5.89,1.22,12.11-1.14,18.11-.63"/>
  <path class="cls-1" d="M1122.26-39.81c7.41,10.99.22,23.32,4.55,34.5,3.58,9.27,20.77,21.28,30.1,24.29,9.47,3.06,23.36,3.76,32.85.71,13.08-4.2,21.72-9.05,35.74-4.6,5.34,1.69,10.27,4.57,15.61,6.14,6.5,1.91,12.78,1.31,19.43,1.7,12.27.71,26.3,2.59,37.47,7.97s16.98,15.62,25.5,23.99c11.13,10.92,25.3,18.59,37.29,28.55,21.26,17.65,43.77,33.7,64.85,51.55,9.39,7.95,16.41,17.16,24.46,26.31,8.85,10.06,21.66,15.39,30.22,25.72,16.33,19.7,14.84,47.8,31.85,67.83,17.17,20.22,46.52,18.72,70.78,20.51,27.33,2.02,54.61,19.23,75.2,36.54,22.56,18.96,45.54,37.85,64.1,60.96,8.37,10.43,9.06,23.03,7.53,35.92-1.43,12.13-3.8,25.87,9.25,32.89,9.27,4.98,19.81,4.56,27.64,13.14,8.54,9.35,5.8,23.43-1.47,32.72-16.95,21.67-43.35-4.68-61.95,11.02-9.02,7.61-16.73,18.69-19.78,30.15-3.77,14.18,2.68,26.79,4.65,40.6,2.01,14.1-1.5,29.26-6.84,42.28-2.11,5.16-4.56,10.42-9.08,13.92-5.27,4.08-13.51,4.01-18.08,8.88-9.37,9.99,6.71,15.05,15.01,13.17,11.51-2.61,21.04-5.64,31.67,2.08,23.87,17.34-16.37,25.78-22.53,38.97-2.93,6.27-1.75,11.39-7.74,15.62-4.86,3.43-10.49,4.86-15.09,9.18-10.26,9.63-17.25,23.48-25.14,34.98-3.84,5.59-6.12,7.25-1.48,12.81,3.71,4.46,11.06,7.27,16.05,10.23,13.86,8.24,28.39,13.29,43.61,18.5,14.52,4.97,27.41,13.1,41.77,18.06,6.67,2.31,13.56,2.22,20.45,3.13,7.7,1.02,15.46,4.78,23.33,3.98"/>
  <path class="cls-1" d="M1746.32,338.62c3.71-3.15,9.59-4.02,13.27-.17,4,4.19,2.78,11.24-1.5,14.65-7.08,5.63-17.13-.58-14.99-9.46.47-1.96,1.65-3.69,3.22-5.02Z"/>
  <line class="cls-1" x1="1432.43" y1="155.57" x2="1432.56" y2="155.77"/>
  <path class="cls-1" d="M1701.54,884.54c-4.36-8.91-9.98-14.35-17.43-19.75-4.49-3.25-4.42-6.79-7.04-11.44-2.2-3.92-5.46-7.66-7.98-11.42-5.08-7.6-9.53-15.85-14.37-23.74-4.31-7.03-9.23-18.01-16.89-21.5-8.12-3.71-18.74-1.87-27.45-4.26-18.54-5.08-35.54-8.98-54.79-5.41-19.23,3.57-35.84,2-53.96-5.73-13.28-5.66-6.32-12.7,2.89-18.38,7.69-4.74,16.38-9.58,25.24-11.7,9.16-2.19,18.52-.28,27.36-4.32,8.44-3.85,15.48-10.35,23.65-14.74,8.39-4.51,17.44-6.02,25.99-9.78,10.1-4.45,9.74-13.25,6.76-23.05-2.82-9.3-12.73-14.51-8.26-25.01,1.31-3.09,5.47-10.01,8.41-11.56,2.93-1.55,11.94,1.47,11.46-4.78-.32-4.15-9.18-3.23-11.91-5.71-2.87-2.61-5.02-8.46-5.46-12.23-1.27-10.74,9.79-14.27,18-18.05,17.29-7.97,36.68-18.15,24.72-39.78-8.23-14.89-17.43-34.38-20.98-51.39-2.12-10.17,3.63-17.46,12.37-22.44,4.68-2.67,7.61-2.87,10.27-7.78,2.24-4.12,3.39-8.98,5.71-13.18,4.75-8.58,11.47-13.83,14.4-23.44,4.67-15.28,6.76-28.25,2.83-44.35-4.41-18.07-12.86-34.86-19.12-52.31-6.48-18.1-21.83-29.26-33.89-43.56-12.67-15.01-27.27-24.12-46.97-25.27-18.47-1.08-37.44-2.91-53.95-11.95-14.61-8-32.52-22.55-41.88-36.48-10.87-16.17,4.54-38.79-10.52-52.53-6.92-6.31-14.44-11.54-20.64-18.67-5.64-6.49-10.43-14.14-14.59-21.65-3.64-6.56-8.84-11.03-14.07-16.32-5.49-5.57-11.31-10.81-17.43-15.68-5.77-4.6-11.81-8.88-18.07-12.8-5.77-3.61-10.92-8.55-16.14-13-15.37-13.13-32.91-23.13-48.85-35.46-17.01-13.16-29.32-25.53-51.11-30.34-18.44-4.07-41.35-10.09-60.07-6.64-20.89,3.85-39.01,5.42-60.25,2.1-21.24-3.32-39.25-.55-60.4,1.15-10.51.85-19.82-1.96-30.11-3.17-10.38-1.22-19.55,1.66-29.61,3.48-19.87,3.59-40.3,6.24-60.26,2.74-10.08-1.77-19.71-2.04-29.15-6.17-4.83-2.11-9.65-3.69-12.27-8.65-2.71-5.14-.13-8.27,3.19-13.18,5.54-8.18,12.34-16.84,21.59-20.82,10.28-4.42,19.49-.03,30.04-1.04,9.94-.95,18.7-8.05,27.62-12.21,9.74-4.54,19.3-3.63,28.06-10.06"/>
  <path class="cls-1" d="M766.69,35.15c9.86,3.29,20.24,1.23,30.39.88,10.01-.34,20.03,1.54,30.01.56,19.99-1.95,40.33-3.47,60.44-4.31,6.27-.26,29.12-6.06,17.54-15.42-3.51-2.84-10.4-2.85-14.68-3.44-5.38-.75-9.78-2.42-14.94-4.06-9.37-2.98-19.65-4.86-29.46-5.68-10.61-.89-19.76,3.5-29.42,7.12-10.93,4.1-21.62,5-33.18,6.21-5.82.61-10.87,1.31-15.72,4.82-4.61,3.33-9.57,10.97-.97,13.31"/>
  <path class="cls-1" d="M993.2-39.81c-7.11,9.77-13.94,9.32-24.62,6.55s-22.97-2.56-32.63,4.14c-7.51,5.21-11.98,13.38-18.6,19.51-9.02,8.35-20.69,10.95-32.72,9.6-11.35-1.27-21.66-6.21-32.6-9.09-13.44-3.53-24.87,1.92-37.97,4.04-23.71,3.84-48.2-4.98-71.17,4.42-20.95,8.57-38.01,21.9-61.98,21.05-10.8-.38-18.74-1.96-29.51.58-5.26,1.24-10.66,2.22-16.05,2.71-7.06.64-12.67-1.76-19.51-2.16-10.71-.63-18.57,2.52-29.57-.26-11.19-2.82-22.45-3.66-33.86-.69-3.93,1.02-7.96,3.86-12.08,4-4.81.16-9.91-3.34-14.2-5.27-8.27-3.74-16.92-6.32-26.04-6.87-10.85-.65-10.84,3.2-3.42,9.94,8.95,8.12,16.88,7.84,28.6,7.61,10.4-.2,21.15-.18,31.37,1.98,10.76,2.28,21.64,7.92,32.54,8.95s22.26-1.28,33.57.2c12.44,1.62,25.22,6.72,37.69,7.15,10.99.37,20.81-5.25,31.99-3.82,11.53,1.48,21.11,7.85,31.84,11.65,21.43,7.6,46.86,1.38,68.48-2.1,11.48-1.85,23-1.16,34.27-4.25,12.32-3.38,23.16-4.01,35.92-3.7,23.92.58,47.45-6.31,71.19-4.3,24.5,2.08,47.39,13.54,72.06,7.46,11.04-2.72,21.89-6.47,33.18-8.08,14.1-2.02,27.09.51,41,2.38,24.06,3.23,48.57-5.8,73.01-5.07,12.19.36,24.41,1.35,36.61.69,12.18-.66,23.96-4.97,36.18-4.75,22.48.4,49.04,7.28,67.36,20.5,39.71,28.64,83.74,55.36,118.73,89.89,8.65,8.53,11.7,16.61,15.71,27.81,4.15,11.59,11.32,21.37,17.57,31.84,11.1,18.57,10.54,40.61,23.35,58.66,11.77,16.57,29.53,33.01,46.68,43.88,9.63,6.1,19.74,11.48,30.34,15.69,11.43,4.53,21.08,3.38,32.82,5.24,18.47,2.93,30.39,25.96,42.83,38.08,16.72,16.29,7.49,35.95,11.6,56.2,2.58,12.71-.29,23-5.14,34.8-4.3,10.48-6.64,21.8-11.98,31.82-5.05,9.49-12.51,17.96-14.53,28.83s2.11,21.47,6.11,31.02c7.2,17.17,26.44,34.44,6.05,48.87-7.26,5.14-15.5,9.88-23.49,13.78-10.54,5.14-21.52,4.51-32.2,8.37-20.15,7.28-10.48,31.26-15.02,47.33-5.73,20.33-29.34,23.79-36.32,42.6-4.03,10.86-4.17,15.79-14.14,22.45-9.35,6.25-16.68,13.84-27.2,18.5-11.41,5.06-24.06,7.28-34.78,13.96-13.3,8.29-11.75,18.83-.7,29.23,9.5,8.93,15.76,5.63,26.94,2.7,11.24-2.94,22.28-.56,32.49,4.54,8.95,4.48,16.91,10.74,25.78,15.41,10.55,5.56,22.47,8.11,34.36,8.95,17.36,1.22,45.63-13.74,53.58,9.55,2.97,8.71.03,19.02,3.03,27.44,2.86,8.01,10.72,14.37,13.24,22.21"/>
  <path class="cls-1" d="M279.01-39.81c1.02,6.4,6.91,9.92,12.06,12.82,2.81,1.59,5.76,3.04,8.65,4.49,4.19,2.1,7.15,1.37,11.03,2.69,3.16,1.07,4.76,3.93,7.31,5.84,3.44,2.58,7.2,3.39,10.96,5.27,7.44,3.71,13.72,9.18,21.4,12.61,19.43,8.68,40.44,14.18,60.05,22.76,8.58,3.75,16.5,8.87,25.6,11.31,9.5,2.55,19.39,3.26,28.91,5.84,9.65,2.61,18.82,6.45,28.65,8.44,11.3,2.29,22.82,3.12,34.23,4.68,11.06,1.51,18.18.45,29.08-1.97,10.1-2.24,17.58,1.42,27.17,3.66,9.48,2.21,19.86-.46,29.64.22,9.27.64,19.52,4.94,28.67,4.13,8.7-.78,16.57-3.66,25.63-3.74,10.91-.09,21.47.21,31.96,3.51,9.65,3.04,18.38,6.92,28.57,7.83,11.46,1.03,23.18-.36,34.64-.87,18.71-.82,39.95-4.67,57.98-9.82,9.52-2.72,17.55-5.52,27.59-5.08,11.45.5,22.76,3.02,34.24,2.8,10.05-.19,19.76-3.09,29.77-3.66,10.69-.61,21.64.88,32.26,1.97,19.23,1.98,36.35,12.89,56,9.33,9.04-1.64,16.9-6.95,25.6-9.82,10.24-3.37,20.78-5.76,31.6-4.91,9.48.75,18.39,3.79,27.7,5.32,11.05,1.82,20.75-1.5,31.45-4.03,20.54-4.85,40.59-5.84,61.63-5.33,9.39.22,18.85.81,28.1-1.21,10.78-2.35,19.66-5,30.89-3.16,18.99,3.11,37.43,10.18,53.06,21.41,32.99,23.71,67.31,45.19,98.63,71.15,6.82,5.65,15.17,11.74,20.36,19.09,5.48,7.76,1.7,13.86,3.38,22.33,1.81,9.18,7.03,18.29,10.53,26.93,4.03,9.95,7.45,20.13,11.49,30.07,7.91,19.52,18.07,35.6,30.33,52.49,10.11,13.93,14.1,35.87,30.52,43.68,15.51,7.37,30.14,18.53,43.54,29.41,5.36,4.34,12.5,14.28,19.18,16.01,7.67,1.99,15.08-8.11,23.51-8.07,24.12.11,17,27.72,13.62,42.03-2.17,9.17-4.68,17.88-2.91,27.3,1.81,9.64,6.09,19.23,5.38,29.26-.64,8.98-6.3,17.66-9.15,26.07-3.49,10.3-5.37,20.82-5.94,31.68-.88,16.72,4.26,41.87-6.87,56.13-10.35,13.26-30.52,14.66-41.77,27.27-6.71,7.51-4.77,14.96-7.37,23.78-2.27,7.71-9.98,15.14-15.93,20.23-6.77,5.8-13.75,10.08-19.3,17.2-5.74,7.36-10.45,11.25-19.59,14.1-8.12,2.53-16.34,4.13-22.69,10.18s-8.52,14.73-13.64,21.6c-8.98,12.04-24.77,15.34-37.74,21.21-12.65,5.73-24.12,16.15-28.59,29.67-6.37,19.28,11.36,27.1,25.12,35.53,8.33,5.11,16.73,10.37,24.36,16.48,6.5,5.21,13.16,12.79,22.34,9.19,7.23-2.84,10.22-11.09,17.65-13.93,7.76-2.97,14.24-.92,19.08,5.67,10.05,13.69,13.95,31.4,25.16,44.59,4.96,5.84,11.15,11.25,18.31,14.18,4.48,1.83,14.01,1.81,13.9,8.49"/>
  <path class="cls-1" d="M925.17-39.81c-10.38,13.23-18.71,30.18-37.78,30.94-19.7.79-35.08-17.09-55.08-14.19-9.32,1.35-16.77,6.38-26.53,4.88-10.36-1.59-20.62-5.73-30.66-8.6-18.24-5.21-36.98-4.66-51.65,8.62-14.55,13.17-26.75,21.13-46.92,22.4-21.26,1.34-41.81,6.1-63.07,2.07-20.47-3.88-41.46-10.64-61.03-17.69-9.68-3.49-19.05-7.86-27.94-13.05-7.56-4.41-20.56-7.68-25.39-15.37"/>
  <path class="cls-1" d="M245.16-39.81c1.4,8.39,12.63,16.18,18.46,21.46,8.17,7.4,19.41,13.67,29.26,18.75,20.39,10.51,41.52,16.25,63.61,21.68,20.76,5.11,42.05,11.53,61.6,20.38,10.41,4.71,20.3,7.16,31.31,9.93,12.87,3.24,25.11,8.51,38.01,11.7,24.89,6.15,49.37,5.95,74.24,1.16,10.17-1.96,17.56,3.56,27.78,4.32,11.79.87,23.12.63,34.9,2.34s19.24-.54,30.11-2.91c11.97-2.61,25.77,1.14,37.55,3.75,24.42,5.42,45.51,8.59,70.59,5.18,12.41-1.69,24.73-4.04,37.17-5.54,5.54-.67,11.51-.41,16.94-1.7,6.06-1.44,10.75-5.73,16.6-7.62,9.41-3.04,20.58,2.15,29.94,4.21,14.04,3.1,26.68,2.65,40.76.11,10.56-1.91,19.95-.06,30.52.59,5.47.34,11.07-.32,16.5.17,6.27.57,11.28,3.55,17.11,5.68,21.53,7.88,39.01,3.16,58.69-6.32,8.25-3.97,16.7-7.85,26.02-8.09,12.78-.33,25.08,5.21,37.77,6.13,25.22,1.83,48.61-12.34,73.73-12.84,11.87-.24,24.03,2.65,35.8,2.01,12.01-.66,20.99-8.48,33.57-6.57,23.05,3.51,44.39,15.22,62.74,28.98,9.22,6.92,18.17,14.23,27.96,20.35s20.67,10.59,30.29,17.22c9.26,6.38,17.23,14.36,25.71,21.69,8.23,7.12,20.95,14.73,21.92,26.67.82,10.13-.7,18.75,2.01,29,3.26,12.35,7.59,24.32,9.67,36.97,1.81,10.98,3.71,12.45,10.82,20.06,7.42,7.94,9.99,21.32,13.28,31.29,3.68,11.16,10.81,19.85,14.74,30.72,3.37,9.32,4.65,19.78,9.37,28.57,10.2,19,36.82,11.09,50.33,26.72,4.26,4.93,3.29,8.81,4.38,14.44,1,5.14,2.96,7.72,6.49,11.68,7.14,8,15.85,15.04,20.59,24.89,4.62,9.59,3.45,18.74-1.31,28.05-4.48,8.76-13.32,14.23-4.23,21.6,7.83,6.35,16.17,9.87,21.27,19.27,5,9.22,6.82,21,6.51,31.38-.66,22.24-12.39,41.31-32.07,51.5-9.23,4.78-19.36,9.96-29.05,13.66-7.75,2.96-17.4,2.85-23.96,8.63-6.97,6.15-4.5,13.3-1.02,20.78,4.53,9.73,7.93,16.49.98,25.97-13.61,18.57-37.98,28.09-56.43,40.79-18.89,13-42.56,23.17-59.17,38.88-14.75,13.96-28.21,35.87-30.66,56.06-.98,8.06-3.08,18.38,5.69,22.33,8.8,3.96,18.84,3.84,27.76,8.74,12.26,6.73,28.32,25.86,7.16,32-18.81,5.46-39.53-2.16-58.01-5.34-25.14-4.33-49.89,2.71-75.17,1.43-25.69-1.3-49.09,3.34-74.41,5.97-25.9,2.69-52.51-1.39-78.47-1.75-21.23-.29-44.55-7.03-65.17-1.28-22.07,6.16-44.38,6.68-66,14.58-9.98,3.65-19.49,5.26-29.85,2.14-10.45-3.15-20.82-11.19-32.22-8.84-7.55,1.55-15.61,7.7-15.58,16.02.04,11.23,13.09,15.31,15.65,24.59"/>
  <path class="cls-1" d="M163.78-44.46c4.27,6.87,9.53,13.13,15.59,18.5,2.54,2.26,1.17,4.96,2.45,7.48,3.35,6.59,6.62,5.76,12.77,7.28,4.35,1.08,6.83,4.94,10.68,7.25,7.95,4.76,9.91-1,17.97-1.44,4.74-.26,9.22,1.72,13.49,3.43,23,9.23,46.82,15.73,70.22,23.3,22.24,7.19,45.01,7.85,67.81,13.59,23.36,5.89,44.73,18.52,68,24.93,24.03,6.61,44.79,17.59,70.25,18.3,25.16.71,49.78-4.9,74.73-1.76,13.69,1.72,27.32,4.05,41.01,5.65,13.04,1.52,24-3.09,36.7-3.05,11.38.04,22.19,4.17,33.15,6.67,11.79,2.69,23.8,3.04,35.84,2.59,26.69-.99,53.62-6.15,80.03-9.94,11.4-1.64,20.18-7.98,31.76-3.97,12.25,4.24,20.92,9.61,34.42,9.3,12.93-.3,25.6-2.58,38.59-2.07,13.23.53,26.23,2.68,39.22,5.08,11.93,2.21,24.05,4.44,36.23,3.54,13.05-.97,22.87-6.78,34.21-12.63,25.42-13.11,47.74-3.09,74.45-3.64,24.49-.51,45.23-15.58,69.91-14.49,11.34.5,23.17,3.15,34.37.19,5.43-1.44,10.13-4.85,15.81-5.43,6.1-.62,12.94,1.88,18.71,3.55,23.69,6.87,43.12,19.67,62.04,35.16,18.37,15.05,41.4,21.18,58.58,37.54,7.67,7.31,15.38,14.13,23.44,20.96,10.2,8.65,4.86,17.99,4.06,29.67-.81,11.67,2.37,21.57,5.42,32.64,3.31,12.01,4.67,25.32,10.36,36.51,4.68,9.22,10.55,15.8,13.32,26.13,2.93,10.94.73,20.57,6.46,30.79,11.03,19.67,14.29,42.98,3.48,63.38-5.19,9.78-2.46,15.58,4.8,23.71,7.77,8.69,14.73,13.97,18.82,25.16,4.03,11.05,3.86,20.74,4.7,32.31.92,12.64,7.2,20.44,16.3,28.72,7.37,6.71,15.26,13.48,24.8,16.88,10.58,3.77,22.58.72,32.79,5.31,24.87,11.17,6.13,35.71-11.85,40.87-10.17,2.92-20.97,2.9-31.27,5.35s-19.6,5.96-28.82,10.33c-14.09,6.68-31.69,17.78-28.78,35.9,2.93,18.25,26.22,30.27,4.44,46.1-17.02,12.38-37.67,23.19-56.24,33.11-9.37,5.01-19.72,7.61-29.06,12.43-10.98,5.67-15.58,18.02-22.16,27.83-6.49,9.68-14.35,16.92-17.94,28.36-3.53,11.25-3.52,22.61-4.06,34.23-1.12,24.14-18.28,32.7-39.73,38.14-11.27,2.85-22.82,3.24-34.36,2.44-13.54-.93-28.01-5.54-41.39-1.99-11.81,3.14-21.91,8.61-34.41,9.37-12.55.76-25.6-1.37-38.23-1.53-11.22-.14-22.47-4.33-33.59-2.58-13.17,2.07-25.35,2.98-38.74,3.06-11.88.07-23.3,1.99-35.09,2.88-12.9.98-25.04-2.37-37.89-.88-11.31,1.31-21.92,4.35-33.09,6.24-14.22,2.4-28.74,1.04-43.07,1.68-24.82,1.11-48.82-.21-73.32-5-9.74-1.9-20.63-10.73-30.54-7.54-8.34,2.69-14.74,11.54-20.93,17.3-8.38,7.8-18.37,14.67-26.04,23.13-6.48,7.14-8.13,16.06-15.67,22.65"/>
  <path class="cls-1" d="M1473.17,375.1c.05,0,.1-.02.15-.02,10.72-1.54,15.07,24.25.12,23.31-10.52-.66-10.02-21.67-.28-23.29Z"/>
  <path class="cls-1" d="M100.89-39.81c-5.92,3.25-4.4,5.95-2.56,11.03,2.5,6.9,3.37,3.88-.26,9.65-6.14,9.78-.9,20.35,7.1,27.41,2.8,2.47,6.69,6.2,10.14,7.72,4.78,2.11,9.76.26,14.88,1.42,4.72,1.07,7.99,2.74,12.97,2.53,5.69-.24,11.14-1.86,16.94-1.85,9.95.02,19.31,3.65,28.71,4.02,5.66.22,10.9,4.04,16.57,4.67s9.11-.81,14.14-2.45c12.19-3.99,23.16.9,35.51,2.45,24.32,3.05,49.56,9.34,74.17,9.19,25.76-.15,49.56,6.74,73.11,16.78,22.61,9.64,45.98,16.43,68.43,26.51,23.64,10.61,47.9,8.64,73.31,6.94,13.33-.89,26.41-3.79,39.82-2.55,12.62,1.17,25.43,3.77,37.83,6.35,5.52,1.15,10.91,2.55,16.31,4.17,3.22.96,9.1,4.61,11.9,4.99,6.93.93,13.22-9.1,21.9-9.08,10.7.03,20.62,6.89,31.42,7.55,12.73.77,26.08-2.03,38.74-3.25,26.05-2.51,51.79-7.4,77.81-9.94,10.9-1.07,20.48.28,29.15,7.5,4.83,4.02,10.11,11.5,16.68,11.35,3.87-.09,10.72-3.91,14.69-4.87,5.55-1.34,11.12-2.12,16.82-2.46,14.01-.84,28.44-.1,42.07,3.43,12.11,3.14,18.59,5.07,31.02,3.65,12.84-1.46,25.75-.35,38.08-4.92,10.66-3.95,20.01-10.75,30.7-14.7,12.93-4.77,25.67-5.29,39.29-3.8,12.75,1.4,25.55,4.54,38.44,3.83,12.01-.66,21.04-5.94,31.52-11.11,11.87-5.85,23.15-5.95,36.16-5.46,13.9.52,25.84-3.17,39.34-4.04,24.02-1.55,49.17,15.26,67.37,29.05,9.13,6.92,17.19,15.13,26.14,22.12,8.28,6.47,18.79,4.59,27.3,11.14,9.23,7.1,17.59,16.18,24.76,25.31,7.78,9.91,9.8,17.08,5.23,29.34-2.92,7.82-17.02,19.96-15.51,28.08,1,5.38,7.88,6.48,12.01,8.49,4.92,2.39,8.44,5.29,11.78,9.65,6.88,8.97,10.87,20.36,13.95,31.11,3.8,13.26,2.59,24.34,2.84,37.71.2,11.11,7.79,19.12,9.66,29.59.89,4.99-.13,10.2.21,15.25.47,7.06,2.23,14.04,1.25,21.15-1.45,10.52-5.22,19.87-3.58,30.76,1.8,11.94,10.46,19.4,14.98,30.06,4.29,10.12,5.29,23.25,7.93,34.05,3.23,13.18,8.63,23.33,15.69,34.82,6.32,10.28,12.18,21.57,7.17,33.63-4.35,10.48-14.57,17.69-23.38,24.15-8.05,5.9-16.78,11.47-23.1,19.34-8.19,10.19-6.45,19.81-5.58,31.93,1.55,21.48-11.5,36.15-27.94,48.19-19.17,14.04-39.54,25.18-57,41.56-8.87,8.32-17.43,16.86-25.26,26.18-7.04,8.38-17.57,18.22-18.98,29.5-2.53,20.33,6.5,47.17-19.22,56.52-8.54,3.1-20.26,2.03-29.09.73-5.53-.81-10.6-2.28-15.24-5.5-3.33-2.31-6.45-7.46-10.61-8.37-8.64-1.9-13.34,9.99-18.89,14.82-8.18,7.11-18.53,9.88-29.15,10.64-22.98,1.64-46-6.16-68.69-2.63-25.77,4-52.09,6.27-78.21,5.84-26.54-.44-51.12.74-77.45,4.46-12.43,1.76-24.82,4.21-37.44,3.61-14.14-.66-28.26-4.08-42.27-6.03-11.49-1.59-22.66-3.75-33.56-7.83-8.06-3.01-18.5-8.54-27.27-5.27-8.89,3.31-14.18,14.19-20.25,20.82-8.73,9.54-20.55,13.78-30.95,21.01-8.99,6.25-15.71,15.19-24.71,21.41-10.28,7.11-22.92,8.67-33.57,15.29"/>
  <path class="cls-1" d="M44.57.24c5.24,5.39,11.69,6.92,18.87,5.04,3.22-.84,13.24-4.1,11.26-8.87-1.11-2.68-12.12-2.79-2.63-7.27,2.73-1.29,9.19,2.49,10.2-1.58,2.03-8.19-32.09-7.14-35.74-6.2-3.7.95-8.87,2.41-8.28,6.82.27,2.06,3.79,2.94,4.78,4.67,1.66,2.91-2.45,5.16,1.55,7.38"/>
  <path class="cls-1" d="M662.86,117.01c6.95-.48,6.24-13-3.03-11.79-8.1,1.06-3.77,11.59,2.4,11.8.22,0,.43,0,.63-.01Z"/>
  <line class="cls-1" y1="3.9" x2="2.24" y2="3.83"/>
  <line class="cls-1" x1="946.39" y1="115.92" x2="947.98" y2="116.38"/>
  <line class="cls-1" x1="1382.82" y1="333.83" x2="1382.85" y2="333.96"/>
  <path class="cls-1" d="M638.69,884.54c8.84-3.15,17.39-7.35,26.04-10.99,18.39-7.75,35.97-13.53,51.74-26.18s33.33-19.44,43.4-37.74c4.71-8.56,6.89-18.27,13.63-25.63,8.64-9.43,16.59-2.09,23.72,5.2,12.86,13.14,35.67,18.76,53.2,22.13,20.18,3.88,37.41,5.45,57.78,2.67,18.9-2.58,38.49-5.77,57.57-5.19,38.26,1.16,78.75,1.39,116.32-6.46,19.5-4.07,37.49,3.05,57.25,3.12,9.71.03,19.66-1.64,27.87-7.2,8.15-5.52,12.74-14.7,22.41-18.33,10.48-3.94,18.33,2.09,28.5,3.11,10.48,1.05,18.66-4.5,23.1-13.95,4.11-8.75,4.68-18.59,5.32-28.06.66-9.9,5.43-18.44,11.9-25.95,12.7-14.74,29-26.02,43.93-38.29,15.17-12.48,30.51-23.78,46.71-34.89,16.55-11.35,32.44-23.44,31.67-45.11-.66-18.61,1.31-40.19,17.63-52.59,7.81-5.93,16.6-9.91,23.39-17.29,8-8.7,7.29-16.18,2.83-26.58-3.22-7.53-11.86-17.76-11.81-25.91.04-5.29,2.91-8.54,1.26-14.3-1.33-4.61-4.32-8.82-6.34-13.14-4.17-8.94-4.79-18.69-8.26-27.87-3.54-9.36-6.39-18.09-6.71-28.2s.49-19.28-1.38-29.07c-1.22-6.39-3.57-12.47-5.67-18.61-.91-2.65-1.39-5.4-2.33-7.98s-2.87-4.89-3.5-7.74c-.69-3.13-1.03-6.33-1.15-9.53-.23-6.49.55-12.98,1.72-19.34,3.03-16.44,9.2-32.51,3.38-49.01-3.26-9.22-9.89-16.46-17.94-21.76-6.89-4.53-19.44-8.81-22.43-17.36-3.09-8.82,6.69-18.7,11.12-25.5,5.34-8.2,9.78-16.94,5.97-26.78-3.32-8.58-11.05-16.33-17.85-22.25-8.04-6.99-17.65-6.69-26.09-12.17-7.67-4.98-13.99-13.03-20.99-18.95-7.42-6.28-15.12-12.28-23.36-17.45-16.26-10.21-34.84-17.27-54.21-15.54-9.41.84-18.71,2.11-28.17,2.18-9.49.07-19.89-1.81-29.05,1.35-9.96,3.44-13.85,11.74-20.97,18.22-8.16,7.42-18.35,3.86-27.75,1.37-18.59-4.93-37.11-10.36-56.51-6.64-9.39,1.8-18.43,5.43-26.93,9.73-8.56,4.33-15.59,11.65-23.9,15.54-8.46,3.96-19.13,2.88-28.29,3.89s-19.23,1.74-28.48-1.11l.67.18c-9.93-1.96-19.86-2.67-29.85-5.21-9.71-2.48-19.6-5.03-29.71-4.47-6.44.36-10.9,2.33-16.03,5.84-4.43,3.03-10.5,7.07-16.06,7.07-7.87,0-10.09-8.86-13.35-14.45-3.51-6.01-8.88-11.29-15.88-12.76-13.51-2.85-29.27,1.81-42.56,4.01s-27.87,2.19-41.75,3.93c-13.86,1.73-28.28,7.57-41.91,8.31-6.99.38-14.34-2.63-20.89,1.43-5.85,3.62-7.4,13.18-13.47,16.19-12.94,6.42-24.38-17.49-33.72-22.54-25.08-13.53-55.91-12.01-83.16-10.3-14.23.9-28.74-.83-42.61,3.15-7.24,2.08-13.15,5.5-19.67,2.13-6.11-3.16-11.76-7.64-17.73-11.16-24.62-14.54-52.19-20.66-78.39-31.73-6.51-2.75-13.05-7.35-19.92-8.89s-14.18-1.19-20.94-1.79c-13.92-1.24-27.94-.71-41.91-.63-14.29.08-28.57-.22-42.85-.19-13.66.03-28.41-1.23-41.91.78-7.16,1.07-14.32,3.11-21.34,4.85-6.97,1.73-13.58,1.85-20.42,3.89-12.54,3.75-28.72.6-42.1,1.95-7.22.73-14.11,2.06-21.19,3.12-6.96,1.05-13.36-.27-20.52.89-8.04,1.3-12.29,2.42-18.92,7.59-2.65,2.07-6.65,3.21-9.04,5.34-6.9,6.15-12.05,16.03-22.59,16.93-16.8,1.43-13.29-24.28-20.18-34.62-.79-1.19-3.61-3.31-4.62-4.51-1.25-1.48-2.43-3.69-3.85-5.36-3.09-3.63-6.42-5.85-5.88-11.22.22-2.19,2.08-4.16,2.67-6.25,1.15-4.09,1.42-.96.27-5.11-1.09-3.93-3.32-8.24-4.73-12.09C10.17,5.89,7.91,2.82,2.24,3.83"/>
  <path class="cls-1" d="M0,91.59c12.19,1.62,11.57,11.05,18.53,18.48,7.93,8.47,22.7,11.6,33.74,10.89,11.39-.73,19.24-5.8,26.48-13.96,7.21-8.13,20.19-16.28,30.25-20.74,10.11-4.48,22.36-8.17,33.32-9.52,13.87-1.71,28.59,3.39,42.05.86,11.36-2.14,20.55-11.4,31.41-15.18,12.92-4.51,27.98-3.07,41.49-3.93,29.32-1.87,58.63-4.7,87.95-6.4,27.93-1.62,51.22,13.98,77.39,21.61,11.89,3.47,23.3,7.62,33.98,14.01,5.73,3.43,11.74,7.45,16.29,12.4,3.31,3.61,5.43,8.6,9.45,11.54,9.58,7.01,17.76-1.38,26.22-5.86,12.11-6.41,25.76-4.07,38.97-4.54,12.94-.46,25.91-1.64,38.86-.64,14.26,1.11,27.19,6.1,40.43,11.19,10.34,3.97,10.58,13.14,18.7,19.68s20.01,8.21,28.71,1.83c9.69-7.11,11.39-13.79,24.41-16.15,14.14-2.56,27.71-7.63,41.9-9.85s27.33-.8,40.87-2.71c13.06-1.85,28.51-8.8,41.73-4.59,9.63,3.07,11.7,12.26,17.2,19.54,7.39,9.79,17.08,10.01,27.71,5.35,26.08-11.43,54.02-.14,80.12,6.35,11.42,2.84,23.04,4.65,34.44,7.56,7.61,1.94,18.15,5.58,25.38.72,7.83-5.26,9.63-17.62,15.15-24.85,7.53-9.87,22.34-14.62,33.98-17.42,27.61-6.65,44.53,7.41,68.38,17.91,9.01,3.97,23.15,8.24,28.38-3.56,4.05-9.14-1.89-22.26,8.61-28.37,8.86-5.15,26.25-1.51,36.27-2.4,13.57-1.21,26.87-2.56,40.33.39,25.53,5.59,43.9,22.93,63.08,39.35,14.3,12.25,48.35,23.19,46.51,46.47-1.54,19.56-33.31,37.2-10.85,55.25,18.71,15.04,40.7,18.35,36.77,47.55-3.77,27.98-18.36,53-5.76,80.87,5.27,11.65,10.01,21.77,8.45,34.89-1.76,14.77-4.73,23.86,2.84,37.28,5.29,9.39,7.91,21.04,11.67,31.17,5.01,13.52,4.15,28.53,8.08,42.53,3.17,11.3,5.41,18.95-3.31,28.04-9.82,10.23-18.4,19.15-23.47,32.74-8.54,22.91-4.25,48.1-24.82,65.07-8.85,7.3-19.54,11.69-28.92,18.18-11.12,7.69-20.79,17.2-31.15,25.84-8.22,6.85-18.36,16.02-28.5,19.85-8.51,3.22-27.42-.82-30.4,10.75-2.72,10.52,3.32,24.09,1.98,35.31-1.47,12.29-6.89,23.97-18.28,29.84-9.82,5.06-21.35,5.34-31.29,10.18-10.96,5.34-16.91,16.63-28.04,21.47-10.87,4.72-22.99,3.38-34.3,1.29-15.77-2.9-29.55-2.4-45.37.29-27.89,4.74-56,4.99-84.2,6.41-13.79.7-27.37-1.81-41.08-1.22-13.92.6-29.12,3.23-42.91,5.37-26.39,4.1-52.4,2.04-76.64-10.22-10.32-5.22-18.43-12.12-24.75-21.8-6.7-10.26-14.81-19.95-19.52-31.19-3.09-7.37-13.49-17.96-21.11-8.3-3.53,4.48-1.91,12.12-2.31,17.36-.64,8.39-2.11,16.66-3.88,24.88-2.4,11.12-5.12,22.57-11.29,32.29-6.47,10.2-16.48,15.96-26.02,22.89-9.76,7.09-18.77,15.23-29.49,20.92-13.11,6.96-28.04,11.13-42.32,14.95-11.49,3.08-23.03,7.52-34.83,8.89-9.35,1.09-20.44,3.3-28.87,7.85"/>
  <path class="cls-1" d="M26.74,103.9c-.08.13-.57.89,0,0"/>
  <path class="cls-1" d="M0,127.82c15.84-.07,28.59,7.14,43.63,9.82,12.24,2.18,28.02,7.37,37.65-2.58,16.48-17.02,38.86-39.88,63.39-44.1,13.86-2.39,27.44,3.04,40.91,1.24,15.5-2.07,25.67-18.18,41.06-21.32,13.93-2.84,29.79-1.42,44.03-2.68,16.52-1.47,33.31-.65,49.66-3.62,13.81-2.5,28.16-7.83,42.36-5.6,15.44,2.42,29.76,11.99,44.69,16.57,14.71,4.51,28.11,6.71,41.38,15.21,5.65,3.62,11.19,7.67,15.81,12.57,5.11,5.41,7.96,12.5,13.08,17.8,10.84,11.22,21.13,3.37,30.81-4.75,11.63-9.76,25.43-8.5,40.03-7.97,26.23.96,56.17-4.49,74.32,19.7,7.36,9.8,9.22,20.17,23.63,20.6,12.85.39,26.18-5.52,36.69-12.28,23.36-15.02,53.27-24.43,81.05-23.48,14.26.48,24.48-2.48,37.99-5.94,13.9-3.56,20.98,1.43,28.82,12.53,7.3,10.33,12.92,18.47,27.05,17.7,16.39-.89,28.22-8.11,45.25-4.76,14.76,2.91,28.75,9.15,43.09,13.62,15.14,4.72,29.72,9.85,43.55,17.72,10.08,5.73,23.55,13.71,34.17,3.59,7.14-6.8,6.46-23.44,8.71-32.55,3.28-13.28,8.53-20.34,21.05-25.97,13.08-5.87,27.95-9.04,40.44-.18,20.53,14.55,47.2,36.65,68.57,9.25,8.09-10.38,5.52-21.65,19.55-26.13,15.38-4.91,34.26-7.06,50.26-4.45,28.11,4.59,48.9,25.22,70.56,41.89,10.19,7.85,23.93,15.57,30.41,27.05,7.93,14.06-5.53,27.71-12.19,39.37-4.99,8.74-14.45,20.13-3.85,26.61,11.73,7.17,25.4,11.2,36.1,20.12,23.4,19.52-1.36,58.52-8.15,81.32-4.41,14.82,3.6,24.74,9.81,37.69,7.67,16,4.29,27.07-7.26,40.36-6.7,7.71-29.49,21.18-16.39,30.62,10.72,7.72,24.76,10.26,34.55,19.46,17.19,16.17,18.23,54.14,6.65,73.08-7.63,12.49-12.12,24.84-14.99,39.26-2.98,15-4.76,30.6-15.36,42.47-9.22,10.33-21.51,12.27-33.22,18.52-5.96,3.18-11.78,7.04-16.4,12.01-5.26,5.64-7.01,11.34-14.25,14.86-12.51,6.08-26.57,9.42-40.01,12.67-12.73,3.07-30.32,6.17-37.82,18.42-7.85,12.84,6.93,25.26,11.28,36.77,5.21,13.77.44,25.73-12.33,32.7-9.76,5.33-21.69,8.29-32.38,11.16-4.16,1.11-11.81,4.41-16,2.38-5.4-2.62-7.01-12.08-11.29-16.29s-9.11-5.84-14.55-8.12c-2.25-.94-9.69-6.65-12.38-5.25-4.8,2.5,11.32,27.97,13.5,30.91,1.45,1.95,10.42,8.9,10.26,11.17-.43,6.21-12.48,3.36-16.09,3.35-14.07-.03-31.07,1.45-44.83,4.28-29.65,6.09-59.04,6.95-89.16,8.99-13.69.93-26.64-3.88-39.96-2.77-15.72,1.31-31.16,6.35-47.01,7.93-29.83,2.98-63.3-2.37-83.03-27.31-16.57-20.94-22.53-52.06-47.46-65.42-12.4-6.65-15.89-.83-19.38,11.45-4.38,15.39-5.05,31.63-5.37,47.53-.3,15.18-.92,30.25-11.19,42.39-8.84,10.44-21.75,18.17-32.51,26.53-24.01,18.64-53.89,25.07-83.73,27.9-14.71,1.39-30.83-.27-45.06-4.01-17.28-4.54-24.12-12-36.08-24.04-8.17-8.23-22.15-14.39-34.08-13.85-17.54.8-2.48,15.48,4.6,20.35,9.44,6.49,21.61,9.98,30.37,17.19,5.66,4.66,2.57,5.86,3.94,11.28.52,2.05,2.9,4.67,3.77,6.71,1.34,3.16-1.36,4.62,2.22,7.46"/>
  <path class="cls-1" d="M0,149.46c17.76,3.61,34.29,4.83,52.33,3.13,7.06-.67,14.28-.94,21.15-2.88,10.01-2.83,16.65-9.5,24.74-15.61,11.5-8.69,24.08-16.06,35.81-24.5,15.37-11.06,32.03-8.53,49.79-8.25,15.95.26,24.72-11.43,38.58-17.23,15.22-6.37,32.49-6.54,48.7-7.55,16.41-1.02,34.23,2.02,50.29-1.21,18.5-3.72,30.91-14.65,50.3-7.07,15.24,5.96,29.2,12.26,45.25,15.93,15.13,3.46,29.2,9.73,39.57,21.69,9.57,11.03,10.92,24.21,16.58,36.97,2.42,5.47,6.36,13.09,13.32,12.71,5.91-.33,6.98-6.03,10.83-10.9,8.92-11.25,19.11-23.17,33.24-27.58,15.05-4.7,31.72-1.71,47.1-.27,14.23,1.33,25.37,8.08,31.07,21.54,4.8,11.36-1,28.99,7.15,38.23,12,13.6,24.43-5.53,33.49-12.3,13.4-10.01,29.35-16.27,44.33-23.49,14.82-7.14,31.31-15.58,47.08-20.16,15.89-4.62,31.64,4.04,47.81-.29,6.12-1.64,13.18-5.87,19.4-6.19,7.73-.4,11.31,5.1,15.68,10.97,8.35,11.2,16.7,26.09,32.84,24.11,15.28-1.87,26.57-10.01,42.85-6.71,15.7,3.19,27.66,14.26,43.11,17.98,16.19,3.9,28.61,10.58,41.63,20.97s23.68,15.63,38.93,5.75c11.47-7.43,19.22-18.07,23.53-30.91,4.65-13.88,6.6-28.92,18.33-39.01,11.75-10.11,20-5.8,28.56,4.61,9.63,11.72,22.83,19.67,37.96,21.75,36.69,5.04,39.47-38.9,69.8-47.62,33.7-9.68,60.81,9.72,85.76,29.58,11.45,9.12,30.66,19.87,36.1,34.28s-10.71,30.85-17.78,42.3c-21.3,34.5,37.76,29.66,44.99,52.73,3.45,11.02-2.76,24.33-6.41,34.51-2.45,6.83-5.08,13.6-8.26,20.13-3.34,6.86-12.06,15.79-12.62,23.48-.99,13.8,16.36,26.01,17.95,39.9,1.77,15.45-16.46,28.39-27.33,36.31s-21.74,14.81-27.32,27.22c-1.83,4.07-5.62,12.95-1.93,17.07,3.98,4.44,12.18.63,16.86-.15,14.18-2.36,28.84-1.06,41.37,6.29,14.86,8.71,13.89,24.03,11.81,39.33-2.15,15.85-6.41,31.19-8.1,47.19-1.5,14.23-.95,30.67-7.77,43.66-6.35,12.1-18.81,18.26-31.08,22.8-17.12,6.34-31.72,11.3-47.14,21.37-14.13,9.23-28.69,13.36-44.67,17.98-13.54,3.92-25.12,12.26-30.61,25.62-6.16,14.99.16,27.64,7.66,40.62,8.28,14.34,3.55,24.48-13.43,28.11-25.74,5.5-47.63-26.39-73.6-20.09-13.29,3.22-14.37,17.56-5.71,26.6,3.51,3.66,10.27,4.95,6.89,11.49-2.76,5.35-12.42,5.37-17.53,6.59-15.6,3.74-30.02,10.4-45.95,13.07-17.72,2.97-36.07,1.75-53.98,3.51-16.42,1.62-32.3-3.79-48.45-1.08-8.09,1.36-15.73,4.53-23.75,6.08-8.65,1.67-17.64,1.09-26.38,2.1-33.46,3.86-62.24-16.67-79.24-44.28-8.38-13.61-13.4-28.46-22.07-42.03-8.84-13.83-14.01-29.61-24.64-42.31-10.06-12.01-42.78-49.88-51.07-18.12-7.01,26.83,15.12,44.91,20.11,69.64,3.32,16.45-3.57,30.97-2.12,47.28,1.53,17.3,3.75,31.17-10,44.46-23.95,23.16-50.94,39.9-84.69,42.74-16.63,1.4-33.71-.46-49.42-6.2-16.23-5.94-30.31-16.34-45.78-23.86-13.16-6.39-26.61-11.52-38.31-20.5-13.89-10.66-26.06-16.61-42.75-21.69-10.96-3.33-29-14.52-26.88,4.18,1.65,14.53,16.16,26.01,24.97,37.14,9.3,11.75,22.23,20.85,33.46,30.74,6.31,5.56,12.44,10.92,17.74,17.51,3.97,4.93,6.6,11.25,11.67,15.19"/>
  <path class="cls-1" d="M26.74,541.28c4.5,3.82,16.19,3.37,9.51-3.46-2.87-2.93-15.37-1.33-9.51,3.46"/>
  <path class="cls-1" d="M0,559.04c12.27,3.6,25.04,2.4,36.9-2.06,6.44-2.43,26.14-9.14,25.1-18.04-1.01-8.63-19.89-14.59-26.25-17.83-5.25-2.67-10.63-6.63-16.22-8.43-6.51-2.1-12.89-.4-19.52.08"/>
  <path class="cls-1" d="M0,174.31c15.31,5.99,31.46-3.18,45.68-8.09,17.95-6.2,35.53-9.79,51.48-20.64,12.22-8.32,26.45-10.53,37.2-20.99,12.99-12.65,25.44-16.47,43.62-15.4,7.39.43,15.55,2.17,22.81-.23,6.62-2.19,10.23-7.99,15.92-11.78,15.71-10.44,36.91-12.73,55.28-13.35,17.42-.59,36.87,5.36,53.79.79,8.03-2.17,14.57-7.02,22.05-10.38,9.01-4.04,14.44-2.55,23.19,1.28,15.08,6.6,30.22,11.74,46.3,15.19,16.72,3.58,29.66,10.91,36.3,27.46,5.68,14.15,6.41,29.15,12.9,43.13,5.16,11.12,9.45,33.66,26.44,23.43,13.73-8.26,14.94-25.3,21.17-38.45,6.2-13.08,16.92-23.3,31.79-24.89,14.44-1.54,37.24,2.26,46.52,14.57,8.92,11.84,6.28,29.12,9.59,42.89,1.74,7.27,4.17,14.33,4.01,21.9-.11,5.26-2.84,11.83-.97,17,1.58,4.36,5.79,7.95,10.89,6.96,7.8-1.52,10.14-12.91,13.15-18.49,7.31-13.56,20.12-25.56,31.12-36.16,13-12.53,28.59-17.96,45.09-24.34,15.52-6,31.11-17.53,48.06-18.12,9.34-.33,18.49,2.38,27.84,1.86,8.82-.49,19.06-5.63,27.8-3.17,23.1,6.49,18.72,58.35,49.74,36.44,12.61-8.91,26.63-14.94,42.13-9.74,7.28,2.45,12.35,7.13,18.01,12.04,7.32,6.34,13.14,7.84,22.59,9.13,17.13,2.34,27.06,11.82,37.32,24.98,10.57,13.56,23.32,14.47,38.38,6.28,13.41-7.29,27.32-17.6,36.48-29.88,7.29-9.78,16.15-33.22,31.44-31.09,7.26,1.01,14.93,5.22,22.03,7.24,8.42,2.39,16.97,3.8,25.67,4.68,17.43,1.76,29.16-5.31,39.37-19.33,8.55-11.74,14.9-24.7,28.4-31.66,14.73-7.6,32.38-5.66,47.04,1.03,14.91,6.8,28.37,18.77,41.12,28.93,12.08,9.63,28.85,22.36,22.64,39.74-4.69,13.13-25.48,26.32-23.66,40.69,2.16,17.07,25.91,25.43,38.31,32.94,13.82,8.37,9.27,16.32,5.47,29.95-2.15,7.7-2.47,16.02-5.39,23.49-3.47,8.9-10.98,14.49-15.82,22.44-8.57,14.06,5.22,25.02,9.36,38.2,5.58,17.74-6.33,31.18-19.93,41.21-11.64,8.59-27.91,12.68-38.14,22.86-10.82,10.76-8.72,29.19,2.47,38.88,9.76,8.45,23.88,9.2,35.98,11.34,19.23,3.4,23.7,13.74,25.81,31.98,2.03,17.56,3.46,35.57,4.1,53.24s-3.9,29.33-19.38,37.37c-14.71,7.64-31.57,10.12-46.94,16.12-15.95,6.23-31.46,21.98-49.46,19.89-4.79-.55-14.71-7.87-19.02-5.81-4.23,2.02-8.03,13.17-10.39,17-9.62,15.63-19.76,30.75-22.01,49.37-2.01,16.62-4.58,23.76-23.24,24.66-16.76.81-32.16-8.89-48.71-1.34-14.87,6.79-11.65,18.93-15.73,31.81-4.33,13.63-18.25,21.12-31.22,24.64-17.71,4.8-37.2,3.59-55.39,4.84-19.93,1.38-38.95-4.39-58.65.73-15.79,4.11-30.83,6.61-47.22,7.28-16.03.66-34.57-10.83-46.31-21.04-12.21-10.62-21.17-24-27.12-38.97-6.66-16.76-14.85-32.95-22.67-49.22-16.09-33.47-40.65-60.31-65.74-87.18-4.93-5.28-10.33-10.92-13.84-17.16-2.75-4.9-3.77-10.2-10.46-4.74-4.87,3.98-3.49,11.4-3.97,16.96-.82,9.54-4,18.13-5.91,27.39-3.16,15.28,10.88,29.25,14.12,44.26,3.75,17.36,10.83,32.21,16.43,48.95,2.29,6.84,3.93,13.84,4.15,21.09.26,8.82-2.79,17.15-2.75,25.9.09,16.77,11.55,32.39-.96,47.55-8.83,10.71-23.58,22.56-35.44,29.66-15.44,9.24-35.73,12.87-53.51,11.75-17.61-1.11-33.91-7.36-49.66-14.91-17.32-8.3-35.5-15.03-52.2-24.55-14.69-8.37-26.73-20.16-41.06-29.05-6.79-4.21-14.33-6.95-20.97-11.39-7.76-5.2-13.55-12.6-21.02-18.14-13.08-9.7-29.53-13.74-45.36-9.56-10.46,2.76-29.57,9.7-22.85,23.99,4.55,9.66,17.75,13.32,26.06,18.68,5.63,3.63,9.04,8.05,12.8,13.59,5.52,8.14,11.55,14.1,19.03,20.45,13.65,11.57,27.37,23.24,40.16,35.76,5.55,5.43,11.11,10.89,15.67,17.21,4.5,6.24,7.84,13.45,13.96,18.37"/>
  <path class="cls-1" d="M0,581.58c23.89-3.25,41.08-16.95,63.35-24.46,11.07-3.74,52.59-9.59,53.01-26.18.27-10.35-13.51-9.23-20.29-8.64-11.35.99-21.62.79-32.76-1.92-11.66-2.84-22.69-7.18-33.39-12.59-9.48-4.8-18.99-12.24-29.91-13.11"/>
  <path class="cls-1" d="M0,201.34c19.91,1.57,32.85-14.21,48.69-24.11,16.03-10.02,34.74-15.44,51.46-24.25,8.89-4.69,17.62-5.51,26.86-8.8,8.36-2.98,10.44-9.67,15.96-15.94,11.9-13.52,35.08-13.86,51.26-9.13,8.26,2.42,14.83,4.74,20.91-3.02,7.01-8.95,8.09-13.25,19.56-17.86,17.78-7.15,38.52-10.05,57.41-6.58,9.75,1.79,19.84,5.85,29.9,5.2,9.22-.6,16.62-5.87,24.75-9.61,18.41-8.49,35.43,1.65,53.7,5.87,17.08,3.94,34.33,2.99,42.48,21.42,6.81,15.4,6.71,33.96,11.67,50.09,4.69,15.26.67,29.51-2.05,44.62-1.54,8.55-3.67,25.18,9.16,26.11,12.97.94,29.28-19.88,35.55-28.85,11.8-16.89,20.06-34.18,26.52-53.59,6.37-19.14,19.7-27.79,39.52-22.78,19.64,4.96,25.39,18.56,27.44,37.25,2.26,20.66,1.54,39.83.8,60.54-.33,9.28-1.95,17.03-5.39,25.6-2.15,5.36-7.97,17.36-.41,21.23,11.7,5.98,28.68-19.27,33.77-26.34,11.84-16.44,19.14-36.08,31.69-51.73,10.88-13.58,21.67-30.58,38.83-36.05,8.41-2.68,17.08-4.26,25.33-7.47,9.53-3.71,17.64-9.93,26.96-14,10.13-4.43,19.31-3.14,30.01-2.47,9.88.62,20.11-2.1,29.87-.49,18.51,3.04,12.94,22.74,17.49,36.37,5.66,16.93,22.45,10.75,35.1,4.46,16.42-8.17,26.37-24.55,46.28-13.95,7.83,4.17,12.97,11.51,20.57,15.91,7.78,4.51,16.35,5.06,24.8,7.46,7.85,2.24,13.96,6.44,16.6,14.4,2.88,8.67-1.73,18.36,7.72,23.78,13.79,7.91,36.02,1.42,47.82-6.56,16.87-11.41,34.26-21.25,49.1-35.37,16.18-15.4,29.93-16.04,51.54-15.79,15.02.17,30.27,2.23,42.96-7.3,18.17-13.65,25.41-40.55,46.97-49.9,13.7-5.94,28.79-.5,40.9,6.67,13.57,8.03,27.58,18.2,39.5,28.57,12.98,11.28,17.49,23.25,7.51,38.33-7.63,11.54-27.9,24.31-19.39,39.51,7.37,13.15,22.71,18.69,31.89,30.18,6.29,7.87,4.69,14.97,1.12,23.65-1.21,2.94-3.61,6.3-3.87,9.53-.38,4.77,3.18,7.67,3.96,12.04,3.2,17.82-28.24,23.94-18.98,42.44,8.04,16.05,24.3,25.74,9.62,44.38-11.91,15.13-30.33,20.52-47.06,28.35-16.92,7.93-27.58,15.96-23.4,36.23,3.41,16.57,13.93,28.69,29.78,34.77,14.11,5.41,30.68,1.44,33.76,20.57,1.51,9.39-.37,17.77,3.07,26.95,3.28,8.76,8.62,16.57,12.23,25.18,6.03,14.39,6.41,27.47-8.38,35.4-11.7,6.28-25.8,8.32-38.29,12.61-8.97,3.08-17.68,6.34-25.95,11.01-8.57,4.84-14.17,10.41-23.88,5.71-18.28-8.84-27.98-8.8-37.73,10.8-7.61,15.31-18.93,28.56-25.55,44.33-4.5,10.71-8.3,24.63-20.68,28.6-18.26,5.85-39.03-6.36-57.4,2.32-14.37,6.79-7.64,26.26-10.72,38.82-4.23,17.21-19,23.54-35.29,24.93-19.54,1.67-40.07,2.22-59.64,1.37-9.55-.41-18.97-1.41-28.51-.15-10.2,1.34-19.91,5.03-30.14,6.27-21.15,2.57-38.86.38-57.14-11.08-16.59-10.41-29.02-25.02-35.78-43.4-14-38.05-29.73-78.34-53.84-111.23-11.9-16.24-23.16-33.22-35.52-49.09s-28.86-20.98-46.15-30.95c-7.09-4.09-35.26-23.38-40.8-9.18-2.42,6.22,5.24,19.34,7.39,24.67,3.53,8.73,7.08,17.08,12.7,24.7,4.92,6.67,10.11,12.31,12.45,20.44,2.58,8.95,1.98,18.43,3.55,27.55,1.54,8.93,5.62,16.44,9.96,24.28,5.44,9.83,8.51,19.62,11.7,30.3,5.66,18.94,11,37.41,10.72,57.4-.13,9.45-1.02,18.51,1.42,27.76,2.5,9.46,8.34,19.22,6.19,29.31-3.1,14.51-23.93,29.68-36.05,36.68-15,8.67-33.32,11.37-50.32,8.81-20.05-3.01-38.84-12.12-57.56-19.47-19.16-7.53-36.92-15.93-53.46-28.3-15.51-11.6-33.6-21.03-48.31-33.37-14.42-12.1-23.84-26.92-43.31-31.63-19.33-4.68-38.4,4.48-57.8,3.9-7.54-.23-15.89-5.25-23.1-4.16-7.82,1.18-14.3,10.25-14.66,17.79-.88,18.21,20.39,31.68,34.73,37.37,8.07,3.2,16.38,6.01,24.07,10.1,9.65,5.12,14.38,13.05,22.48,19.91,13.84,11.7,28.94,21.96,42.86,33.53,7.38,6.14,14.4,13.78,19.87,21.66,4.73,6.81,7.26,15.58,13.52,21.23"/>
  <path class="cls-1" d="M0,601.42c12.55-3.86,21.84-6.75,32-15.44,8.95-7.65,18.47-15.31,29.53-19.72,21.91-8.74,46.24-12.12,68.97-18.13,11.73-3.1,22.4-9.4,26.35-21.6,4.91-15.18-10.34-19.08-22.23-19.79-11.69-.7-23.59-1.9-35.03,1.11-12.25,3.22-22.82,5.4-35.55,2.9-12.97-2.54-26.04-6.59-36.15-15.28-10.34-8.89-18.38-19.86-27.89-29.46"/>
  <line class="cls-1" y1="232.1" x2="1.53" y2="231.58"/>
  <line class="cls-1" x1="617.2" y1="277.23" x2="618.2" y2="276.09"/>
  <line class="cls-1" x1="1283.64" y1="565.65" x2="1284.42" y2="566.45"/>
  <line class="cls-1" x1="802.01" y1="670.78" x2="801.86" y2="670.45"/>
  <line class="cls-1" x1="365.79" y1="714.41" x2="364.62" y2="714.17"/>
  <path class="cls-1" d="M0,627.96c7.52-4.94,16.29-7.46,23.2-13.38,6.85-5.87,11.39-13.53,16.75-20.64,12.83-16.99,27.72-22.56,47.84-27.42,17.44-4.21,35.32-6.21,52.72-10.42,7.43-1.8,14.95-4.2,21.4-8.43,7.63-5,12.31-12.89,18.98-18.94,6.68-6.06,8.91-8.94,10.15-18.08.92-6.8,1.64-13.66,6.27-19.18,1.53-1.82,9.27-5.93,7.97-8.59-2.46-5.03-17.68,2.36-21.29,3.4-8.58,2.49-17.36,1.65-26.08,3.54-8.86,1.92-17.57,2.99-26.63,3.41-18.52.85-35.36,9.81-53.55,10.31-15.67.43-33.02-4.18-43.01-16.88-5.86-7.46-9.78-16.3-14.68-24.38-5.53-9.12-12.42-16.31-20.05-23.66"/>
  <path class="cls-1" d="M0,253.04c9.73-4.36,17.41-10.19,28.44-11.47,7.4-.86,15.86,1.48,22.96-1.31,11.22-4.42,6.64-13.94,6.06-23.2s2.6-19.47,8.34-26.59c6.48-8.05,17.09-12.16,25.95-16.96,10.64-5.77,20.56-10.33,32.65-12.08,10.63-1.54,21.38-.7,30.19-7.73,8.57-6.84,14.43-13.26,26.27-13.61,10.91-.32,21.68,5.46,32.58,2.33,9.63-2.76,13.93-11.47,19.51-18.88,11.02-14.64,36.67-24.93,54.13-16.55,8.74,4.2,16.03,10.72,25.75,12.89,10.96,2.46,21.31-.97,31.05-5.9,8.65-4.38,16.53-9.22,26.34-10.54,12.28-1.65,23.78,2.4,35.8,4.05,9.68,1.33,20.99-.62,19.91,11.21-.97,10.67.91,20.61-1.59,31.4-2.49,10.72-4.78,21.59-6.38,32.49-1.82,12.34.66,24.13.86,36.43.16,10.01-4,19.08-4.68,28.98-.74,10.76,1.13,22.02,2.07,32.75,1.79,20.49,20.2,27.71,37.56,16.64,8.08-5.15,13.66-13.57,19.5-20.94,7.39-9.31,15.51-18.09,24.86-25.47,6.62-5.22,15.05-9.66,19.71-16.93,5.39-8.41,5.08-21.3,7.87-30.95,2.99-10.32,6.8-20.19,10.46-30.27,2.83-7.82,4.08-17.91,10.44-23.87,6.35-5.94,14.77-5.28,20.69.85,6.84,7.07,7,18.65,7.22,27.87.57,23.5-5.9,45.15-16.78,65.85-4.58,8.71-9.22,17.02-13.26,25.99-4.57,10.14-12.52,17.36-19.67,25.67-13.78,16.03-34.51,22.38-40.38,43.99-1.92,7.08-4.65,17.74,5.49,19.68,8.7,1.66,20.16-8.12,28.07-11.2,20.51-8,40.79-14.6,58.96-27.47,8.92-6.32,17.87-12.35,27.32-17.87,10.08-5.89,15.92-13.22,23.92-21.51,6.88-7.14,13.1-13.81,16.91-23.12,4.63-11.31,7.11-23.34,12.15-34.52,8.59-19.06,24.54-37.98,45.01-44.52,9.32-2.98,19.39-2.62,28.65-5.46,9.81-3.01,13.33-12.69,22.21-16.97,11.37-5.49,28.83-4.02,38.18,4.88,14.5,13.78-4.89,38.2,9.78,50.98,7.66,6.67,16.99,1.01,24.61-2.4,12.25-5.48,24.78-10.28,37.03-15.77,7.79-3.49,18.51-12.13,27.38-9.53,8.1,2.37,16.74,12.77,20.88,19.83,4.9,8.36,5.71,18.05,3.6,27.41-1.38,6.12-10.77,18.56-9.3,24.44,1.19,4.75,5.6,3.89,9.56,3.74,5.74-.23,8.82-.09,14.56,1.09,10.07,2.09,20.2.17,30.44.18,11.76,0,19.19-4.66,29.59-9.42s22.19-7.95,32.82-13.06c10.55-5.08,20.57-11.1,31.29-15.87,9.8-4.36,20.44-7.42,29.01-14.05s14.99-13.46,25.1-17.51c9.51-3.81,19.73-5.27,29.74-7.11,21.11-3.87,39.46-10.07,52.03-28.38,11.27-16.41,24.88-37.38,47.66-28.53,10.25,3.98,19.83,10.62,28.43,17.35,6.62,5.18,17.11,12.4,18.51,21.44,2.42,15.59-20.58,28.47-26.02,41.86-8.55,21.02,13.3,32,21.12,48.34,4.46,9.32,3.08,20.56,3.68,30.58.6,10.03,1.68,17.15-4.89,25.39-5.19,6.51-12.49,12.43-14.74,20.79-2.97,11.05,4.36,20.02,6.45,30.42,4.04,20.11-21.46,25.28-36.26,28.72-20.55,4.77-37.99,2.13-43.4,26.93-4.29,19.67-5.2,45.73,5.64,62.97,11.81,18.8,30.53,30.91,44.52,47.75,7.77,9.36,32.45,41.14,17.34,51.69-6.73,4.7-18.57,6.94-26.3,9.1-12.42,3.47-24.59,1.65-37.13,3.52-22.68,3.37-35.31,24.88-48.96,40.98-7.18,8.46-14.68,16.29-22.75,23.91-6.9,6.51-13.76,14.84-23.67,16.36-17.29,2.65-36.54-9.58-53.91-11.79-13.64-1.74-31.07-.41-35.58,15.29-5.5,19.12,11.84,39.98,21.67,54.55,2.87,4.25,7.14,10.68,6.56,16.13-1.14,10.86-12.86,5.67-20.38,5.31-10.37-.5-20.77,1.83-31.06,2.73-12.43,1.08-24.49-.26-36.89-.93-23.43-1.27-46.73,9.33-69.99,4.57-19.89-4.07-42.21-19.01-50.2-38.03-8.68-20.64-11.91-42.5-21.65-62.9-9.85-20.62-13.49-44.18-26.43-63.12-12.61-18.46-28.93-34.2-37.65-55.19-3.84-9.23-3.75-19.37-8.85-28.1-5.19-8.88-13.03-18.53-21.23-24.72-7.38-5.57-16.91-10.03-25.23-14.03-10.78-5.18-23.09-5.8-34.05-10.86-8.75-4.04-17.19-10.15-27.23-10.27-12.53-.15-14.8,6.54-19.84,15.94-4,7.47-11.42,12.82-15.7,20.32-5.01,8.77-8.72,21.01-6.11,31.07,2.63,10.12,12.55,17.24,19.61,24.35,7.95,8.01,14.39,16.54,19.68,26.52,10.56,19.92,19.37,40.77,29.97,60.69,10.39,19.53,28.1,34.06,30.78,57.08,1.29,11.11.46,23.09-5.27,32.96-4.46,7.68-17.45,14.74-12.42,24.71,7.21,14.28,36.03,25.2,26.41,45.96-6.81,14.69-32,29.59-47.73,29.99-9.82.25-20.45-5.19-29.83-7.78-11.17-3.09-21.69-7.61-32.55-11.61-22.05-8.12-41.46-14.14-60.09-29.09-8.36-6.71-16.35-13.92-25.2-20.01-8.11-5.57-17.06-8.93-23.23-16.92-11.78-15.26-21.23-35.49-41.11-42.06-20.68-6.83-42.93,11.62-64.6,9.65-11.35-1.03-22.24-5.16-33.43-7.18-13.1-2.37-26.26-3.1-39.54-3.47-11.61-.32-21.61-3.07-32.78-6.01-5.11-1.35-10.26-2.35-15.12-4.49-3.04-1.33-11.49-7.72-15.31-6.22-9.73,3.81-2.77,26.84.11,33.33,4.27,9.62,10.37,18.21,14.15,28.09,1.88,4.92,3.6,10.18,3.92,15.48.36,5.94-2.43,10.65-2.55,16.34-.23,10.65,8.96,8.73,16.75,9.83,12.77,1.81,22.13,9.08,33.8,13.67,22.24,8.76,46.65,5.42,69.32,11.46,19.76,5.26,38.83,18.55,55.14,30.46,8.9,6.5,18.81,12.62,25.99,21.11,6.61,7.82,8.78,17.82,13.89,26.5"/>
  <path class="cls-1" d="M0,650.82c15.64-4.44,35.75-21.33,42.13-36.24,7.53-17.59,14.11-31.61,33.64-37.62,22.97-7.07,45.47-8.78,69.19-11.49,9.16-1.05,22.46.31,30.95-3.36,8.77-3.79,9.29-13.77,12.32-21.76,6.89-18.23,19.94-33.65,31.35-49.04,11.52-15.53-3.96-35.42-22.39-31.43-18.74,4.06-37.38,8.54-54.76,16.74-8.88,4.19-18.1,4.55-27.35,7.41-10.07,3.11-19.39,9.12-29.73,11.24-18.29,3.75-36.61-6.29-45.05-22.4-5.64-10.75-8.86-22.25-16.58-31.87-7.44-9.27-16.38-17.27-23.72-26.65"/>
  <path class="cls-1" d="M0,274.07c9.46-6.09,15.01-15.32,25.97-19.71,11.53-4.62,23.83-2.27,35.51-5.51,8.16-2.27,15.84-8.54,17.87-17.06,2.26-9.44-6.77-15.75-5.56-25.88,1.25-10.53,6.39-14.48,14.7-19.97,10.02-6.61,18.21-13.72,30.3-16.27,10.61-2.24,21.69-.28,32.19-2.81,10.41-2.51,18.21-10.61,28.56-13.41,10.28-2.78,19.43.99,29.63,1.58,12.2.7,18.19-6.52,24.37-16.13,5.74-8.92,9.32-17.16,19.97-21.06,11.39-4.17,20.67-.68,31.37,3.31,9.86,3.68,20.49,9.51,31.16,9.67,11.43.18,23.32-3.36,33.48-8.34,10.21-5.01,18.79-10.52,30.52-11.04,8.74-.39,24.85.69,30.78,8.25,14.21,18.12-6.92,39.34-14.81,54.38-5.23,9.97-1.72,19.95-.77,30.63,1.27,14.36-1.76,27.91-1.62,42.13.11,11.56,7.47,20.41,7.79,31.97.23,8.33-2.53,19.38,2.74,26.74,10.14,14.15,42.57,9.72,56.67,4.35,10.2-3.89,11.3-12.54,16-21.32,5.99-11.19,14.63-16.85,24.47-24.14,7.54-5.59,14.91-11.63,22.35-17.35,10.41-8,7.08-15.08,8.25-26.73,1.04-10.33,5.05-20.46,6.66-30.8,1.7-10.87,6.87-18.97,10.99-28.86,3.7-8.89,11.68-9.84,13.85.49,2.18,10.38,2.65,23.99.24,34.29-2.34,9.98-5.46,22.19-10.71,31-5.58,9.36-11.73,15.09-12.87,26.05-2.04,19.56-18.2,39.53-34.77,49.93-7.98,5.01-21.22,6.44-27.18,13.97-5.82,7.36-6.26,21.06-10.21,29.81-3.58,7.94-8.1,15.12-16.37,18.73-9.27,4.05-20.34,1.65-29.33,6.41-7.42,3.93-12.68,14.36-6.57,21.73,6.2,7.47,20.28,6.88,28.63,5.05,11.01-2.41,19.84-8.11,28.6-14.93,10.08-7.84,21-13.21,32.49-18.7,22.67-10.83,46.93-15.79,68.07-29.91,19.17-12.81,38.46-26.59,55.29-42.31,8.05-7.52,17.22-13.74,22.76-23.55,5.77-10.22,6.85-22.12,10.54-33.08,7.53-22.4,23.63-40.74,46.45-48.04,10.35-3.31,21.71-4.33,31.33-9.64,8.79-4.86,14.61-14.57,25.27-15.47,26.52-2.24,20.87,24.02,19.96,41.2-1.62,30.37,30.55,19.19,47.85,11.65,14.76-6.44,48.29-22.55,62.17-8.1,17.65,18.38-8.5,30.88-13.18,46.62-6.54,21.97,28.95,19.22,40.53,18.43,11.81-.8,23.39-.5,35.2-.56,13.44-.06,23.22-4.3,34.6-11.03,9.71-5.74,19.53-9.09,30.16-12.66,12.09-4.06,23.1-10.52,34.88-15.34,9.33-3.82,21.06-5.58,29.45-11.25,8.77-5.93,13.42-15.58,23.17-20.89,20.66-11.27,45.95-8.88,66.65-21.33,17.74-10.67,25.55-39.38,46.96-43.58,14.77-2.9,43.29,13.44,48.99,27.96,6.71,17.09-25.83,34.58-27.58,52.38-1.12,11.35,6.69,20.4,12.91,29.01,7.27,10.08,10.52,19.93,11.52,32.3.79,9.82.98,19.64-2.88,28.89-4.56,10.93-13.22,19.47-17,30.87-3.12,9.39-2.23,20.06-6.6,29.04-6.05,12.42-14.81,11.45-26.6,10.1-17.05-1.95-45.15-10.76-43.88,15.51.44,9.06,2.42,17.74,2.36,26.91-.11,14.24-4.18,27.43-8.67,40.82-2.97,8.88-8.16,18.69-5.91,28.32,2.44,10.47,13.45,16.89,21.22,23.27,15.21,12.49,40.33,28.75,46.38,48.67,6.88,22.65-21.78,18.01-34.68,20.49-20.18,3.88-39.66,18.89-51.7,35.2-12.92,17.51-24.84,39.36-48.32,44.2-24.11,4.96-48.6-9.23-73.15-4.3-9.48,1.9-20.12,6.79-25.73,15.09-6.91,10.21-.08,23.5,4.51,33.36,3.78,8.12,12.69,20.49,11.01,29.92-1.81,10.16-15.43,13.25-23.87,14.78-11.51,2.09-22.75.92-34.22-.7-13.95-1.97-25.51-1.13-39.17,2.13-24.29,5.8-47.07,1.63-65.7-16.04-16.71-15.86-16.48-39.68-23.25-60.23-3.77-11.43-10.93-21.69-15.58-32.8-4.65-11.12-6.02-22.69-9.07-34.25-5.66-21.44-25.75-34.61-37.19-52.99-11.96-19.21-20.17-42.37-19.9-65.35.08-6.96,3.18-15.02.8-21.85-3.45-9.91-17-8.63-25.32-12.07-10.24-4.23-18.05-12.16-28.53-16.09-13.44-5.04-20.71-4.72-34.08-.93-10.15,2.88-19.77-2.5-30.27-2.2-9.31.27-21.44.33-29.82,4.8-9.3,4.96-13.06,16.43-18.12,25.11-6.34,10.87-11.29,19.36-9.71,32.33,1.35,11.07,2.58,23.32,7.57,33.42,5.26,10.66,14.71,17.82,23.56,25.34,18.58,15.81,18.48,41.71,30.99,61.88,6.35,10.23,13.79,20.12,21.33,29.5,6.97,8.66,16.59,16,22.35,25.49,10.66,17.55,5.7,44.34-12.51,54.45-6.96,3.86-17.27,5.37-17.98,14.38-.96,12.23,9.59,17.36,18.65,21.9,19,9.53,29.87,26.45,9.13,41.51-21.47,15.59-42.51,6.81-64.81-1.97-21-8.27-46.47-11.59-65.27-24.22-9.08-6.1-16.86-13.87-25.19-20.91-9.75-8.24-21.05-15.17-29.5-24.83-14.82-16.95-25.24-36.8-43.68-50.63-18.39-13.8-37.2,8.24-54.81,13.38-23.01,6.72-43.78-6.42-65.4-12.23-22.22-5.98-45-.12-64.8-15.01-7.29-5.48-14.34-13.7-24.18-13.98-10.91-.31-15.45,10.98-18.92,19.67-8.4,21.07,9.47,48.18,14.74,68.77,3.1,12.13-1.59,18.27-5.86,29.26-3.96,10.19-3.27,21.96-.04,32.32,7.14,22.87,25.33,15.76,42.75,9.8,23.05-7.88,48.38-4.96,72.29-2.78s49.22,9.77,70.83,22.46c10.03,5.9,20.33,13.06,29.06,20.77,3.99,3.53,7.68,7.28,10.08,12.09,2.74,5.5,2.7,12.01,5.77,17.35"/>
  <path class="cls-1" d="M0,666.83c2.68-1.5,3.54-5.08,6-7.01,1.63-1.28,6.27-2.54,7.92-3.25,4.08-1.77,9.37-3.11,13.06-5.63,9.66-6.58,18.69-21.13,22.86-31.75,3.96-10.08,6.36-20.21,14.65-27.89,10.1-9.37,25.7-11.57,38.83-13.34,15.09-2.03,30.65-3.01,45.88-2.32,15.06.68,19.67,5.88,29.64,15.54,9.04,8.76,19.92,15.55,30.42,22.35,5.55,3.6,8.97,6.77,15.67,4.23,6.59-2.5,13.37-9.97,16.37-16.05,12.25-24.78-28.97-33.72-37.67-51.51-11.39-23.29,19.42-45.13,30.19-62.46,5.46-8.79,10.97-22.66,2.19-31.04s-25.48-15.6-37.97-14.96c-12.6.65-21.86,8.17-34.92,6.9-15.91-1.55-25.32,5.94-36.09,17.06-9.69,10.01-23.53,15.87-36.62,20.44-15.83,5.52-30.57-3.02-39.25-16.36-8.55-13.13-14.29-27.92-22.94-41.05-8.87-13.47-18.07-27.63-28.22-40.16"/>
  <path class="cls-1" d="M0,342.68c3.59-9.19,10.78-15.55,9.89-25.89-1.15-13.28-4.79-24.23,3.23-36.53,12.44-19.08,35.06-22.84,56.02-22.6,6.43.07,15.09,1.54,20.25-3.31,6.26-5.88,5.8-19.64,5.39-27.46-.49-9.19-2.67-17.97.83-26.9,3.73-9.52,12.35-18.23,21.9-21.91,9.56-3.69,20.17-2.04,29.99-.56,13.36,2.01,16.27-6.52,27.14-12.05,20.32-10.33,42.49,9.21,59.08-10.39,5.84-6.9,9.34-15.86,15.92-22.11,8.77-8.33,18.66-4.35,29.32-2.46,24.22,4.31,48.37,14.37,72.72,3.45,12.99-5.83,32.5-24.16,47.02-9.46,13.88,14.06-14.94,38.13-18.6,51.9-2.94,11.08-1.86,23.6-3.17,34.99-1.37,11.91-5.32,23.26-6.64,35.04-.6,5.37-.4,10.69,1.78,15.7,1.39,3.19,5.31,6.16,4.9,10-.53,4.91-6,7.21-8.96,10.41-4.18,4.53-5.64,9.68-8.09,15.19-5.96,13.42-22.43,34.07.89,39.62,7.81,1.86,15.98-.05,23.72,2.01,4.87,1.29,9.79,5.75,14.86,5.57,5.64-.2,10.26-5.16,14.53-8.42,7.46-5.69,44.7-25.44,43-1.5-.54,7.63-8.73,14.82-14.77,18.51-12.05,7.38-18.61.5-30.57.67-18.97.26-13.85,38.02-4.34,46.81,15.28,14.12,43.83,6.89,60.56-.38,20.17-8.78,34.29-26.06,54.56-35.04,22.2-9.84,46.49-14.19,66.19-29.37,18.19-14.02,35.78-28.77,53.52-43.35,8.06-6.62,16.21-12.85,20.81-22.49,4.66-9.77,4.55-20.54,7.57-30.74,6.05-20.4,20.92-34.44,40.21-42.38,9.13-3.76,18.87-5.78,27.78-10.1,7.43-3.6,17.26-14.73,25.91-14.38,20.35.83,4.92,40.68,15.18,51.6,15.38,16.36,43.06,5.94,60.09-1.06,9.19-3.78,18.34-6.39,27.49-.95,9.87,5.87-2.36,14.92-6.62,22.51-6.59,11.74-12.81,39.13,6.12,42.64,22.49,4.18,47.44-7.35,69.97-8.02,11.3-.34,22.82,3.02,33.98.78,11.12-2.22,20.18-9.02,29.83-14.5,9.62-5.47,20.2-7.12,30.46-11.01,11.79-4.47,22.98-10.39,34.8-14.79,9.26-3.44,18.6-5.7,26.52-11.93s13.61-15.55,23.09-20.77,21.21-6.2,32.08-8.36c12.33-2.45,24.73-6.86,35.54-13.36,13.8-8.3,19.07-24.15,31.42-33.87,13.6-10.71,40.21-4.03,44.57,14.2,4.83,20.19-26.78,29.97-30.35,47.37-1.9,9.29,7.47,20.34,11.92,28.08,5.52,9.61,11.18,19.02,13.45,30.02,2.36,11.4,2.66,24.43-1.53,35.45-4,10.5-12.31,18.73-17.66,28.5-4.13,7.54-7.44,15.52-15.39,19.83-8.36,4.53-18.63,4.28-27.83,4.67-18.14.77-39.2,4.39-36.16,27.27,2.71,20.42,13.26,42.05-7,57.11-7.2,5.35-13.41,5.16-21.78,5.33-9.83.2-13.79,2.84-12.55,12.86,2.45,19.7-11.69,38.56,11.89,49.83,14.69,7.02,32.51,11.92,42.89,25.4,14.89,19.35-3.63,37.39-18.62,49.33-8.88,7.07-18.36,13.15-23.86,23.42-5.73,10.69-9.4,19.04-19.24,26.88-35.28,28.14-79.69-5.94-117.13,14.55-19.48,10.66-19.65,29.82-10.42,47.65,4.14,7.99,10.3,16.08,12.1,25.05,2.27,11.31-8.23,14.5-17.89,15.62-12.02,1.4-21.81-4.57-33.26-6.65-13.22-2.4-23.3,3.64-35.34,7.65-21.92,7.3-45.75-3.19-58.06-22.46-12.49-19.56-11.34-42.55-21.9-62.46-5.27-9.95-10.03-19.86-12.72-30.84-2.65-10.8-2.56-22.14-5.58-32.83-3.36-11.88-10.44-16.43-19.44-23.89-9.75-8.08-17.38-19.42-23.32-30.5-10.61-19.8-11.6-46.25-6.82-67.88,1.7-7.7,9.03-21.05,6.1-28.57-3.34-8.55-19.72-12.03-27.62-14.01-23.71-5.94-50.67-14.25-75.19-14.14-23.88.11-49.97,7.82-71.08,18.81-10.11,5.26-18.58,13.14-29.01,17.84-7.89,3.56-16.96,5.37-22.37,12.74-16.1,21.94,13.27,37.63,20.36,55.5,3.42,8.62,2.77,18.39,7.73,26.5,6.18,10.11,18.06,15.04,25.9,23.63,13.52,14.8,9.57,37.2,19.92,53.73,12,19.15,31.62,33.05,47.39,48.74,7.76,7.72,12.04,16.38,9.64,27.46-2.15,9.98-5.41,19.46-15.75,22.2-21.01,5.57-31.65,23.13-14.42,40.83,8.11,8.34,34.39,15.93,29.31,30.9-7.18,21.16-37.25,14.65-51.48,8.18-11-5-21.09-11.53-32.85-14.75-12.32-3.38-25.25-4.24-36.67-10.4-17.39-9.38-33.51-26.69-47.34-40.64-15.9-16.03-25.51-38.12-42.99-52.47-7.52-6.17-16.48-11.49-25.91-14.11-13.07-3.63-18.76.86-28.34,8.88-20.94,17.54-38.32,14.48-62.17,4.9-21.66-8.7-46.9-8.26-66.95-20.54-10.14-6.21-19.16-13.83-29.93-19.04-5.6-2.71-15.57-10.74-21.53-8.19-6.88,2.94-10.7,16.19-12.77,22.46-3.38,10.24-13.19,19.51-12.26,30.6.85,10.19,7.43,19.29,8.62,29.61,1.45,12.62-1.96,25.33-2,37.96-.04,12.68,3.19,24.95,3.05,37.72-.12,10.93-.54,22.81,2.51,33.44,6.8,23.68,33.51,12.84,49.84,6.15,23.74-9.73,47.34-11.97,72.85-11.1,23.68.8,45.39,7.64,66.92,17.5,10.04,4.6,20.6,10.98,29.24,17.87,3.96,3.16,8.06,6.55,10.31,11.19,2.59,5.36,1.54,11.47,3.88,16.9"/>
  <path class="cls-1" d="M490.32,287.07c3.56-4.53,11.05-13.08,17.94-12.1,5.99.85,6.39,6.65,3.82,11.34-4.81,8.79-33.17,20.89-21.76.76"/>
  <path class="cls-1" d="M0,688.97c3.66-3.9,9.77-10.08,14.35-12.77,4.34-2.56,6.81-.45,10.99-2.32,3.3-1.47,4.36-6.61,6.54-9.54,4.46-6.01,9.24-11.43,13.38-17.81,13.67-21.05,12.82-51,41.32-57.41,12.15-2.73,24.9-3.96,37.33-4.15,11.98-.19,28-1.54,38.48,5.41,9.21,6.11,16.85,18.99,22.71,28.14,6.65,10.4,11.3,23.65,9.9,36.27-1.36,12.32-14.89,13.3-17.71,24.26-3.5,13.58,13.76,21.3,14.4,33.77.3,5.88-3.51,11.25-6.96,15.72-3,3.89-11.25,9.26-13.04,13.58-2.42,5.85,2.62,8.21,6.16,12.66,4.48,5.63,8.32,12.3,11.15,18.92,8.57,20.02-2.89,55.01,15.9,69.63,19.7,15.32,47.82-1.57,67.8-6.78,15.89-4.14,32.74-5.8,49.07-7.19,14.9-1.27,30.84-1.47,44.63,4.98,15.02,7.02,30.28,13.27,45.1,20.8,14.16,7.2,17.31,14.3,21.11,29.39"/>
  <path class="cls-1" d="M8.91,345.77c3.03-10.62,7.38-19.72,7.83-30.93.5-12.44,1.92-23.2,10.53-32.93,12.15-13.73,34.79-22.11,50.21-8.67,12.48,10.88,22.42,46.12,45.57,32.49,24.43-14.39.01-39.07-8.5-55.01-9.55-17.89-10.91-39.87,2.83-56.09,7.29-8.61,13.9-8.75,24.42-7.03,13.36,2.18,18.73-.83,28.62-9.44,19.52-16.99,42.4,5.17,61.64-8.78,7.63-5.53,12.24-14.03,18.93-20.5,8.95-8.66,19.94-10.16,32-8.68,11.74,1.44,23.01,5.49,34.77,6.9,13.23,1.58,26.94-.7,40.06,1.36,21.08,3.31,8.82,48.37,2.69,61.19-4.65,9.73-13.75,15.44-18.75,24.48-4.9,8.85-4.52,21.94-5.9,31.8-1.32,9.4,2.57,21.7-1.26,30.32-4.76,10.73-13.96,16.77-14.47,29.77-.88,22.47,30.58,26.1,45.1,36,6.88,4.69,15.12,11.33,15.92,20.26.96,10.79-2.04,17.25,8.59,24.53,20.8,14.25,46.13,10.96,69.15,6.19,10.13-2.1,20.71-4.99,29.23-11.12,8.86-6.37,14.92-15.6,24.12-21.68,20.31-13.43,44-18.38,66.57-26.45,9.89-3.53,18.43-8.01,25.44-15.94,7.91-8.96,16.08-13.91,25.22-21.31,8.29-6.72,15.85-14.15,24.29-20.74,9.23-7.2,17.72-13.92,21.25-25.5,6.69-21.97,6.16-43.82,27.21-58.09,9.21-6.24,19.09-8.45,29.61-11.32,5.11-1.4,10.22-2.95,14.58-6.09,2.95-2.13,6.3-8.08,10.12-8.51,11.44-1.28,2.73,34.49,8.08,42.53,11.31,17,40.84,9.95,56.74,10.78,24.98,1.31,17.18,28.59,10.8,44.11-4.77,11.6-5.01,15.55,3.89,24.33,6.42,6.34,13.71,18.84,23.25,18.31,10.19-.57,19.12-11.05,26.24-17.15,9.27-7.94,19.77-13.27,31.22-17.4,11.42-4.13,22.3-5.72,34.33-3.52,14.24,2.6,21.58,3.06,34.64-3.86,22.67-12.02,46.35-20.8,69.68-31.27,9.58-4.3,20.04-5.34,29.66-9.24,10.67-4.32,16.66-12.86,23.82-21.33,7.63-9.03,16.88-11.4,28.23-12.89,13.08-1.72,23.87-4.23,36.14-9.26,8.85-3.63,21.04-5.7,28.68-11.59,8.89-6.86,7.81-19.94,16.07-27.56,6.57-6.06,15.92-6.49,22.98-.83,9.45,7.59,3.66,17.2-4.05,23.46-5.96,4.84-14.49,7.54-18.76,14.3-5.87,9.29-2.26,20.95,1.81,30.16,9.74,22.04,23.34,42.68,19.8,68.02-2.59,18.54-18.22,43.13-36.51,49.38-19.24,6.57-51.16-4.91-63.35,15.51-11.29,18.91,7.17,38.04,5.23,57.48-.82,8.2-5.68,16.53-14.84,13.42-4.73-1.61-8.12-5.79-13.24-7.27-4.68-1.36-10.33-2.03-15.19-1.76-24.06,1.33-29.83,30.38-21.17,48.39,9.96,20.7,17.77,42.01,37.47,55.24,15.6,10.47,45.52,24.54,25.85,46.18-7.58,8.34-18.17,13.21-25.46,21.95-7.32,8.77-10.97,19.88-17.9,28.88-12.35,16.05-32.87,17.9-51.66,15.62-11.6-1.4-22.79-5.23-34.42-6.32-11.94-1.12-24.43,1.89-35.68,5.8-25.8,8.96-25.59,32.58-24.87,56.29.3,10.05-.39,15.9-10.38,19.06-11.43,3.61-22.14,6.63-32.9,12.13-9.65,4.93-19.19,10.41-30.19,6.63-10.98-3.77-20.81-13.98-27.02-23.51-5.79-8.87-9.84-19.16-11.09-29.62-1.57-13.09-8.7-22.01-13.69-34.15-4.7-11.44-8.03-23.05-9.34-35.35-1.12-10.49-1.35-21.62-4.35-31.81-2.93-9.93-8.14-11.56-16.4-16.6-9.59-5.86-16.78-14.32-23.05-23.53-6.69-9.83-9.48-19.39-9.74-31.26-.27-12.01-1.23-26.64,1.95-38.23,2.71-9.86,7.45-18.63,4.77-29.14-2.67-10.47-12.16-18.95-18.76-27.13-6.91-8.56-14.71-7.78-25.46-8.03-13.13-.31-25.95-1.53-39.02-2.6-12.65-1.03-22.16-1.96-34.05-6.45-11.4-4.31-22.09-2.27-32.27,4.32-18.42,11.91-35.89,29.61-58.51,33.44-16.62,2.81-42.51,1.6-55.78,14.76-16.68,16.54-9.3,44.28,6.26,58.27,6.64,5.98,19.09,9.23,22.93,17.59,3.52,7.68-.29,17,3.99,24.9,4.95,9.13,16.63,11.88,24.88,17.16,9.83,6.3,17.24,14.58,21.14,25.71,3.75,10.69,2.27,23.31,8.23,33.08,6.23,10.21,16.85,18.47,24.69,27.48,7.63,8.78,14.57,17.95,24.24,24.63,6.45,4.46,19.23,7.9,14.78,17.32-3.89,8.22-16.07,13.95-22.86,19.09-8.54,6.47-17.64,15.46-20.16,26.3-4.9,21.15,14.55,28.82,28.83,38.13,19.45,12.68.09,25.57-16.4,20.33-9.09-2.89-14.63-9.82-22.12-15.19-10.62-7.62-24.05-7.02-36.49-8.79-10.61-1.51-21.29-4.06-29.86-10.84-9.44-7.45-16.97-17.39-25.99-25.38-8.54-7.57-16.17-15.66-22.97-24.85-7.21-9.75-12.52-21.7-20.76-30.57-11.95-12.88-38.76-26.21-56.46-22.59-15.27,3.12-23.22,19.6-37.82,23.96-9.03,2.69-17.43-1.8-25.57-5.36-12.74-5.57-25.13-9.71-38.59-13.21-18.4-4.78-41.6-17.93-44.98-39.19-3.12-19.64,34.24-32.7,47.26-40.05,5.97-3.37,20.7-9.78,16.56-19.03-4.23-9.43-19.99-4.49-27.02-3.43-24.59,3.68-46.44,12.39-69.53-1.48-7.79-4.68-17.15-11.32-20.19-20.35-3.84-11.4,4.99-22.62,11.72-30.99,14.78-18.38,34.98-34.66,41.83-58.23,5.4-18.59-26.96-22.72-38.7-23.72-25.24-2.16-50.61-1.11-74.94,6.52-10,3.14-20.27,7.91-29.51,12.85-9.85,5.27-6.69,12.8-13.57,19.9-14.81,15.28-40.65,13.1-52.51-3.38-12.65-17.58-16.77-39.35-28.5-57.07-13.3-20.09-32.19-34.88-21.68-61.85"/>
  <path class="cls-1" d="M0,723.3c4.94-3.38,7.48-9.93,12.52-12.96,4.18-2.51,5.55-.54,9.54-.55,6.43-.02,4.86-.04,8.07-5.65,3.21-5.62,5.88-10.86,8.03-17.06,4.26-12.28,8.48-23.8,14.34-35.44,6.29-12.49,9.55-25.83,15.16-38.54,9.71-21.99,42.01-20.46,62.5-18.42,12.37,1.23,23.25,3.65,31.22,13.79s15.09,23.55,15.1,36.5c0,11.98-8.32,21.49-9.81,33.31-.79,6.31-.93,12.64.22,18.9,1,5.48,4.33,11.49,2.65,17.14-3,10.09-16.83,12.04-20.2,22.44-4.26,13.15,7.4,23.27,14.66,32.39,7.29,9.17,13.74,19.76,17.3,30.96,4.03,12.7.84,27.2,5.38,39.29,9.98,26.6,49.62,16.91,69.52,11.04,28.87-8.51,64.11-18.97,94.43-13,15.04,2.96,29.42,12.09,42.93,19.02,5.69,2.92,12.27,5.43,17.34,9.35,6.52,5.05,7.91,11.7,11.53,18.73"/>
  <path class="cls-1" d="M17.83,344.14c6.41-22.74,4.76-53.03,30.01-64.35,25.09-11.25,38.9,24.58,50.3,40.71,5.94,8.41,10.42,17.66,19.95,9.38,7.82-6.8,14.96-16.1,20.75-24.66s8.95-19.34,6.56-29.27c-2.82-11.72-14.41-22-19.15-33.43-4.77-11.5-6.87-23.1,2.98-32.65,8.52-8.26,19.25-6.62,29.41-10.68,10.14-4.05,13.34-16.22,23.17-19.93,12.94-4.88,26.18,4.83,39.04,4.41,23.58-.77,32-31.32,56.52-33.92,13.39-1.42,26.27,3.28,39.14,6.1,10.88,2.38,25.09,1.2,33.64,9.65,12.25,12.11,2.02,31.93-6.63,42.96-5.28,6.73-13.36,11.19-17.86,18.43-6.54,10.53-7.13,25.76-9.33,37.66-2.36,12.71-9.84,18.44-16.6,28.69-6.66,10.1-4.68,20.09-.98,31.04,3.77,11.15,8.8,20.98,18.07,28.48,8.96,7.24,24.63,11.49,30.05,21.95,5.34,10.3-.71,23.49,5.08,33.86,4.98,8.92,17.17,16.99,27.32,16.49,6.98-.35,13.14-1.96,20.29-1.44,7.24.53,14.44,1.95,21.69,2.2,12.9.44,26.22-3.12,39.15-4.23,11.62-1,26.16-2.44,36.39-8.56,9.07-5.43,11.79-16.55,18.96-23.83,17.01-17.26,43.84-23.17,67.1-24.99,7.68-.6,26.2-3.83,29.51,5.91,2.93,8.63-6.79,27.24-11.91,33.5-14.99,18.31-43.05,21.87-65.04,21.19-11.18-.34-21.18-1.36-30.07,6.5-8.07,7.14-15.05,15.38-18.72,25.55-4.58,12.67-7.27,23.94-7.58,37.39-.3,13.07-2.17,24.97,5.79,35.97,7.52,10.38,16.52,18.62,26.44,26.6,3.82,3.08,8.01,7.89,12.6,9.72,6.14,2.45,13.52.57,20.17,2.21,11.72,2.89,22.85,8.94,29.5,19.33,7.25,11.31,4.22,23.69,8.89,35.54s16.48,20.33,24.22,30,18.62,24.89,20.01,37.25c1.26,11.18-6.88,20.9-12.31,29.85-3.2,5.28-6.68,10.67-9.23,16.32-2.73,6.05-3.38,13.3-7.45,18.69-12.38,16.4-41.41,10.06-54.78-1.04-20.26-16.83-40.78-36.82-53.78-59.92-4.94-8.78-8.82-17.07-17.12-23.18-9.71-7.14-22.18-11.99-33.59-15.62-11.81-3.76-24.84-5.78-36.65-.91-4.76,1.96-9.11,4.98-13.1,8.19-4.18,3.37-9.11,10.96-13.99,13.03-8.41,3.57-22.09-7.36-30.09-10.28-11.94-4.37-24.53-6.67-36.44-11-17.69-6.42-24.2-24.02-10.51-38.12,11.79-12.14,29.87-16.35,40.84-29.28,13.95-16.44,4.78-43.69-18.64-41.86-24.13,1.89-45.26,19.19-70.23,11.41-9.19-2.86-20.12-9.38-23.19-19.15-3.61-11.5,6.34-22.48,13.53-30.26,7.95-8.6,18.65-15.27,25.67-24.64,3.14-4.2,4.83-9.09,7.49-13.57,3.47-5.84,8.93-10.35,12.31-16.16,9.68-16.65-9.17-30.78-22.58-37.12-22.09-10.44-43.77-1.28-66.75-1.22-13.85.04-22.25.52-35.1,6.32-13.42,6.07-26.15,13.48-39.31,20.1-4.36,2.19-9.69,4.29-13.08,7.94-4.5,4.85-1.14,8.07-3.62,12.56-3.88,7.02-22.96,8.04-29.23,5.66-10.82-4.11-16.66-17.75-21.22-27.58-3.19-6.87-4.3-13.2-4.91-20.73-.46-5.65.46-12.44-2.62-17.5-5.44-8.94-17.53-13.64-23.74-22.55-7.05-10.14-9.29-23.28-5.38-35.08"/>
  <path class="cls-1" d="M624.05,352.23c.78-14.66,15.49-32.2,26.02-41.5,12.72-11.23,26.19-20.68,32.95-36.91,6.65-15.97,8.6-33.58,20.36-47.12,9.71-11.18,27.63-19.95,38.94-5.98,4.27,5.28,6.14,11.97,11.49,16.47,6.22,5.24,15.07,7.38,22.65,9.67,9.41,2.85,18.3,5.06,28.2,4.27,6.37-.51,14.71-3.27,18.17,3.71,2.12,4.27.31,10.89-1.06,15.12-3.17,9.81-8.06,16.79-6.01,27.64,1.63,8.61,7.68,13.2,13.36,19.2,5.79,6.12,9.39,15.22,16.11,20.31,25.56,19.37,64.09-33.79,86.42-40.51,9.88-2.98,18.33.66,28.03,2.11s18.25-1.15,26.83-5.16c18.02-8.4,35.8-16.83,54.06-24.79,8.88-3.87,17.64-9.37,26.99-11.97s20.11,1.27,28.41-4.2c14.01-9.23,17.82-28.94,35.48-33.35,8.39-2.09,17.48-.76,25.69-2.93,8.57-2.26,15.44-8.44,24.54-9.62,19.89-2.58,24.53,18.85,30.78,33.12,13.56,30.93,21.86,72.68-13.22,92.84-7.24,4.16-14.77,6.48-23.11,5.4-8.89-1.15-16.51-4.39-25.64-2.62-19.5,3.78-25.83,19.55-35.27,34.8-4.55,7.35-9.09,15.11-14.67,21.73-5.63,6.69-12.95,10.72-19.83,15.93-12.11,9.16-36.57,23.72-36.32,40.67.26,17.57,19.47,29.41,28,43.01,10.39,16.56,17.46,34.6,30.6,49.41,4.7,5.31,11.65,10.54,13.68,17.66,2.78,9.73-5.19,13.6-10.31,20.31-10.01,13.14-11.6,35.38-24.31,45.77-13.97,11.41-39.09,6.05-54.16.28-18.53-7.1-37.95-3.6-57.32-.54-8.24,1.3-16,3.43-24.38,3.63-9.08.21-10.05,1.85-10.3,10.96-.5,17.51,2.15,36.75-6.26,52.94-6.82,13.14-27.43,29.11-43.03,27.2-16.09-1.97-29.01-20.46-33.14-34.86-5.19-18.09-13.89-34.36-18.78-52.67-2.43-9.09-4.71-18.13-5.78-27.49-1.08-9.4-.77-19.44-4.08-28.41-3.3-8.94-9.22-12.83-16.87-17.88-8.55-5.65-15.43-13.57-21.39-21.83-11.47-15.89-9.88-30.59-9.03-49.4.88-19.4,8.16-38.83-.84-57.32-7-14.39-15.81-31.66-32.31-36.24-15.98-4.44-33.29-1.82-49.61-5.47-6.93-1.55-15.09-.93-21.59-3.85-7.26-3.26-11.66-10.12-19.32-13.15-8.07-3.19-33.8-4.45-29.83-18.39"/>
  <path class="cls-1" d="M1125.81,406.53c5.62-.37,6.2,8.25,1.05,9.58-7,1.81-7.9-9.13-1.05-9.58Z"/>
  <path class="cls-1" d="M0,738.77c5.39-2.02,12.92-4.18,18.69-3.3,3.34.51,5.39,2.8,8.88,2.16,2.45-.46,6.28-3.69,8.34-5.16,6.77-4.82,6.73-8.05,8.56-15.53,1.6-6.54,4.99-9.93,5.77-17.05,2.82-25.53,11.96-47.43,19.59-71.77,4.26-13.59,8.52-23.04,23.81-23.72,12.43-.55,25.08-1.16,37.15,2.47,12.43,3.73,21.84,11.83,27.28,23.72,5.49,12.01,2.3,25.13-1.11,37.3-1.74,6.22-5.07,11.11-6.4,17.31-1.35,6.31-2.37,12.03-6.55,17.24-4.18,5.2-10.66,6.85-14.94,11.13-6.09,6.09,1.67,9.73,4.9,15.19,6.21,10.51,2.11,25.33,5.68,36.79,3.43,10.99,15.19,21.01,23.74,28.28,21.29,18.11,5.17,47.59,21.36,69.14,8.54,11.37,22.49,5.61,34.91,6,12.28.39,24.18-5.98,35.85-9.56,23.81-7.29,47.52-15.53,72.76-16.08,25.44-.55,48.4,11.77,67.76,27.55,4.93,4.02,8.48,8.94,12.71,13.64"/>
  <line class="cls-1" x1="26.74" y1="340.17" x2="27.19" y2="338.63"/>
  <line class="cls-1" x1="279.96" y1="474.96" x2="280.24" y2="474.53"/>
  <path class="cls-1" d="M525.98,397.09c2.54-21.63,43.55-25.62,58.75-19,13.18,5.74,10.64,19.54.18,26.51-8.98,5.98-20.38,10.44-31.22,10.86-10.37.4-31.51-3.26-27.71-18.36"/>
  <line class="cls-1" x1="650.79" y1="322.65" x2="651.9" y2="321.48"/>
  <path class="cls-1" d="M651.9,321.48c3.17-2.87,6.55-5.68,10.22-7.89"/>
  <line class="cls-1" x1="700.91" y1="254.8" x2="701.45" y2="253.75"/>
  <line class="cls-1" x1="1205.94" y1="286.69" x2="1205.95" y2="287.96"/>
  <path class="cls-1" d="M0,778.69c3.23-.65,1.15-4.23,2.55-5.78,2.27-2.51,4.03-1.41,6.35-3.02,4.03-2.81,2.76-8.95,8.87-9.03,10.53-.15,7.46,22.59,8.44,29.6.78,5.6,2.12,10.79,9.23,7.01,2.28-1.21,2.58-3.74,4.48-5.32,2.43-2.02,5.13-2.62,7.23-5.25,2.97-3.7,5.99-9.34,8.59-13.21,7.32-10.9,8.64-24.31,16.94-34.31,10.1-12.17,14.63-7.96,28.65-6.69,7.73.69,17.09-1.65,22.39,5.61,10.33,14.16-10.58,23.59-7.14,37.36,1.36,5.45,7.91,11.04,12.6,14.02,6.16,3.92,12.75.74,19.56,3.97,18.04,8.56,19.35,21.13,16.12,39.13-2.69,15.03-6.23,38.53,4.41,51.75"/>
  <path class="cls-1" d="M35.66,339.38c3.26-8.84,9.75-39.33,23.83-39.18,14.03.15,16.35,33.83,16.61,43.06.2,7.11-2.35,15.25,5.31,19.35,6.8,3.64,19.48,1.14,26.68-.2,19.27-3.58,26.93-17.3,36.16-33.15,9.49-16.29,19.47-34.76,16.56-54.33-2.51-16.9-17.72-31.41-6.35-48.8,4.31-6.6,11.68-8.74,17.76-13.17,6.9-5.03,12.14-11.78,20.83-14.03,18.69-4.86,35.96,6.23,53.23-7.08,15.37-11.85,22.62-26.72,44.69-24.76,12.21,1.08,38.25,6.46,34.58,23.2-3.6,16.41-22.2,36.44-35.46,45.85-12,8.52-28.51,20.44-34.09,34.73-3.03,7.76-2.2,16.59-4.74,24.54-2.15,6.73-7.29,14.76-5.18,22.07,4.18,14.45,30.43,18.33,27.56,36.46-2.68,16.93-27.38,18.89-40.68,19.48-9.87.44-14.29,1.68-21.55,8.58-5.44,5.17-9.82,12.5-17.8,12.84-5.78.24-10.61-1.82-16.63-.87-4.55.72-8.99,2.3-13.19,4.15-9.72,4.29-18.56,10.52-27.13,16.71-9.36,6.77-17.98,14.14-29.03,17.96-6.87,2.37-18.62,9.32-25.31,5.15s-8.96-17.11-10.64-24.39c-2.1-9.13-2.71-19.48-8.38-27.32-5.51-7.61-15.14-10.53-21.82-16.9-8.91-8.49-9.1-18.62-5.82-29.91"/>
  <path class="cls-1" d="M71.32,650.35c4.08-11.75,4.14-28.59,17.16-34.45,10.48-4.71,25.13-1.94,35.35,2.3,26.52,10.99,28.91,39.82,16.55,63.1-6.59,12.41-16.3,15.09-28.36,20.52-6.03,2.72-14.65,6.29-19.22,11.15-3.31,3.52-3.37,6.91-8.69,7.85-8.77,1.55-15.05-17.41-16.75-25.12-3.43-15.5-1.52-30.56,3.95-45.36"/>
  <path class="cls-1" d="M249.85,523.34c1.84-1.8,3.95-3.36,5.39-4.53,2.42-1.96,4.78-4.02,7.05-6.15,4.54-4.24,8.79-8.78,12.73-13.58,6.53-7.97,9.5-17.8,16.56-25.36,7.41-7.94,11.13-13.91,15.49-23.82,3.46-7.86,7.85-13.94,16.85-15.16,9.62-1.31,21.45,1.47,30.78,3.74,12.61,3.07,23.44,4.67,36.43,3.58,11.06-.93,22.09-1.87,33.09-3.34,10.17-1.36,22.93-4.04,32.67.5,20.86,9.74-1.52,37.13-9.51,48.72-8.76,12.72-39.01,37.16-15.99,50.7,8.17,4.81,15.96,8.5,23.34,14.78,9.21,7.83,17.46,16.25,29.1,20.39,19.46,6.93,41.49,5.75,60.75,13.24,23.84,9.27,15.3,30.87,24.08,49.71,9.06,19.43,28.49,30.68,29.53,53.77.67,14.8-7.97,49.7-24.23,55.44-18.2,6.42-41.2-19.19-51.68-30.89-14.46-16.14-23.66-37.51-40.13-51.68-15.9-13.68-37.51-21.78-57.66-26.63-21.15-5.09-45.12-7.77-65.02,2.24-6.78,3.41-16.81,8.15-22.93.01-5.76-7.66,3.57-13.74,9.78-16.71,8.25-3.94,15.21-6.12,19.83-14.74,5.22-9.77,4.45-21.3,4.76-32,.62-21.17,3.76-50.34-18.98-60.54-9.91-4.44-19.89-6.97-30.29-2.54-10.94,4.65-17.35,14.92-27.4,20.84-10.02,5.9-19.64,6.26-30.97,5.59-4.95-.29-12.56-.81-15.9-5.1-2.92-3.74-.6-7.46,2.48-10.49Z"/>
  <path class="cls-1" d="M543.81,388.91c8.87-6.58,38.49-2.3,24.75,10.55-5.27,4.93-13.45,8.02-20.63,5.51-6.97-2.44-11.65-10.85-4.12-16.06"/>
  <path class="cls-1" d="M659.71,326.55c6.54-4.75,11.81-7.41,16.99-13.89,5.44-6.81,11.18-13.49,16.2-20.63,8.21-11.69,12.78-31.84,27.3-37.4,12.27-4.7,26.96,2.66,37,9.44,15.3,10.34,7.29,25.21,14.63,39.65,6.33,12.44,19.28,23.08,32.24,27.79,5.57,2.03,11.53,2.68,16.29,6.51,6.12,4.93,8.27,13.25,14.5,18.21,24.99,19.91,62.56-13.61,83.08-26.35,13.27-8.24,26.15-11.92,41.47-13.82,18.18-2.26,34.86-8.87,51.55-16.09,16.41-7.09,31.98-15.94,48.3-23.09,15.51-6.79,32.81-1.6,47.58-9.58,12.02-6.49,19.15-18.86,30.41-26.44,8.41-5.65,29.46-14.54,38.77-7.53,9.12,6.87,5.16,26.59,5.81,35.89,1.07,15.23,4.3,30.95-9.49,41.52-10.11,7.74-23.1,8.91-34.98,12.1-17.67,4.73-28.08,14.12-40.33,27.03-11.3,11.91-23.72,21.82-36.22,32.36-11.46,9.66-18.04,22.33-31.97,29.15-6.6,3.23-13.65,5.39-20.34,8.4-4.3,1.93-13.38,3.88-16.61,7.18-8.29,8.46,15.46,28.36,20.85,34.42,18.77,21.1,48.19,38.93,42.9,72.07-2.34,14.62-14,20.78-25.07,28.74-6.44,4.64-11.05,8.58-15.05,15.31-4.46,7.51-7.58,12.69-15.28,17.57-12.23,7.75-26.47,10.78-40.7,11.78-15.38,1.08-34.82-.06-46.03,12.81-13.82,15.87,2.25,63.8-26.56,66.52-17.74,1.68-19.66-19.32-23.29-31.59-2.3-7.78-4.18-15.51-5.81-23.45-1.98-9.59-6.01-17.64-8.88-26.85-4.61-14.8,8.46-27.48-2.81-40.95-8.88-10.62-22.81-15.52-32.31-25.55-12.72-13.43-14.06-29.12-13.21-46.8.85-17.87-1.65-34.33-6.02-51.65-8.05-31.94-26.56-59.7-61.04-65.9-16.55-2.97-31.69-2.81-45.72-13.51-7.21-5.5-14.3-10.85-21.66-16.18-5.12-3.71-13.01-10.85-6.49-17.22"/>
  <path class="cls-1" d="M44.57,346.05c2.62-5.1,6.84-15,14.18-12.96,6.76,1.88,7.12,12.8,6.69,18.31-.69,8.6-3.82,13.58-12.95,11.16-9.15-2.44-10.63-8.24-7.92-16.5"/>
  <path class="cls-1" d="M80.23,379.74c6.56-9.71,26.57-9.13,36.67-10.83,15.86-2.67,19.98-9.38,27.2-22.89,12.9-24.15,29.54-49.67,22.34-78.44-3.19-12.75-9.38-24.08-.62-36.2,7.16-9.9,19.88-20.74,31.9-23.38,11.94-2.63,23.87,1.82,35.81.22,13.43-1.8,20.76-10.52,29.08-20.14,8.34-9.65,18.17-14.66,31.18-11.8,15.44,3.39,18.75,13.8,10.8,27-13.59,22.54-42.71,28.71-54.01,53.24-5.69,12.35-6.6,26.56-10.74,39.47-2.18,6.81-5.11,13.9-4.41,21.22.69,7.25,5.13,12.67,7.8,19.18,4.97,12.09.25,20.63-11.9,25.09-6.11,2.24-12.59,2.59-18.64,5.14-2.88,1.22-5.46,3.24-8.45,4.21-5.05,1.64-8.99.25-13.9,1.04-6.2.99-9.27,5.71-14.08,9.37-6.07,4.62-12.73,7.7-19.97,9.93-14.61,4.49-21.25,14.09-33.06,23.09-10.15,7.74-24.74,13.64-35.39,3.4-7.9-7.59-14.78-28.29-7.6-37.91"/>
  <path class="cls-1" d="M80.23,647.23c5.76-20.53,22.21-29.66,41.59-17.07,14.75,9.57,18.2,30.13,11.24,45.67-6.45,14.41-27.93,25.59-43.32,19.03-18.78-8-13.74-32.34-9.51-47.63"/>
  <path class="cls-1" d="M276.36,517.43c2.06-1.56,3.73-3.53,5.62-5.27,1.72-1.58,3.56-2.02,5.73-2.7,1.98-.62,4.98-4.47,7.14-2.71,1.72,1.4,1.13,6.15.9,8.05-.61,5.04-2.91,11.13-7.83,13.42-6.96,3.24-17.69-3.02-11.57-10.8"/>
  <path class="cls-1" d="M303.11,483.25c5.51-.17,9.74-1.36,11.32,5.46,1.39,5.99-2.62,8.69-7.91,10.35-11.9,3.74-11.69-13.98-3.41-15.81"/>
  <path class="cls-1" d="M321.1,447.17c2.04-.81,4.61-.68,6.77-.91,6.29-.67,12.61-1.63,18.92-.55,8.91,1.54,16.8,5.49,26.02,5.57,15.77.13,32.64-2.41,48.2-4.97,8.36-1.37,20.19-4.46,28.37-.93,12.42,5.35.18,19.74-5.02,26.42-11.05,14.18-22.13,29.2-32.53,43.88-13.37,18.86,9.43,27.56,22.03,37.48,13.71,10.8,25.4,22.76,42.43,28.35,18.86,6.19,39.49,5.12,58.67,10.32,19.29,5.23,21.88,13.92,22.72,32.21.84,18.47,6.38,28.9,18.68,41.8,11.87,12.45,12.09,28.34,7.76,44.22-2.01,7.36-4.46,17.79-9.7,23.64-5.2,5.79-9.38,3.31-15.72.1-14.92-7.57-26.53-18.04-37.12-30.87-10.93-13.23-18.49-29.22-30.72-41.36-24.32-24.16-58.32-29.31-88.22-43.17-20.22-9.38-20.99-30.66-19.86-50.55.53-9.43,4.14-19.75,3.19-29.12-.92-9.14-6.88-17.42-13.28-23.62-6.18-5.98-13.58-10.14-20.52-15.13-7.81-5.61-11.2-12.13-16.64-19.63-4.61-6.35-13.12-6.71-16.4-13.38-2.23-4.53-3.13-12.89-.71-17.45.64-1.21,1.59-1.92,2.7-2.36Z"/>
  <path class="cls-1" d="M677.54,323.86c9.04-10.24,18-21.13,26.54-31.79,6.31-7.88,12.25-19.84,22.85-22.63,10.3-2.71,23.59,4.4,29.21,12.96,3.32,5.06,3,10.83,4.27,16.55,1.63,7.39,4.58,14.7,8.56,21.16,6.8,11.02,18.12,19.73,28.85,26.66,12.54,8.1,22.9,20.69,37.43,25,32.17,9.55,54.43-17.34,80.77-31.06,27.22-14.18,58.58-17.19,87.05-28.06,27.58-10.52,53.61-30.45,83.19-33.44,14.24-1.44,26.62-5.72,38.45-13.92,6.7-4.65,23.43-22.78,32.64-19.29,11.74,4.45-.71,24.99-.75,32.62-.03,6.2,5.73,9.8,5.81,15.91.1,7.61-6.81,12.84-12.78,15.96-12.11,6.31-26.28,7.35-38.21,14.13-12.15,6.9-20.75,18.45-31.21,27.46-10.31,8.89-21.84,15.04-33.28,22.19-4.27,2.67-7.69,5.09-9.65,9.93-3.23,7.95-.65,12-9.32,16.87-12.64,7.09-27.83,11.37-41.75,15.25-9.74,2.72-36.28,6.48-23.62,20.86,8.81,10.01,22.48,16.19,33.12,24.12,12.04,8.98,21.81,20.34,34.01,29.11,9.5,6.83,11.61,22.54,12.5,33.97,1.37,17.57-9.13,22.19-21.69,31.57-11.42,8.53-17.07,21.57-27.66,30.62-11.87,10.13-27.14,12.77-42.22,13.55-13.54.7-27.32.83-39.56,7.51-13.44,7.33-12.96,18.72-20.89,29.86-2.78,3.9-5.46,7.58-9.45,6.05-3.87-1.49-8.51-8.81-10.05-12.45-5.52-13.02-6.68-29.32-4.53-43.08.97-6.18,3.14-13.28.41-19.26-2.82-6.17-10.75-10.27-15.98-14.4-11.25-8.88-26.84-16.39-34.59-28.84-8.55-13.73-2.32-30.18-3.21-45.15-1-16.77-8.14-33.18-12.03-49.43-7.85-32.81-28.27-59.65-62.92-65.26-15.46-2.51-30.04-3.07-43.76-11.58-10.02-6.21-33.12-19.54-16.52-30.2"/>
  <path class="cls-1" d="M89.15,388.01c3.96-13.81,42.74-15.39,39.09,3.71-4.98,26.09-48.16,22.07-39.09-3.71"/>
  <path class="cls-1" d="M89.15,646.47c6.21-15.3,24.96-13.03,32.78-.22,5.64,9.23,6.9,23.54-.12,32.22-6.3,7.78-17.88,11.3-26.65,5.56-12.31-8.06-9.95-25.67-6.02-37.55"/>
  <path class="cls-1" d="M160.47,337.43c9.91-15.65,14.24-34.66,14.85-53.02.58-17.72-7.73-36.95,3.18-52.64,9.7-13.96,24.83-19.67,41.11-14.57,4.54,1.42,13.45,5.27,15.8,9.96,1.77,3.54.18,5.71.15,9.32-.03,4.16,1.23,8.1,1.69,12.21,2.31,20.64-5.45,37.96-9.56,57.58-1.82,8.7-.89,16.22,1.33,24.7,2.04,7.77,4.79,15.31-2.2,21.13-12.95,10.78-34.71,9.16-50.27,10.91-5.98.67-13.19,2.88-17.94-2.21-6.22-6.65-1.72-16.8,1.85-23.39"/>
  <path class="cls-1" d="M283.72,187.61c7.02,1.61,3.89,16.36-3.16,14.25-6.92-2.07-2.17-12.91,3.16-14.25"/>
  <path class="cls-1" d="M356.6,463.94c18.87-11.73,46.5-6.55,67.25-10.16,23.49-4.09-1.1,35.19-7.33,43.12-4.76,6.06-12.83,15.51-21.09,16.76-6.69,1.01-12.34-3.64-17.48-7.48-7.08-5.3-40.65-32.36-21.35-42.24"/>
  <path class="cls-1" d="M401.17,552.6c19.3-7.93,31.14,16.68,43.05,26.94,14.59,12.56,32.35,13.71,50.8,14.31,13.91.45,42.12.01,51.91,12.31,9.36,11.75,1.17,33.92,1.25,47.12.06,9.8,7.43,11.42,14.18,16.79,7.21,5.73,10.63,12.51,11.14,21.7.78,14.19-6.14,36.46-24.49,26.87-16.16-8.45-28.94-30.3-38.56-45.07-10.74-16.47-24.53-29-42.01-38.13-19.96-10.43-41.12-18.77-59.62-31.93-15.25-10.85-23.7-36.71-7.64-50.91"/>
  <path class="cls-1" d="M686.45,325.79c8.82-12.77,32.85-43.8,51.27-39.22,11.1,2.76,12.04,16.33,14.9,25.37,3.51,11.12,10.19,18.27,16.21,27.8,15.9,25.15-22.35,16.67-34.32,16.11-10.83-.51-21.83-.85-31.75-5.75-7.77-3.84-23.78-14.34-16.3-24.3"/>
  <path class="cls-1" d="M811.26,390.69c11.27-2.11,21.41-5.71,33.03-5.26,11.61.45,19.77.85,29.84-5.98,19.08-12.94,34.74-29.64,57.66-35.88,43.5-11.83,92.73-22.13,130.4-48,8.4-5.77,16.56-7.68,26.55-9.09,12.91-1.82,23.82-5.59,36.13-9.63,8.75-2.87,13.59-4.5,19.62,3.42,6.8,8.94,5.32,17.72-4.38,24.01-7.9,5.12-18.04,6.53-26.84,9.42-11.53,3.79-19.21,9.82-27.51,18.4-7.07,7.3-15,13.58-23.46,19.22-8,5.33-17.46,8.32-25.23,13.85-8.29,5.91-8.89,14.04-14.02,22-5.63,8.73-17.34,13.54-26.61,17.22-9.95,3.95-20.33,6.54-30.75,8.93-9.27,2.13-20.5,2.86-28.94,7.45-21.62,11.76,25.53,33.78,34.36,38.75,17.6,9.92,36.61,24.7,48.06,41.61,5.16,7.62,8.76,19,7.07,28.31-1.61,8.88-9.63,14.86-15.32,21.26-13.84,15.57-24.8,36.99-46.98,41.13-11.26,2.1-22.78.25-34.14,1.2-9.97.83-20.26,4.12-30.27,3.83-12.49-.36-15.91-9.57-19.5-20.04-3.94-11.47-10.62-18.16-19.75-25.87-9.42-7.96-19.29-15.78-28.34-24.14-7.75-7.15-8.82-15.81-8.39-25.93.41-9.8,2.35-19.74-.59-29.34-3.13-10.19-7.74-19.8-10.74-30.14-1.67-5.76-14.97-49.74-.97-50.74"/>
  <path class="cls-1" d="M98.06,654.42c9.92-15.43,26.18,6.19,18.95,18.12-3.16,5.22-9.93,6.47-14.9,3.06-6.56-4.48-6.68-14.53-4.05-21.18"/>
  <path class="cls-1" d="M106.98,387.29c3.12.15,8.68-1.08,10.82,2.02,2.78,4.03-1.78,9.15-5.48,10.18-8.12,2.28-13.93-8.05-5.34-12.21"/>
  <path class="cls-1" d="M178.3,329.97c3.31-13.88,2.66-28.79,4.35-42.94,1.74-14.59-1.67-30.78,2.66-44.89,3.09-10.08,12.65-21.08,24.35-19.29,13.55,2.06,11.97,20.21,14.7,30.63,3.99,15.19,2.03,26.99-3.61,41.38-5.87,14.98-2.98,25.8-3.43,41.01-.35,11.97-11.65,16.93-22.66,15.68-13.78-1.56-19.16-8.06-16.37-21.59"/>
  <path class="cls-1" d="M374.43,467.75c12.03-7.58,46.85-11.7,43.24,11.08-2.34,14.77-19.28,27.69-33.41,19.98-10.79-5.88-27.7-22.69-9.83-31.06"/>
  <path class="cls-1" d="M410.09,561.21c10.41,2.69,24.24,26.22,6.28,26.08-12.99-.1-19.76-20.66-6.28-26.08"/>
  <path class="cls-1" d="M472.49,611.94c5.63-9.43,27.22-9.85,36.39-9.44,11.91.53,29.53,3.52,32.9,17.29s-10.54,26.93-5.53,40.13c3.41,9,13.28,12.62,15.86,22.58,1.6,6.16,2.7,15.97-6.03,13.98-3.73-.85-12.24-7.63-15.19-10.39-5.65-5.28-7.2-11.99-10.63-18.51-6.52-12.39-19.66-19.28-29.81-28.29-4.24-3.77-29.15-24.15-17.96-27.35"/>
  <path class="cls-1" d="M704.28,317.64c8.4-5.68,20.32-15.76,29.78-6.8,5.66,5.36,9.51,19.4,5.86,26.46-10.26,19.82-58.46,4.22-35.64-19.66"/>
  <path class="cls-1" d="M820.18,409.06c12.48-15.38,29.63-10.3,46.23-15.34,16.54-5.02,27.09-19.73,40.41-29.7,27.62-20.66,65.95-19.41,97.5-31.1,14.19-5.26,32.66-14.91,48.39-12.28,19.77,3.3,1.26,21.99-8.24,26.41-11.66,5.42-22.5,3.25-27.13,17.34-2.53,7.71-3.15,14.91-8.71,21.31-6.02,6.93-14.97,11.76-23.39,15.06-13.06,5.12-27.24,7.31-41.02,9.58-8.5,1.4-22.99,2.74-27.38,11.64-5.51,11.17,10.11,24.86,17.77,30.75,12.45,9.58,27.97,13.13,40.35,22.71,11.92,9.23,24.65,20.45,30.32,34.8,6.34,16.05-.46,30.09-9.23,43.52-8.23,12.6-15.93,27.62-31.78,31.2-16.07,3.63-37.06,1.04-53.44-.23-20.08-1.56-24.81-18.12-37.45-31.03-11.46-11.7-27.87-25.75-34.31-41.03-3.27-7.75-2.08-16.39-1.98-24.54.12-9.42-1.53-16.41-5.83-24.8-4.7-9.18-7.17-18.3-10.26-28.1-2.86-9.08-6.19-17.18-.81-26.15"/>
  <path class="cls-1" d="M1123.29,289.12c9.29.78,8.19,11.07-.58,11.18-11.02.13-5.99-8.67.58-11.18"/>
  <path class="cls-1" d="M196.88,259.72c2.03-9.55,4.23-17.53,4.55-19.23.56-2.96,3.13-12.46,8.59-8.01,2.62,2.13-.23,6.71-.75,9.13-1.96,9.11.07,12.23,3.66,20.52,2.82,6.5,4.72,12.66,1.8,19.62-1.99,4.75-8.73,15.61-14.05,16.88-10.9,2.61-7.63-20.92-3.8-38.91Z"/>
  <path class="cls-1" d="M383.34,472.01c9.97-4.7,35.76-3.43,23.71,13.69s-39.72-4.76-23.71-13.69"/>
  <path class="cls-1" d="M499.24,613.07c11.62-2.06,42.11-.25,29.29,19.32-14.78,22.56-46.61-13.48-29.29-19.32"/>
  <path class="cls-1" d="M713.2,324.69c6.7-.01,11.23,7.08,3.65,10.37-8.32,3.61-9.99-5.6-3.65-10.37"/>
  <path class="cls-1" d="M838.01,413.06c11.71-7.69,26.35-7.46,39.33-11.64,13.85-4.46,18.85-13.62,27.51-24.24,16.72-20.5,43-24.32,68.04-25.29,7.74-.3,18.32-.79,24.04,5.59,7.34,8.18,3.23,21.96-3.51,29.04-18.76,19.73-53.62,14.76-77.53,21.29-27.11,7.4-3.66,40.46,7.87,51.21,19.71,18.36,47.49,21.94,62.37,46.51,12.11,20,4.26,52.8-13.37,68.11-8.63,7.49-20.21,6.13-30.86,5.21-6.99-.61-13.83-1.83-20.73-3.01-7.44-1.27-16.71-.83-23.21-4.76-5.69-3.44-9.11-10.25-13.37-15.21-4.99-5.8-10.64-10.99-15.52-16.89-9.45-11.42-18.83-25.61-20.48-40.65-.94-8.58-.08-16.82-2.58-25.21-2.16-7.22-5.95-13.8-8.48-20.87-4.06-11.34-11.97-30.83.49-39.18"/>
  <line class="cls-1" x1="846.92" y1="425.34" x2="848.16" y2="424.35"/>
  <path class="cls-1" d="M846.92,425.34c-7.66,10.09.81,21.87,4.25,31.98,3.6,10.6,6.24,21.25,7.03,32.38,1.46,20.47,9.58,39.03,23.78,53.89,6.12,6.41,13.99,16.69,22.31,19.54,8.46,2.89,20.09,5.85,28.96,7.07,4.97.69,10.03.21,15.02.65,4.55.4,10.12,2.71,14.61,1.42,9.55-2.74,12.14-17.09,14.23-25.29.18-.71.35-1.42.5-2.13,2.36-10.86,1.56-22.29-3.51-32.28-4.85-9.57-13.62-19.03-24.16-21.88-3.94-1.06-7.84-4.09-11.35-6.13-7.93-4.61-15.74-9.47-23.02-15.07-2.47-1.9-4.9-3.9-6.9-6.3-3.75-4.49-5.72-10.16-8.65-15.11-2.96-4.98-5.09-10.45-6.11-16.16-1.28-7.13-1.25-12.18-8.88-15.31-10.54-4.32-28.22,1.2-36.89,7.73"/>
  <path class="cls-1" d="M918.24,374.45c7.4-8.93,20.59-11.85,31.61-12.02,9.9-.15,25.55-1.14,32.61,7.29,16.36,19.53-38.79,28.65-50.38,28.84-14.59.24-26.21-11.26-13.84-24.11"/>
  <path class="cls-1" d="M864.75,467.76c.2-4.6,1.77-18.04,6.4-20.48,4.2-2.22,7.9,2.05,11.69,5.22,10.98,9.2,18.12,21.01,30.77,28.45,24.55,14.44,57.06,29.17,51.74,62.94-4.92,31.23-50.9,16.01-68.24,3.61-11.09-7.93-20.01-18.53-24.21-31.6-2.62-8.16-2.91-16.57-4.18-24.98-1.15-7.55-4.76-15.42-3.96-23.16"/>
  <path class="cls-1" d="M927.16,376.36c6.43-2.26,14.07-5.11,20.91-2.2s6.04,6.97.49,11.42c-4.41,3.54-12.48,6.5-18.23,5.1-7.55-1.84-9.26-9.12-3.17-14.32"/>
  <path class="cls-1" d="M882.58,496.76c10.21-28.03,74.85,17.38,65.23,45.91-5.7,16.92-26.68,6.34-38.06,1.6-21.46-8.96-32.16-24.16-27.17-47.5"/>
  <path class="cls-1" d="M891.5,513.78c4.77-22.09,44.49,3.07,28.52,16.23-9.47,7.8-33.15-2.82-28.52-16.23"/>
  <path class="cls-1" d="M1366.34-51.32c7.89,1.09,12.27,9.94,13.07,17.87.81,7.93-.5,16.22,2.24,23.7,5.55,15.16,24.13,19.96,37.16,29.5,12.13,8.88,19.81,22.49,30.38,33.19,25.55,25.84,64.62,31.94,95.96,50.31,17.15,10.05,32.07,23.86,50.14,32.14,26.43,12.11,56.73,11.22,85.78,10.09,29.89-1.16,59.77-2.32,89.66-3.48"/>
  <path class="cls-1" d="M1684.76,82.93c.14,3.22.25,6.58-1.16,9.48-2.13,4.37-7.18,6.53-11.98,7.25-14.24,2.15-28.09-5-40.44-12.4-8.12-4.87-16.37-10.18-21.58-18.08-5.21-7.9-6.6-19.1-.82-26.6,8.01-10.38,23.96-8.6,36.07-13.6,44.06-18.21,38.53,21.63,39.91,53.95Z"/>
  <path class="cls-1" d="M1406.65-59.76c-1.17,23.53,21.04,41.35,42.56,50.93,38.51,17.13,81.47,21.66,123.62,21.64,22.45,0,44.89-1.24,67.21-3.68,18.67-2.05,38.2-4.85,55.74,1.85,22.98,8.77,42.16,33.31,66.26,28.36"/>
  <path class="cls-1" d="M1511.99-59.07c18.75,24.78,50.35,36.69,81.19,40.56,30.84,3.87,62.11.96,93.15,2.42,9.23.44,18.57,1.29,27.2,4.58,15.33,5.85,29.62,19.41,45.58,15.57"/>
  <path class="cls-1" d="M1.53,231.58c7.94-2.67,14.99-4.85,23.39-5.78,3.53-.39,8.84.17,11.45-2.37,2.23-2.18,2.94-8.55,4-11.52,5.68-15.82,15.04-28.22,30.09-36.17,14-7.39,28.97-16.03,44.3-20.16,7.65-2.06,16.3-1.88,23.59-5.17,8.5-3.84,9.3-12.12,15.2-18.13,6.13-6.23,14.84-5.58,22.78-5.72,9.27-.16,14.41,2.46,23.22,4.88,20.9,5.76,22.77-14.67,37.22-24.03,12.46-8.07,32.19-12.74,46.91-10.34,14.55,2.37,31.18,16.73,46.22,12.19,16.67-5.03,25.71-17.31,44.82-14.96,8.02.98,15.85,2.85,23.71,4.67,7.86,1.82,16.11,1.69,23.78,3.8,16.58,4.57,18.42,25.75,18.59,40.57.08,6.89-.35,13.77-.49,20.65-.13,6.73,2.09,14.3.11,20.54-2.46,7.75-3.75,16.08-3.54,24.25.26,10.08,2.09,18.31-.54,28.3-3.23,12.28-11.6,52.78,12.99,42.46,10.42-4.37,15.42-8.57,21.27-18.1,4.96-8.09,11.99-15,19.48-20.77,7.62-5.87,17.26-9.39,19.88-19.21,2.52-9.47,4.7-18.52,8.56-27.64,3.75-8.86,8.72-16.75,11.86-25.95,3.15-9.24,2.87-18.77,10.34-26.17,16.86-16.69,38.98,4.33,40.92,22.27,2.1,19.36,2.48,37.74-2.25,56.78-2.34,9.42-5.16,18.66-10.04,27.11-4.86,8.43-12.53,14.28-15.77,23.5-3.47,9.86-9.16,15.53-15.44,23.64-5.98,7.73-8.29,17.61-16.95,23.1-2.9,1.84-11.56,4.11-12.46,7.97-1.29,5.53,7,6.41,10.67,5.5,8.55-2.13,19.13-4.49,27.37-7.73,4.38-1.73,8.43-4.25,12.22-7.01,5.96-4.35,11.69-7.86,18.69-10.18,7.45-2.47,14.49-6.24,20.55-11.22,2.44-2.01,4.72-4.21,7-6.4,3.91-3.77,7.81-7.54,11.72-11.31l1.27-1.65c7.18-7.64,12.97-13.12,16.75-23.15,3.36-8.92,7.05-17.73,10.68-26.54,7.81-18.94,21.22-30.63,33.12-46.49,12.42-16.55,35.63-9.71,52.2-20.39,8.21-5.29,13.5-13.57,23.84-14.86,9.37-1.17,19.7.06,29.02,1.25,12.13,1.55,16.88,3.51,20.54,15.23,1.5,4.8,3.71,8.74,3.62,13.9-.08,4.7-2.19,9.26-2.14,13.94.27,26,35.61,4.04,46.99-.99,9.05-3.99,16.36-9.12,23.7-15.69,9.1-8.15,16.1-4.96,24.62,2.61,7.24,6.43,13.83,13.6,22.18,18.62,3.66,2.2,8.6,5.64,12.95,6.25,4.21.59,10.86-3.55,11.66,3.27.54,4.58-6.22,8.45-8.17,11.93-2.57,4.57-1.76,8.78-.3,13.62,3.29,10.95,10.39,14.88,21.4,16.09,9.74,1.07,19.15-1.93,28.46-4.52,9.1-2.54,18.85-3.92,27.33-8.28,6.19-3.19,12.15-6.59,18.4-9.39,8.29-3.71,15.83-9.82,22.62-15.74,3.61-3.15,7.06-6.47,10.97-9.26,4.92-3.52,10.61-5.43,15.81-8.46,4.65-2.71,9.26-5.18,14.37-6.95,6.05-2.09,12.38-3.19,18.72-3.98,12.23-1.52,24.71-1.82,36.57-5.53,23.88-7.47,30.92-29.08,46.36-46.14,18.74-20.7,41.02-7.97,59.75,5.43,9.11,6.52,18.76,12.79,26.5,20.97,9.47,10.02,9.41,17.85,1.49,28.89-6.5,9.06-16.03,16.35-21.38,26.2-6.09,11.2,2.87,21.34,10.52,29.29,7.95,8.26,18.03,14.41,18.81,26.89.73,11.66-2.57,20.89.01,32.57s-9.44,18.95-15.49,28.19c-7.28,11.11-2.5,21.2,5.83,30.11,3.33,3.56,10.15,7.64,10.3,13.18s-6.23,9.77-10.01,12.97c-8.72,7.38-17.98,12.71-28.62,16.9-18.41,7.24-50.29,11.65-50.36,36.94-.06,21.23,12.98,45.42,28.47,59.2,13.04,11.58,29.75,13.09,36.4,31.66,1.8,5.02,2.5,10.36,3.62,15.58,1.79,8.31,1.13,20.23,8.12,25.07,3.99,2.76,8.62,8.53,6.52,13.72-1.84,4.55-9.3,6.4-13.5,8.16-9.66,4.05-19.71,7.14-29.62,10.53-9.77,3.34-20.32,9.02-30.85,8.53s-20.3-4.72-31.06-.21c-10.24,4.29-14.72,15.46-21.35,23.5-6.67,8.08-12.71,16.66-19.71,24.48-3.59,4.01-8.09,7.17-11.6,11.15-3.69,4.18-4.6,9.51-7.52,14.15-6.07,9.66-17,11.64-27.69,10.95-21.93-1.42-38.74-18.88-60.58-19.2-26.48-.39-9.42,40.71,1.42,49.9,8.33,7.07,12.99,17.46,9.21,28.36-4.01,11.56-15.02,13.98-25.96,14.12-21.24.28-42.37,1.83-63.61.49-21.75-1.38-41.62,5.44-63.13,6.1-22.24.68-41.04-8.33-57.33-23.2-3.72-3.4-7.89-7.28-10.68-11.49l1.92,2.33c-7.97-7.98-10.24-20.99-14.01-31.56-4.39-12.3-8.82-24.58-13.44-36.79-5.38-14.23-11.7-27.91-16.85-42.23-5.08-14.15-15.95-26.59-25.02-38.34-9.25-11.98-17.99-24.54-25.51-37.68-7.3-12.75-13.01-30.83-30.14-29.14-10.43,1.03-11.26-4.05-18.24-10.6-5.52-5.18-11.7-9.4-18.18-13.29-10.45-6.28-29.67-21.11-41.22-14.19-10.88,6.52-25.14,23.69-20.82,37.54,4.18,13.41,19.15,24.84,26.28,37.05,7.35,12.58,17.97,25.62,23.44,38.96,5.78,14.11,7.68,29.39,15.29,42.76,7.83,13.76,16.04,25.42,19.86,41.08,3.7,15.15,4.75,29.78.66,44.94-4.39,16.25,2.98,28.3,9.5,42.99,2.89,6.5,7.21,14.77,4.57,21.95-2.42,6.57-10.21,11.96-15.21,16.51-11.48,10.42-24.33,17.64-39.72,20.91-14.91,3.17-30.75-4.2-44.61-8.72-28.37-9.26-58.57-19.24-82.7-37.04-12.22-9.02-23.39-19.36-36.54-27.11-6.8-4.01-13.15-7.45-18.17-13.73-12.25-15.36-27.6-35.07-49.35-33.7-10.79.68-21.64,1.37-32.21,3.67-7.6,1.66-14.82,3.04-22.36,1.11-12.01-3.07-22.29-6.08-34.8-4.42-11.86,1.57-23.43,4.75-35.04,7.54-4.86,1.17-13.4,1.08-17.02,4.72-4.22,4.24-1.9,11.94-.62,16.99,3.43,13.5,7.13,21.1,19.15,28.35,10.41,6.29,17.97,14.59,29.75,18.81,11.43,4.1,22.76,5.21,34.7,6.6,12.49,1.45,22.25,5.74,32.2,13.4,9.38,7.22,19.75,12.95,29.06,20.25,10.23,8.03,21.68,15.35,30.95,24.49,10.26,10.11,13.54,22.46,21.61,33.63"/>
  <path class="cls-1" d="M661.44,313.65c9.95-6.77,17.49-16.6,23.41-27.07,6.04-10.69,10.19-22.18,16.88-32.34,5.64-8.57,9.05-18.4,19.49-22.4,8.4-3.22,18.53,9.07,25.37,13.53,8.33,5.42,17.67,8.46,26.98,11.62,12.14,4.11,16.61,8.91,10.11,20.51-5.75,10.25-10.33,16.89.48,25.42,7.36,5.81,17.63,10.46,26.06,14.55,9.81,4.76,16.7,9.21,21.98,19.03,5.24,9.74,11.64,14.83,23.28,14.46,19.04-.61,38.6-13.8,52.38-25.76,7.34-6.37,15.81-12.67,24.78-16.52,9.62-4.13,18.94-1.58,29.05-1.55,19.79.05,37.93-11.69,55.56-19.4,9.12-3.99,18.39-7.67,27.36-11.98,8.49-4.08,17.88-10.5,27.25-12.04,9.99-1.64,19.48,4.8,28.88-1.2,8.12-5.19,13.4-14.74,19.62-21.88,7.1-8.16,14.84-12.06,25.3-14.52,10.01-2.35,18.58-6.17,28.28-9.14,14.9-4.56,21.92,8.85,23.98,21.38,2.63,16,7.88,33.41,8.07,49.62.25,21.51-15.31,36.49-36.5,37.7-19.03,1.09-41.3,2.91-53.52,18.91-11.98,15.68-25.82,29.37-39.69,43.38-14.27,14.4-28.12,26.69-46.33,35.66-20.53,10.11-6.03,37.69,7.47,48.26,16.25,12.72,26.33,28.18,32.52,47.81,6.08,19.28,6.39,41.15-16.82,48.4-4.01,1.25-12.19-.86-12.49,5.49-.19,4.1,7.35,7.27,9.93,10.1,5.67,6.22,14.01,18.48,6.09,25.89-7.32,6.85-19.61-1.49-27.93-3.18-9.87-2.01-19.44-.45-29.08,2.15-19.59,5.27-38.17,6.32-58.23,7.6-26.29,1.67-19.64,27.74-22.26,46.15-2.42,16.96-11.86,44.58-34.82,39.15-20.49-4.85-24.56-30.08-32.07-46.4-4.27-9.27-4.47-18.79-6.74-28.55-2.25-9.66-6.71-18.29-7.53-28.38-.76-9.43,2.15-20.4-2.99-28.96-5.19-8.63-14.98-12.71-22.44-18.83-16.11-13.19-24.34-30.69-23.84-51.32.91-37.32,5.11-83.92-31.19-107.94-7.77-5.14-17.68-9.29-26.98-10.3-9.98-1.09-19.35-.01-29.22-2.81-10.4-2.94-17.2-7.55-24.12-15.71-3.24-3.83-6.16-7.34-11.05-8.96-5.1-1.69-9.4-1.35-13.88-5.05-7.62-6.3-8.35-18.29-1.47-25.57"/>
  <path class="cls-1" d="M607.65,682.65c-.86-2.03-1.97-4.04-3.37-6.04-2.59-3.69-4.88-7.37-6.67-11.53-2.18-5.06-3.22-10.68-6.3-15.25-3.58-5.31-9.51-8.6-13.41-13.68-3.67-4.79-7.2-10.41-6.82-16.43.33-5.13.34-10.06-.74-15.1-5.34-25.05-28.29-24.97-48.36-29.74-9.68-2.3-20.06-5.56-29.53-8.49-9.41-2.91-16.45-13.02-22.6-20.26-6.95-8.17-13.36-15.81-14.85-26.76-1.39-10.24,3.65-19.65,6.66-29.22,4.14-13.19,25.86-46.11,8.72-56.42-16.18-9.73-43.12-1.43-60.9-1.09-10.33.2-20.85,1.99-31.13,1.76-10.6-.24-19.58-5.64-29.78-7.25-8.21-1.3-24.8.12-25.85-11.68-.94-10.6,12.1-16.53,9.28-28.45-2.58-10.91-14.36-13.97-22.76-19.14-9.21-5.67-14.47-13.9-19.23-23.37-4.72-9.4-10.4-17.35-16.48-25.87-7.18-10.05-7.46-17.43-4.31-29.16,3.03-11.31,11.14-19.83,19.17-27.92,8.19-8.26,15.04-17.16,22.04-26.38,1.96-2.59,3.55-5.44,5.61-7.97,4.93-6.05,10.76-11.52,14.26-18.59,1.22-2.47,2.14-5.1,3.59-7.43,1.52-2.43,3.59-4.48,5.14-6.89,3.18-4.92,5.26-13.63,1.54-18.84-1.38-1.94-3.46-3.35-5.47-4.56-13.06-7.8-35.8-12.88-50.93-12.65-8.91.14-17.37,3.21-24.39,8.72-6.9,5.41-11.32,13.83-18.4,18.84-17.32,12.26-33.04.08-51.24,1.94-9.34.96-12.75,10.46-19.65,15.97s-16.35,6.73-23.22,12.34c-15.89,12.98-6.61,33.52,1.89,47.78,9.47,15.89,3.87,34.58-5.18,49.59-4.55,7.54-9.3,14.87-13.51,22.62-4.93,9.09-9.12,13.11-18.94,16.87-8.35,3.19-18.96,3.23-22.44-6.56-2.87-8.07-2.13-17.49-4.95-25.84-4.95-14.67-16.78-38.87-35.49-28.02-16.62,9.65-16.64,29.55-21.47,46.14l-.44,1.54c-.95,3.56-1.97,7.26-2.18,10.96-.91,15.83,10.34,27.05,22.25,35.52,15.17,10.78,12.52,21.7,14.93,38.49,1.63,11.35,7.1,34.93,21.56,35.53,8.57.35,11.52-7.95,16.4-13.28,5.12-5.59,11.82-8.28,18.43-11.67,13.13-6.74,25.23-15.45,37.85-23.09,5.97-3.61,12-9.64,19.09-10.6,7.27-.98,14.36,2.79,21.8,2.14,14.91-1.3,26.83-11.77,42.03-13.16,6.68-.61,15.67-2.91,21.55.51,6.46,3.75,11.65,8.04,18.69,11.24,16.02,7.29,23.25,15.88,20.96,33.76-2.18,17-10.88,24.41-19.88,38.01-1.5,2.26-3.64,4.81-4.97,7.17-3.16,5.62-6.33,11.25-10.25,16.36-5.2,6.77-11.61,12.49-17.99,18.17-1.78,1.58-3.56,3.17-5.34,4.75-2.59,2.3-5.38,5.04-5.39,8.51l-.02.73c-.35,5.74,3.04,10.12,7.42,13.36,18.49,13.68,43.6,2.38,61.21-6.47,9.05-4.55,20.06-12.26,30.52-9.46,10.58,2.82,17.18,12.72,20.31,22.75,3.12,10,3.07,22.21,1.55,32.52-1.74,11.82-9.9,18.05-19.41,24.27-8.89,5.81-18.92,11.05-25.69,19.46-2.76,3.43-7.59,9.98-4.93,14.61,2,3.49,10.9,6.14,14.67,7.59,9.94,3.82,20.31,6.59,30.78,8.37,12.59,2.13,19.95-.34,31.11-6,20.59-10.45,41.5-8.26,62.45.09,9.96,3.97,19.93,8.58,28.81,14.6,9.45,6.41,13.95,15.62,19.86,25.06,11.84,18.91,26.34,33.29,42.68,48.22,16.59,15.16,39.65,26.61,53.42,1.59,9.49-17.24,24.94-38.38,16.59-58.11Z"/>
</svg>