<?xml version="1.0" encoding="UTF-8"?>
<svg id="Layer_1" xmlns="http://www.w3.org/2000/svg" xmlns:xlink="http://www.w3.org/1999/xlink" version="1.1" viewBox="0 0 490.2 348.5">
  <!-- Generator: Adobe Illustrator 30.4.0, SVG Export Plug-In . SVG Version: 2.1.4 Build 226)  -->
  <defs>
    <style>
      .st0 {
        fill: url(#linear-gradient);
      }

      .st1 {
        fill: #fff;
      }
    </style>
    <linearGradient id="linear-gradient" x1="22.9" y1="-265.6" x2="490.2" y2="-265.6" gradientTransform="translate(0 -91.3) scale(1 -1)" gradientUnits="userSpaceOnUse">
      <stop offset="0" stop-color="#fff"/>
      <stop offset="0" stop-color="#fff" stop-opacity=".9"/>
      <stop offset=".3" stop-color="#fff" stop-opacity=".7"/>
      <stop offset=".4" stop-color="#fff" stop-opacity=".5"/>
      <stop offset=".6" stop-color="#fff" stop-opacity=".3"/>
      <stop offset=".8" stop-color="#fff" stop-opacity=".2"/>
      <stop offset=".9" stop-color="#fff" stop-opacity=".1"/>
      <stop offset="1" stop-color="#fff" stop-opacity=".1"/>
    </linearGradient>
  </defs>
  <polygon class="st0" points="485.3 37.3 484.4 36.3 469.4 28.9 460.6 18.1 458.9 17.4 345.4 20.8 344.3 21.2 335.8 27.1 316.9 29 309.9 27.6 307.8 28.4 304.2 33.4 293.1 35.1 277.3 41.3 276.4 41.9 274.4 44.6 261.4 46.9 257.8 42.9 256.1 42.2 251.5 42.7 250.7 43 237.3 51.2 231.5 49.2 229.7 49.5 225 52.8 223.5 49.2 222.1 48 212.7 46 212 45.9 207.3 46.6 203.3 44 201.5 43.9 191.9 47.5 187.7 46.2 186.5 46.1 182.2 47.3 181.1 47.9 178 51.9 160.7 59.1 135.7 51.4 134.3 32.1 134.2 31.6 128.8 17.6 128.1 16.6 113.2 6.6 111.4 6.3 99.9 9.7 98.9 8.2 99.1 4.3 98.2 2.5 94.7 .2 92.9 0 89.4 1.4 88.3 2.3 86.1 7 83 7.4 80.9 4.9 79.1 4.2 75.3 4.8 74 5.6 73.1 6.9 65.7 2.9 62.7 5.3 66.7 19.9 63.8 24.9 63.5 25.8 63 39.3 63.1 39.8 64.8 47.6 60.9 94.7 56.3 128.9 60.8 128.9 65.3 95.2 69.4 47.6 69.3 47 67.5 39.1 68 26.6 71 21.3 71.3 19.7 68.5 9.5 72.9 11.9 75.6 11.2 77 9.1 78.4 8.9 80.5 11.4 82.3 12.1 88 11.3 89.6 10.1 91.8 5.2 93.3 4.7 94.5 5.4 94.3 8.8 94.7 10 97.3 13.8 99.5 14.6 111.6 10.9 124.9 19.8 129.8 32.9 131.3 53.4 132.8 55.2 160.1 63.6 160.2 63.7 161.5 63.6 180.3 55.8 181.1 55.2 184.1 51.4 186.9 50.6 191.4 52.1 192.6 52.1 202 48.5 205.6 50.8 207 51.1 212.2 50.5 219.8 52.1 221.9 57.3 225 58.3 231.2 53.9 236.9 55.9 238.5 55.7 252.5 47.1 255.3 46.8 258.9 50.9 260.8 51.5 276 48.9 277.3 48.2 279.6 45.2 294.1 39.5 305.8 37.8 307.1 37 310.5 32.4 316.4 33.5 317 33.5 336.8 31.5 337.8 31.2 346.2 25.3 457.9 21.9 466.2 32.1 466.9 32.7 481.5 39.9 485.6 49 475.9 69 469.9 91.3 465.2 98.4 465 100.2 466.7 105.1 463.8 113.2 456.4 118 455.6 119 447 143.4 446.9 144.5 450.3 159.7 452 161.2 462.6 162.6 466.2 166.9 464.9 169.5 464.7 170.6 465.3 178.2 460.7 201.1 460.7 201.5 466.5 338.3 292.9 344 44 342.2 38 334.4 32.4 315.3 33.6 304.6 36.5 300 36.8 298.3 34.1 289.8 33.4 288.8 29.3 285.6 27.4 275.3 38.7 245.9 38.7 244.5 37.1 239.6 40.5 238.9 42 237.6 48.9 218.2 55.5 168.9 51 168.9 44.5 216.9 38.2 234.7 33.5 235.7 32 238.4 34.2 245.1 23 274.2 22.9 275.4 25 287.3 25.7 288.6 30 291.9 32.2 298.5 29.6 302.7 29.3 303.5 27.9 315.4 28 316.2 33.8 336.2 34.2 336.8 41.2 345.9 42.8 346.7 293 348.5 469.1 342.7 471.1 340.6 465.2 201.6 469.7 178.7 469.8 178.1 469.2 171 470.9 167.5 470.7 165.3 465.5 159 464.2 158.3 454.3 157 451.5 144.2 459.5 121.4 466.9 116.6 467.7 115.6 471.2 105.8 471.2 104.4 469.6 99.9 473.9 93.4 474.1 92.8 480 70.7 490.1 50 490.2 48.2 485.3 37.3"/>
  <g>
    <path class="st1" d="M8.5,161.4c-2.9,0-5-1-6.4-3.1s-2.1-4.9-2.1-8.7.7-6.7,2.1-8.7,3.5-3.1,6.4-3.1,2.1.1,2.9.4c.8.3,1.5.7,2.1,1.2.6.5,1.1,1.1,1.5,1.8s.7,1.4,1,2.2l-3.3,1.1c-.2-.5-.4-1-.6-1.5s-.5-.9-.8-1.2c-.3-.3-.7-.6-1.2-.8-.4-.2-1-.3-1.6-.3-1.6,0-2.8.6-3.5,1.9-.7,1.2-1.1,2.9-1.1,5v3.9c0,2.1.4,3.8,1.1,5,.7,1.2,1.9,1.9,3.5,1.9s1.2-.1,1.6-.3c.4-.2.8-.5,1.2-.8.3-.3.6-.7.8-1.2.2-.5.4-.9.6-1.5l3.3,1.1c-.3.8-.6,1.5-1,2.2-.4.7-.9,1.3-1.5,1.8-.6.5-1.3.9-2.1,1.2s-1.8.4-2.9.4h0Z"/>
    <path class="st1" d="M27.4,161.4c-1.4,0-2.7-.3-3.7-.8s-1.9-1.3-2.6-2.3c-.7-1-1.2-2.2-1.5-3.7-.3-1.5-.5-3.1-.5-5s.2-3.5.5-5,.8-2.7,1.5-3.7c.7-1,1.5-1.8,2.6-2.3,1-.5,2.3-.8,3.7-.8s2.7.3,3.7.8,1.9,1.3,2.6,2.3c.7,1,1.2,2.2,1.5,3.7s.5,3.1.5,5-.2,3.5-.5,5-.8,2.7-1.5,3.7c-.7,1-1.5,1.8-2.6,2.3-1,.5-2.3.8-3.7.8ZM27.4,158.4c1.6,0,2.8-.6,3.5-1.9.7-1.2,1-2.9,1-5v-3.8c0-2.1-.3-3.8-1-5-.7-1.2-1.8-1.9-3.5-1.9s-2.8.6-3.5,1.9c-.7,1.2-1,2.9-1,5v3.9c0,2.1.3,3.8,1,5,.7,1.2,1.8,1.9,3.5,1.9Z"/>
    <path class="st1" d="M48.8,141.3v19.7h-3.7v-19.7h-7.1v-3.1h17.9v3.1h-7.1,0Z"/>
    <path class="st1" d="M68.4,141.3v19.7h-3.7v-19.7h-7.1v-3.1h17.9v3.1h-7.1,0Z"/>
    <path class="st1" d="M91.4,161l-1.7-6.1h-7.2l-1.7,6.1h-3.7l6.7-22.8h5l6.7,22.8s-3.9,0-3.9,0ZM86.2,141.9h-.3l-2.8,10h5.9l-2.8-10h0Z"/>
    <path class="st1" d="M109.9,157.8h-.2c-.2.5-.4.9-.7,1.3-.3.4-.6.8-1,1.1-.4.3-.9.6-1.4.8-.6.2-1.2.3-2,.3-2.4,0-4.2-1-5.3-3-1.2-2-1.8-4.9-1.8-8.6s.7-6.8,2.1-8.9,3.5-3.1,6.3-3.1,2.1.1,2.9.4,1.6.7,2.1,1.2c.6.5,1.1,1.1,1.5,1.8s.7,1.4.9,2.2l-3.3,1.1c-.2-.5-.4-1-.6-1.4-.2-.4-.5-.8-.8-1.2s-.7-.6-1.1-.8c-.4-.2-1-.3-1.6-.3-1.6,0-2.7.6-3.4,1.8s-1.1,2.9-1.1,5v3.6c0,1.1,0,2,.2,2.9s.4,1.6.8,2.2c.4.6.8,1.1,1.4,1.4.6.4,1.3.5,2.1.5,1.3,0,2.3-.4,3.1-1.2s1.1-1.8,1.1-3.1v-2.1h-4.4v-2.7h7.7v11.6h-3.3v-3.1h0Z"/>
    <path class="st1" d="M118.2,161v-22.8h14.2v3.1h-10.6v6.6h10.2v3.1h-10.2v6.9h10.6v3.1h-14.2Z"/>
    <path class="st1" d="M168.5,157.8h-.2c-.2.5-.4.9-.7,1.3-.3.4-.6.8-1,1.1-.4.3-.9.6-1.4.8-.6.2-1.2.3-2,.3-2.4,0-4.1-1-5.3-3s-1.8-4.9-1.8-8.6.7-6.8,2.1-8.9c1.4-2,3.5-3.1,6.3-3.1s2.1.1,2.9.4,1.6.7,2.1,1.2c.6.5,1.1,1.1,1.5,1.8s.7,1.4.9,2.2l-3.3,1.1c-.2-.5-.4-1-.6-1.4-.2-.4-.5-.8-.8-1.2s-.7-.6-1.1-.8c-.4-.2-1-.3-1.6-.3-1.6,0-2.7.6-3.4,1.8s-1.1,2.9-1.1,5v3.6c0,1.1,0,2,.2,2.9s.4,1.6.8,2.2c.4.6.8,1.1,1.4,1.4.6.4,1.3.5,2.1.5,1.3,0,2.3-.4,3.1-1.2s1.1-1.8,1.1-3.1v-2.1h-4.4v-2.7h7.7v11.6h-3.3v-3.1h0Z"/>
    <path class="st1" d="M180.4,161h-3.6v-22.8h8.5c2.2,0,3.8.6,5,1.8s1.7,2.9,1.7,5-.4,3.2-1.3,4.3-2.1,1.8-3.6,2.1l5.2,9.5h-4l-4.8-9.2h-3v9.2h0ZM184.8,148.8c2.3,0,3.4-1,3.4-3.1v-1.4c0-2.1-1.1-3.1-3.4-3.1h-4.4v7.6h4.4Z"/>
    <path class="st1" d="M203.4,161.4c-1.4,0-2.7-.3-3.7-.8s-1.9-1.3-2.6-2.3c-.7-1-1.2-2.2-1.5-3.7-.3-1.5-.5-3.1-.5-5s.2-3.5.5-5,.8-2.7,1.5-3.7c.7-1,1.6-1.8,2.6-2.3,1.1-.5,2.3-.8,3.7-.8s2.7.3,3.7.8,1.9,1.3,2.6,2.3c.7,1,1.2,2.2,1.5,3.7s.5,3.1.5,5-.2,3.5-.5,5-.8,2.7-1.5,3.7c-.7,1-1.6,1.8-2.6,2.3-1.1.5-2.3.8-3.7.8ZM203.4,158.4c1.6,0,2.8-.6,3.4-1.9.7-1.2,1-2.9,1-5v-3.8c0-2.1-.3-3.8-1-5-.7-1.2-1.8-1.9-3.4-1.9s-2.8.6-3.4,1.9c-.7,1.2-1,2.9-1,5v3.9c0,2.1.3,3.8,1,5,.7,1.2,1.8,1.9,3.4,1.9Z"/>
    <path class="st1" d="M220.4,161l-6.4-22.8h3.9l3,11.5,2,7.7h.2l2-7.7,3-11.5h3.8l-6.4,22.8h-5.1Z"/>
    <path class="st1" d="M235.5,161v-22.8h14.2v3.1h-10.6v6.6h10.2v3.1h-10.2v6.9h10.6v3.1h-14.2Z"/>
  </g>
  <polygon class="st1" points="121.5 181.4 118.3 181.4 114.4 196.3 100.1 196.3 100.1 199.3 111.1 205.4 106.8 218.9 109.1 220.7 119.9 212.3 130.7 220.6 133.2 218.9 128.8 205.6 139.7 199.3 139.7 196.3 125.4 196.3 121.5 181.4 121.5 181.4"/>
</svg>