<?xml version="1.0" encoding="UTF-8"?>
<svg id="Layer_1" data-name="Layer 1" xmlns="http://www.w3.org/2000/svg" xmlns:xlink="http://www.w3.org/1999/xlink" viewBox="0 0 467.28 348.54">
  <defs>
    <style>
      .cls-1 {
        fill: url(#linear-gradient);
      }

      .cls-2 {
        fill: #fff;
      }
    </style>
    <linearGradient id="linear-gradient" x1="0" y1="174.27" x2="467.28" y2="174.27" gradientUnits="userSpaceOnUse">
      <stop offset="0" stop-color="#fff"/>
      <stop offset=".07" stop-color="#fff" stop-opacity=".91"/>
      <stop offset=".26" stop-color="#fff" stop-opacity=".66"/>
      <stop offset=".44" stop-color="#fff" stop-opacity=".46"/>
      <stop offset=".61" stop-color="#fff" stop-opacity=".31"/>
      <stop offset=".77" stop-color="#fff" stop-opacity=".19"/>
      <stop offset=".9" stop-color="#fff" stop-opacity=".12"/>
      <stop offset="1" stop-color="#fff" stop-opacity=".1"/>
    </linearGradient>
  </defs>
  <polygon class="cls-1" points="462.41 37.31 461.49 36.32 446.53 28.91 437.69 18.1 436.07 17.37 322.52 20.83 321.43 21.17 312.9 27.1 293.98 29.03 286.99 27.64 284.96 28.43 281.31 33.44 270.27 35.06 254.44 41.27 253.56 41.92 251.51 44.62 238.48 46.88 234.89 42.87 233.19 42.21 228.66 42.68 227.81 42.95 214.41 51.22 208.63 49.21 206.81 49.47 202.08 52.81 200.66 49.22 199.21 48 189.78 45.96 189.08 45.94 184.44 46.56 180.46 44.04 178.66 43.86 169.05 47.55 164.83 46.15 163.6 46.09 159.32 47.26 158.25 47.94 155.15 51.89 137.8 59.09 112.83 51.38 111.42 32.13 111.29 31.57 105.96 17.56 105.22 16.6 90.32 6.58 88.52 6.26 77.06 9.73 75.99 8.22 76.21 4.27 75.31 2.48 71.87 .2 70.04 0 66.51 1.36 65.39 2.35 63.18 7.01 60.17 7.42 58.07 4.89 56.18 4.19 52.44 4.82 51.1 5.64 50.21 6.88 42.86 2.93 39.83 5.35 43.79 19.85 40.94 24.85 40.66 25.77 40.13 39.29 40.19 39.8 41.96 47.63 37.99 94.66 33.42 128.92 37.96 128.92 42.46 95.15 46.48 47.59 46.43 46.98 44.64 39.1 45.12 26.61 48.16 21.28 48.41 19.66 45.64 9.53 50.04 11.89 52.69 11.24 54.14 9.1 55.52 8.87 57.59 11.35 59.41 12.06 65.13 11.29 66.68 10.14 68.97 5.23 70.46 4.66 71.64 5.45 71.45 8.83 71.79 10.02 74.42 13.78 76.66 14.55 88.7 10.91 102.01 19.83 106.97 32.86 108.46 53.39 109.88 55.18 137.24 63.63 137.33 63.65 138.6 63.59 157.42 55.82 158.24 55.21 161.22 51.41 164.06 50.63 168.48 52.1 169.75 52.07 179.11 48.51 182.72 50.8 184.14 51.14 189.29 50.45 196.97 52.11 199.04 57.35 202.14 58.27 208.36 53.88 214.05 55.86 215.66 55.69 229.63 47.1 232.39 46.82 236.05 50.91 237.9 51.55 253.16 48.9 254.44 48.16 256.69 45.22 271.18 39.48 282.9 37.75 284.25 36.98 287.66 32.36 293.51 33.52 294.1 33.54 313.94 31.52 314.88 31.18 323.32 25.31 434.98 21.9 443.35 32.14 444.01 32.68 458.64 39.9 462.7 48.95 452.98 68.96 446.99 91.3 442.33 98.44 442.11 100.19 443.78 105.08 440.89 113.23 433.51 118.02 432.69 119.02 424.12 143.36 424.03 144.52 427.41 159.67 429.13 161.25 439.74 162.58 443.32 166.92 442.02 169.54 441.79 170.65 442.38 178.16 437.81 201.05 437.78 201.53 443.59 338.31 270.07 344.04 21.17 342.23 15.11 334.4 9.54 315.34 10.77 304.62 13.65 300.04 13.93 298.27 11.24 289.83 10.56 288.83 6.4 285.65 4.55 275.27 15.79 245.95 15.85 244.53 14.24 239.56 17.62 238.86 19.11 237.56 26 218.17 32.62 168.92 28.08 168.92 21.67 216.94 15.34 234.74 10.65 235.71 9.11 238.35 11.3 245.08 .13 274.24 0 275.37 2.12 287.31 2.86 288.57 7.17 291.88 9.29 298.53 6.69 302.66 6.38 303.49 5.01 315.38 5.09 316.17 10.94 336.16 11.29 336.82 18.36 345.94 19.93 346.72 270.1 348.54 446.21 342.73 448.19 340.6 442.28 201.61 446.86 178.67 446.89 178.12 446.33 170.98 448.07 167.48 447.82 165.3 442.64 159.03 441.37 158.29 431.42 157 428.58 144.24 436.6 121.38 443.98 116.59 444.79 115.6 448.29 105.85 448.32 104.45 446.76 99.89 450.99 93.39 451.24 92.81 457.13 70.69 467.21 49.97 467.28 48.16 462.41 37.31"/>
  <g>
    <path class="cls-2" d="M13.12,161.36c-2.89,0-5.03-1.02-6.44-3.06s-2.1-4.94-2.1-8.7.7-6.66,2.1-8.7,3.55-3.06,6.44-3.06c1.11,0,2.07.15,2.88.44.81.29,1.52.69,2.1,1.19.59.51,1.08,1.1,1.48,1.78.4.68.73,1.41.99,2.2l-3.29,1.11c-.17-.52-.37-1.01-.59-1.47-.22-.46-.49-.85-.81-1.17-.33-.33-.71-.59-1.16-.78-.45-.2-.99-.29-1.65-.29-1.61,0-2.78.62-3.52,1.85-.74,1.23-1.11,2.89-1.11,4.99v3.86c0,2.09.37,3.76,1.11,4.99.74,1.23,1.91,1.85,3.52,1.85.65,0,1.2-.1,1.65-.29.44-.2.83-.46,1.16-.78.33-.33.6-.72.81-1.17.22-.46.41-.94.59-1.47l3.29,1.11c-.26.78-.59,1.51-.99,2.2-.4.68-.9,1.28-1.48,1.78-.59.5-1.29.9-2.1,1.19s-1.78.44-2.88.44Z"/>
    <path class="cls-2" d="M32.02,161.36c-1.43,0-2.68-.27-3.73-.8-1.05-.53-1.92-1.3-2.61-2.3-.68-1-1.19-2.23-1.52-3.68-.33-1.46-.49-3.12-.49-4.99s.16-3.5.49-4.97c.33-1.47.83-2.7,1.52-3.7.68-1,1.55-1.76,2.61-2.3,1.05-.53,2.3-.8,3.73-.8s2.68.27,3.73.8c1.05.53,1.92,1.3,2.61,2.3.68,1,1.19,2.23,1.52,3.7.33,1.47.49,3.12.49,4.97s-.16,3.53-.49,4.99c-.33,1.46-.83,2.68-1.52,3.68-.68,1-1.55,1.76-2.61,2.3-1.05.53-2.3.8-3.73.8ZM32.02,158.36c1.63,0,2.78-.62,3.45-1.85.67-1.23,1.01-2.91,1.01-5.02v-3.83c0-2.09-.34-3.76-1.01-4.99-.67-1.23-1.82-1.85-3.45-1.85s-2.78.62-3.45,1.85c-.67,1.23-1.01,2.89-1.01,4.99v3.86c0,2.09.34,3.76,1.01,4.99.67,1.23,1.82,1.85,3.45,1.85Z"/>
    <path class="cls-2" d="M53.39,141.28v19.68h-3.65v-19.68h-7.14v-3.06h17.92v3.06h-7.14Z"/>
    <path class="cls-2" d="M72.95,141.28v19.68h-3.65v-19.68h-7.14v-3.06h17.92v3.06h-7.14Z"/>
    <path class="cls-2" d="M95.95,160.97l-1.73-6.09h-7.23l-1.73,6.09h-3.72l6.65-22.75h4.99l6.65,22.75h-3.88ZM90.74,141.9h-.26l-2.8,9.97h5.87l-2.8-9.97Z"/>
    <path class="cls-2" d="M114.46,157.84h-.23c-.2.46-.43.9-.7,1.32-.27.42-.61.8-1.01,1.12-.4.33-.89.59-1.45.78-.57.2-1.22.29-1.96.29-2.37,0-4.15-1.01-5.34-3.03-1.19-2.02-1.79-4.88-1.79-8.57s.68-6.82,2.05-8.86c1.37-2.04,3.46-3.06,6.29-3.06,1.11,0,2.08.15,2.92.45.84.3,1.55.7,2.13,1.21.59.51,1.08,1.1,1.47,1.78s.71,1.4.94,2.16l-3.29,1.11c-.17-.5-.37-.97-.59-1.42-.22-.44-.48-.84-.8-1.19-.32-.35-.7-.62-1.14-.81-.45-.2-.98-.29-1.61-.29-1.59,0-2.73.61-3.44,1.84-.71,1.23-1.06,2.89-1.06,4.98v3.62c0,1.05.08,2,.23,2.87.15.87.41,1.62.77,2.24.36.62.83,1.1,1.4,1.45.58.35,1.28.52,2.1.52,1.33,0,2.34-.4,3.05-1.19s1.06-1.81,1.06-3.05v-2.05h-4.4v-2.74h7.72v11.63h-3.32v-3.13Z"/>
    <path class="cls-2" d="M122.8,160.97v-22.75h14.24v3.06h-10.59v6.62h10.2v3.06h-10.2v6.94h10.59v3.06h-14.24Z"/>
    <path class="cls-2" d="M173.11,157.84h-.23c-.2.46-.43.9-.7,1.32-.27.42-.61.8-1.01,1.12-.4.33-.89.59-1.45.78-.57.2-1.22.29-1.96.29-2.37,0-4.15-1.01-5.34-3.03-1.19-2.02-1.79-4.88-1.79-8.57s.68-6.82,2.05-8.86c1.37-2.04,3.46-3.06,6.29-3.06,1.11,0,2.08.15,2.92.45.84.3,1.55.7,2.13,1.21.59.51,1.08,1.1,1.47,1.78s.71,1.4.94,2.16l-3.29,1.11c-.17-.5-.37-.97-.59-1.42-.22-.44-.48-.84-.8-1.19-.32-.35-.7-.62-1.14-.81-.45-.2-.98-.29-1.61-.29-1.59,0-2.73.61-3.44,1.84-.71,1.23-1.06,2.89-1.06,4.98v3.62c0,1.05.08,2,.23,2.87.15.87.41,1.62.77,2.24.36.62.83,1.1,1.4,1.45.58.35,1.28.52,2.1.52,1.33,0,2.34-.4,3.05-1.19s1.06-1.81,1.06-3.05v-2.05h-4.4v-2.74h7.72v11.63h-3.32v-3.13Z"/>
    <path class="cls-2" d="M185.01,160.97h-3.62v-22.75h8.51c2.17,0,3.83.61,4.97,1.82,1.14,1.21,1.71,2.88,1.71,5.01,0,1.73-.42,3.16-1.27,4.29s-2.06,1.82-3.65,2.08l5.25,9.54h-4.04l-4.82-9.22h-3.03v9.22ZM189.37,148.84c2.26,0,3.39-1.04,3.39-3.11v-1.41c0-2.07-1.13-3.11-3.39-3.11h-4.37v7.63h4.37Z"/>
    <path class="cls-2" d="M207.98,161.36c-1.43,0-2.68-.27-3.73-.8-1.05-.53-1.92-1.3-2.61-2.3-.68-1-1.19-2.23-1.52-3.68-.33-1.46-.49-3.12-.49-4.99s.16-3.5.49-4.97c.33-1.47.83-2.7,1.52-3.7.68-1,1.55-1.76,2.61-2.3,1.05-.53,2.3-.8,3.73-.8s2.68.27,3.73.8c1.05.53,1.92,1.3,2.61,2.3.68,1,1.19,2.23,1.52,3.7.33,1.47.49,3.12.49,4.97s-.16,3.53-.49,4.99c-.33,1.46-.83,2.68-1.52,3.68-.68,1-1.55,1.76-2.61,2.3-1.05.53-2.3.8-3.73.8ZM207.98,158.36c1.63,0,2.78-.62,3.45-1.85.67-1.23,1.01-2.91,1.01-5.02v-3.83c0-2.09-.34-3.76-1.01-4.99-.67-1.23-1.82-1.85-3.45-1.85s-2.78.62-3.45,1.85c-.67,1.23-1.01,2.89-1.01,4.99v3.86c0,2.09.34,3.76,1.01,4.99.67,1.23,1.82,1.85,3.45,1.85Z"/>
    <path class="cls-2" d="M224.99,160.97l-6.42-22.75h3.94l3,11.47,1.99,7.72h.2l1.99-7.72,3.03-11.47h3.78l-6.42,22.75h-5.08Z"/>
    <path class="cls-2" d="M240.11,160.97v-22.75h14.24v3.06h-10.59v6.62h10.2v3.06h-10.2v6.94h10.59v3.06h-14.24Z"/>
  </g>
  <polygon class="cls-2" points="99.19 181.44 95.99 181.44 92.11 196.29 77.75 196.29 77.75 199.33 88.72 205.43 84.42 218.88 86.79 220.67 97.6 212.32 108.36 220.64 110.84 218.91 106.46 205.62 117.35 199.32 117.35 196.29 103.07 196.29 99.19 181.44 99.19 181.44"/>
</svg>